<svg xmlns="http://www.w3.org/2000/svg" width="392.916" height="358.487" viewBox="0 0 392.916 358.487"><g transform="translate(-117.15 -226.224)"><path d="M209.375,446.327l-14.229,15.828c-8.7-7.835-17.234-15.073-25.26-22.834-17.148-16.582-27.976-36.276-29.25-60.655-2.226-42.549,30.747-81.291,73.256-85.8,43.3-4.6,81.685,21.763,90.641,62.76,6.693,30.638-.27,57.523-23.08,79.926-23.233,22.818-46.025,46.086-69.2,68.962-5.963,5.886-8.292,12.313-6.7,20.577,2.339,12.1-1.409,22.659-9.71,31.474-6.525,6.928-13.473,13.461-20.333,20.066a36.427,36.427,0,0,1-5.792,4.347c-3.1,1.97-5.968,1.195-8.465-1.251-2.513-2.462-3.5-5.549-1.291-8.4,3.157-4.074,6.866-7.722,10.371-11.525,2.456-2.662,5.183-5.11,7.387-7.964,1.955-2.53,2.231-5.43-.392-7.95-2.666-2.563-5.793-3.542-8.907-1.263a85.178,85.178,0,0,0-8.035,7.32c-2.38,2.263-4.535,4.792-7.072,6.857-3.058,2.489-6.354,2.512-9.408-.255-3.159-2.862-3.925-6.439-1.393-9.751,2.81-3.678,6.389-6.766,9.6-10.141a46.811,46.811,0,0,0,4.847-5.379c2.184-3.161,1.628-6.225-1.174-8.841-2.669-2.491-5.805-2.813-8.471-.534-3.932,3.361-7.428,7.23-11.136,10.855-2.1,2.054-4.148,4.185-6.409,6.05-3.52,2.9-7.032,2.514-10.162-.7-3-3.078-3.414-6.767-.4-9.733,10.474-10.313,20.825-20.817,32.005-30.327,7.257-6.173,16.563-6.712,25.68-4.033,6.594,1.938,11.9.141,16.547-4.5,25-24.975,50.338-49.625,74.859-75.062,17.321-17.968,19.564-39.392,10.384-62.144-9.337-23.14-27.091-34.984-51.6-36.325-25.423-1.392-47.457,12.2-57.313,34.342-10.37,23.3-6.04,48.229,11.712,66.776,8.263,8.634,16.684,17.117,25,25.7C207.659,444.016,208.638,445.419,209.375,446.327Z" transform="translate(0 2.621)" fill="#00a082"/><path d="M352.707,395.807c10.577,10.681,20.791,21.258,31.422,31.394,1.311,1.25,5.628,1.2,7.246-.008,18.992-14.131,29.53-32.3,25.423-56.8-2.354-14.031,5.7-21.909,16.347-28.7,6.314,12.415,8.1,25.65,7.853,39.279-.414,23.049-9.358,42.221-26.136,57.963-8.834,8.287-17.311,16.953-26.469,25.961-24.262-20.617-45.616-44.452-68.207-66.343L492.066,226.224c6.785,4.842,8.7,12.538,9.6,20.386,1.248,10.879-.683,21.194-8.683,29.369-7.98,8.154-15.777,16.623-24.641,23.719-4.41,3.531-10.893,5.249-16.684,6.086-8.1,1.172-14.611,4.029-20.421,9.949-24.5,24.973-49.33,49.632-74,74.449A67.8,67.8,0,0,0,352.707,395.807Z" transform="translate(8.048)" fill="#00a082"/><path d="M306.492,423.868c5.38,5.108,10.334,9.636,15.091,14.363q19.527,19.4,38.9,38.949c4.883,4.93,4.938,6.732.048,11.654q-32.215,32.418-64.579,64.686c-2.6,2.6-5.51,4.028-8.6,1-18.15-17.814-36.228-35.7-54.9-54.127L251,484.987l37.9,39.4c14.492-14.893,27.964-28.737,42.512-43.686l-40.624-36.929Z" transform="translate(4.571 7.834)" fill="#00a082"/><path d="M387.892,298.137c-4.939,4.67-9.23,8.664-13.448,12.734a17.117,17.117,0,0,1-13.21,4.843c-17.362-.62-32.066,5.816-44.776,17.32-4.449,4.026-4.989,3.962-7.943-1.209-1.717-3-3.165-6.165-4.977-9.105-2.674-4.342-1.6-7.905,1.921-11.052a74.474,74.474,0,0,1,41.46-18.584c11.746-1.448,23.465-1.614,34.828,2.54C383.5,296.264,385.2,297.032,387.892,298.137Z" transform="translate(7.329 2.613)" fill="#00a082"/></g></svg>