<svg width="379" height="403" viewBox="0 0 379 403" fill="none" xmlns="http://www.w3.org/2000/svg">
<path d="M362.512 176.279C362.508 176.274 362.503 176.202 362.499 176.065C362.495 175.907 362.491 175.708 362.484 175.46C362.476 174.905 362.465 174.132 362.451 173.14C362.433 171.105 362.407 168.179 362.375 164.49L362.513 164.628C352.338 164.648 336.156 164.681 317.952 164.717C318.052 164.616 317.723 164.943 318.176 164.491V164.493V164.5V164.512V164.535V164.583V164.678V164.868V165.247V166.003C318.176 166.506 318.176 167.007 318.176 167.507C318.176 168.506 318.175 169.498 318.175 170.482C318.174 172.449 318.172 174.385 318.171 176.281L317.95 176.059C330.64 176.099 341.744 176.135 349.707 176.16C353.674 176.187 356.857 176.208 359.081 176.223C360.163 176.236 361.009 176.245 361.616 176.252C361.889 176.259 362.107 176.263 362.279 176.267C362.428 176.27 362.507 176.274 362.512 176.279C362.517 176.284 362.447 176.288 362.306 176.294C362.142 176.297 361.933 176.302 361.671 176.308C361.076 176.316 360.245 176.325 359.184 176.338C356.973 176.352 353.806 176.374 349.861 176.401C341.858 176.426 330.7 176.461 317.949 176.502L317.727 176.503V176.28C317.726 174.384 317.724 172.448 317.724 170.481C317.724 169.497 317.723 168.505 317.723 167.506C317.723 167.007 317.723 166.505 317.723 166.002V165.246V164.867V164.677V164.582V164.534V164.511V164.499V164.492V164.49C318.177 164.035 317.85 164.363 317.953 164.262C336.156 164.299 352.339 164.331 362.514 164.351H362.654L362.653 164.49C362.62 168.214 362.594 171.167 362.577 173.222C362.562 174.2 362.551 174.964 362.543 175.511C362.537 175.749 362.532 175.939 362.528 176.091C362.522 176.221 362.517 176.284 362.512 176.279Z" fill="#E0E0E0"/>
<path d="M198.299 362.004L188.2 366.336L188.879 306.564C189.195 299.414 185.903 296.361 184.115 294.328C167.898 275.888 143.706 289.263 143.494 307.964L142.887 361.375L133.075 361.263L134.05 305.372C134.122 299.074 139.014 288.155 143.95 284.245C171.243 262.625 199.174 284.965 198.905 308.593L198.299 362.004Z" fill="#F5F5F5"/>
<path d="M198.299 362.004C198.299 362.004 198.292 361.637 198.294 360.936C198.298 360.228 198.305 359.192 198.312 357.835C198.333 355.11 198.365 351.106 198.405 345.953C198.45 340.801 198.506 334.502 198.57 327.19C198.605 323.536 198.643 319.63 198.681 315.488C198.643 311.355 199.055 306.941 198.208 302.42C197.424 297.904 195.521 293.362 192.588 289.314C192.214 288.813 191.856 288.295 191.466 287.8C191.046 287.328 190.624 286.854 190.2 286.378C189.394 285.384 188.375 284.583 187.444 283.678C186.97 283.233 186.421 282.873 185.91 282.463C185.377 282.081 184.892 281.627 184.315 281.3C183.185 280.613 182.087 279.845 180.853 279.297C178.479 278.011 175.834 277.218 173.144 276.535C172.458 276.423 171.768 276.31 171.076 276.196L170.037 276.026C169.687 275.99 169.334 275.979 168.982 275.954C168.276 275.911 167.569 275.867 166.858 275.824C166.148 275.812 165.434 275.87 164.718 275.89C158.982 276.09 153.18 278.051 148.156 281.407C145.643 283.1 143.396 285.215 141.374 287.559C139.398 289.95 137.783 292.662 136.493 295.552C135.252 298.471 134.489 301.602 134.093 304.806C133.819 308.019 133.892 311.322 133.829 314.63C133.679 327.885 133.526 341.608 133.368 355.664C133.347 357.541 133.326 359.411 133.304 361.267L133.077 361.034C136.414 361.072 139.703 361.109 142.889 361.146L142.658 361.372C142.78 350.749 142.9 340.356 143.017 330.257C143.075 325.207 143.134 320.231 143.191 315.336C143.219 312.889 143.248 310.462 143.276 308.056C143.337 305.629 143.727 303.234 144.46 300.963C146.001 296.45 148.879 292.5 152.577 289.794C153.048 289.47 153.481 289.09 153.98 288.815L155.446 287.947C156.467 287.464 157.464 286.926 158.537 286.594C159.579 286.178 160.671 285.946 161.746 285.681C162.287 285.568 162.838 285.517 163.381 285.433L164.198 285.318L165.018 285.285C167.204 285.108 169.369 285.403 171.452 285.824C173.531 286.311 175.5 287.093 177.333 288.068C180.941 290.112 183.966 292.991 185.946 296.373C187.008 298.025 187.695 299.843 188.304 301.634C188.787 303.464 189.168 305.301 189.208 307.136C189.225 307.593 189.242 308.049 189.259 308.502C189.254 308.953 189.248 309.401 189.243 309.848C189.232 310.741 189.221 311.625 189.21 312.502C189.188 314.254 189.166 315.973 189.145 317.658C189.059 324.399 188.979 330.595 188.908 336.182C188.754 347.349 188.634 356.084 188.554 361.893L188.487 361.825C191.821 361.88 194.265 361.922 195.886 361.948C196.692 361.964 197.29 361.976 197.697 361.984C198.097 361.994 198.299 362.004 198.299 362.004C198.299 362.004 198.112 362.01 197.719 362.01C197.315 362.009 196.722 362.008 195.924 362.006C194.294 361.996 191.838 361.981 188.485 361.96H188.418L188.418 361.892C188.471 356.082 188.549 347.347 188.648 336.179C188.703 330.592 188.766 324.395 188.833 317.655C188.85 315.969 188.867 314.25 188.885 312.497C188.894 311.62 188.903 310.736 188.912 309.843C188.917 309.397 188.921 308.948 188.926 308.498C188.909 308.051 188.89 307.602 188.872 307.151C188.83 305.344 188.449 303.535 187.971 301.733C187.366 299.972 186.688 298.182 185.639 296.559C183.683 293.233 180.7 290.406 177.149 288.401C175.345 287.444 173.408 286.679 171.363 286.202C169.315 285.792 167.186 285.503 165.038 285.682L164.231 285.715L163.43 285.829C162.896 285.914 162.355 285.964 161.823 286.076C160.768 286.338 159.696 286.565 158.672 286.977C157.619 287.303 156.641 287.834 155.638 288.309L154.199 289.163C153.708 289.434 153.284 289.808 152.822 290.126C149.193 292.787 146.372 296.671 144.864 301.1C144.146 303.329 143.768 305.677 143.708 308.063C143.682 310.468 143.655 312.895 143.629 315.343C143.575 320.238 143.52 325.214 143.464 330.263C143.351 340.362 143.235 350.755 143.116 361.377L143.113 361.606L142.884 361.604C139.697 361.568 136.409 361.53 133.071 361.493L132.841 361.49L132.844 361.26C132.865 359.405 132.886 357.534 132.908 355.657C133.069 341.602 133.227 327.879 133.379 314.624C133.445 311.308 133.37 308.034 133.65 304.758C134.053 301.51 134.83 298.335 136.089 295.378C137.398 292.448 139.038 289.702 141.042 287.281C143.092 284.908 145.37 282.768 147.918 281.055C153.01 277.66 158.891 275.681 164.698 275.485C165.423 275.466 166.146 275.409 166.865 275.422L169.328 275.576C169.779 275.627 170.231 275.679 170.683 275.73L172.741 276.07C173.057 276.137 173.374 276.204 173.691 276.27C176.253 276.938 178.76 277.727 181.023 278.956C182.271 279.512 183.381 280.291 184.523 280.988C185.105 281.32 185.596 281.78 186.134 282.167C186.651 282.581 187.205 282.947 187.684 283.398C188.625 284.314 189.652 285.128 190.466 286.133C190.893 286.615 191.319 287.094 191.743 287.573C192.136 288.074 192.498 288.598 192.875 289.105C195.832 293.203 197.746 297.797 198.527 302.361C199.373 306.938 198.945 311.373 198.971 315.517C198.916 319.674 198.865 323.593 198.817 327.26C198.715 334.581 198.627 340.888 198.555 346.047C198.479 351.186 198.42 355.178 198.38 357.896C198.357 359.24 198.339 360.266 198.327 360.967C198.314 361.66 198.299 362.004 198.299 362.004Z" fill="#E0E0E0"/>
<path d="M210.16 402.56L121.04 401.549L121.894 326.378L210.699 327.387C212.594 327.408 214.111 328.961 214.09 330.856L213.312 399.482C213.291 401.201 211.88 402.58 210.16 402.56Z" fill="#E0E0E0"/>
<path d="M197.849 402.42L120.679 401.544C118.555 401.521 116.852 399.778 116.876 397.654L117.644 330.052C117.668 327.997 119.352 326.349 121.408 326.373L199.534 327.26C201.589 327.283 203.237 328.968 203.213 331.024L202.454 397.92C202.426 400.433 200.364 402.449 197.849 402.42Z" fill="#EBEBEB"/>
<path d="M172.011 357.912C172.078 352.009 167.258 347.188 161.312 347.299C155.765 347.402 151.13 352.037 151.021 357.585C150.925 362.421 154.129 366.501 158.538 367.811L151.525 382.213L169.613 382.751L164.264 367.876C168.674 366.674 171.957 362.709 172.011 357.912Z" fill="#E0E0E0"/>
<path d="M202.536 395.413C202.409 395.411 202.511 382.32 202.764 366.177C203.015 350.029 203.323 336.943 203.45 336.945C203.578 336.947 203.476 350.035 203.223 366.184C202.971 382.327 202.664 395.415 202.536 395.413Z" fill="#FAFAFA"/>
<path d="M183.452 329.353C183.452 329.481 171.932 329.605 157.727 329.633C143.515 329.66 131.998 329.58 131.998 329.452C131.998 329.326 143.515 329.201 157.726 329.173C171.932 329.146 183.452 329.227 183.452 329.353Z" fill="white"/>
<path d="M150.616 363.321C150.591 363.335 150.427 363.108 150.188 362.662C149.948 362.217 149.653 361.541 149.403 360.669C148.893 358.941 148.671 356.317 149.573 353.655C150.478 350.994 152.252 349.047 153.708 347.987C154.439 347.448 155.083 347.09 155.545 346.884C156.006 346.676 156.274 346.596 156.285 346.621C156.324 346.699 155.284 347.125 153.909 348.243C152.54 349.342 150.877 351.25 150.009 353.803C149.144 356.357 149.302 358.883 149.719 360.588C150.129 362.312 150.694 363.284 150.616 363.321Z" fill="white"/>
<path d="M153.337 367.759C154.031 368.191 154.647 368.453 154.714 368.345C154.781 368.237 154.274 367.8 153.58 367.369C152.887 366.937 152.271 366.675 152.204 366.783C152.137 366.891 152.644 367.328 153.337 367.759Z" fill="white"/>
<path d="M163.459 278.242C163.461 278.282 162.827 278.329 161.692 278.472C160.556 278.613 158.921 278.904 156.963 279.486C153.07 280.613 147.827 283.225 143.687 287.913C139.553 292.609 137.618 298.138 136.987 302.142C136.656 304.157 136.571 305.816 136.575 306.96C136.575 308.104 136.608 308.74 136.568 308.742C136.552 308.743 136.527 308.587 136.495 308.285C136.471 307.984 136.405 307.539 136.395 306.964C136.338 305.813 136.373 304.137 136.666 302.092C137.221 298.03 139.135 292.387 143.343 287.609C147.556 282.838 152.914 280.232 156.874 279.173C158.866 278.625 160.525 278.381 161.673 278.295C162.246 278.231 162.696 278.243 162.998 278.228C163.3 278.221 163.459 278.226 163.459 278.242Z" fill="white"/>
<path d="M135.911 314.1C135.879 315.607 135.956 316.831 136.083 316.833C136.21 316.836 136.338 315.616 136.37 314.109C136.402 312.602 136.325 311.378 136.198 311.375C136.071 311.373 135.943 312.592 135.911 314.1Z" fill="white"/>
<path d="M192.547 61.7054H147.982V73.4948H192.547V61.7054Z" fill="#F5F5F5"/>
<path d="M173.704 85.9126C173.699 85.908 173.695 85.8356 173.69 85.6982C173.687 85.5407 173.682 85.3419 173.676 85.0937C173.667 84.5386 173.656 83.7655 173.642 82.7736C173.623 80.7383 173.598 77.8127 173.566 74.1232L173.704 74.2615C163.528 74.2816 147.346 74.3146 129.142 74.3503C129.243 74.2496 128.913 74.5766 129.367 74.1241V74.1268V74.1332V74.1451V74.169V74.2166V74.3119V74.5015V74.8807V75.6363C129.367 76.1392 129.367 76.6412 129.367 77.1404C129.367 78.1397 129.366 79.1317 129.366 80.1154C129.365 82.0829 129.363 84.0183 129.362 85.9144L129.14 85.6927C141.83 85.733 152.934 85.7688 160.898 85.7935C164.865 85.8201 168.048 85.842 170.272 85.8567C171.354 85.8695 172.201 85.8787 172.806 85.886C173.079 85.8924 173.297 85.897 173.469 85.9007C173.62 85.9034 173.698 85.908 173.704 85.9126C173.708 85.9171 173.639 85.9217 173.498 85.9272C173.333 85.9309 173.124 85.9355 172.862 85.941C172.268 85.9483 171.436 85.9575 170.375 85.9703C168.164 85.9849 164.998 86.0069 161.053 86.0335C153.05 86.0591 141.891 86.0939 129.14 86.1342L128.919 86.1352V85.9126C128.918 84.0165 128.916 82.0811 128.915 80.1136C128.915 79.1298 128.914 78.1378 128.914 77.1385C128.914 76.6393 128.914 76.1374 128.914 75.6345V74.8788V74.4996V74.31V74.2148V74.1671V74.1433V74.1314V74.1268V74.1241C129.368 73.6698 129.041 73.9977 129.144 73.8969C147.348 73.9336 163.53 73.9656 173.706 73.9858H173.845L173.844 74.1241C173.811 77.8484 173.785 80.8015 173.768 82.8569C173.753 83.8352 173.742 84.5991 173.734 85.1459C173.729 85.3841 173.723 85.5746 173.719 85.7266C173.712 85.8539 173.708 85.9171 173.704 85.9126Z" fill="#E0E0E0"/>
<path d="M352.785 265.287H308.221V277.077H352.785V265.287Z" fill="#F5F5F5"/>
<path d="M333.941 289.494C333.937 289.49 333.932 289.417 333.927 289.28C333.924 289.122 333.919 288.924 333.913 288.675C333.905 288.12 333.894 287.347 333.88 286.355C333.862 284.32 333.836 281.394 333.804 277.705L333.942 277.843C323.767 277.863 307.584 277.896 289.38 277.932C289.481 277.831 289.151 278.158 289.605 277.706V277.709V277.715V277.727V277.751V277.798V277.894V278.083V278.462V279.218C289.605 279.721 289.605 280.222 289.605 280.722C289.605 281.721 289.604 282.713 289.604 283.697C289.603 285.665 289.601 287.6 289.6 289.496L289.379 289.274C302.068 289.315 313.173 289.35 321.136 289.375C325.103 289.402 328.286 289.424 330.51 289.438C331.592 289.451 332.438 289.46 333.044 289.468C333.317 289.474 333.535 289.479 333.708 289.482C333.857 289.485 333.936 289.49 333.941 289.494C333.946 289.499 333.876 289.503 333.735 289.509C333.57 289.513 333.361 289.517 333.099 289.524C332.505 289.531 331.674 289.54 330.613 289.553C328.401 289.568 325.235 289.59 321.29 289.616C313.287 289.642 302.129 289.677 289.378 289.717L289.156 289.718V289.495C289.155 287.599 289.153 285.664 289.152 283.696C289.152 282.712 289.151 281.72 289.151 280.721C289.151 280.222 289.151 279.72 289.151 279.217V278.461V278.082V277.893V277.797V277.75V277.726V277.714V277.708V277.705C289.606 277.251 289.279 277.579 289.381 277.478C307.585 277.514 323.768 277.546 333.943 277.567H334.082L334.081 277.705C334.048 281.429 334.023 284.382 334.005 286.437C333.991 287.415 333.98 288.179 333.971 288.726C333.966 288.964 333.96 289.154 333.957 289.307C333.95 289.437 333.946 289.499 333.941 289.494Z" fill="#E0E0E0"/>
<path d="M60.6331 43.2395C60.6285 43.2349 60.624 43.1625 60.6194 43.0251C60.6157 42.8676 60.6111 42.6688 60.6047 42.4206C60.5965 41.8655 60.5855 41.0925 60.5708 40.1005C60.5525 38.0652 60.5269 35.1396 60.4948 31.4501L60.6331 31.5884C50.4576 31.6085 34.2753 31.6406 16.0713 31.6772C16.1721 31.5765 15.8423 31.9035 16.2958 31.4501V31.4528V31.4592V31.4711V31.495V31.5426V31.6378V31.8275V32.2067V32.9623C16.2958 33.4652 16.2958 33.9672 16.2958 34.4664C16.2958 35.4657 16.2948 36.4577 16.2948 37.4414C16.2939 39.4089 16.2921 41.3443 16.2912 43.2404L16.0695 43.0187C28.7593 43.059 39.8636 43.0948 47.827 43.1195C51.794 43.1461 54.977 43.168 57.201 43.1827C58.2827 43.1955 59.13 43.2047 59.7355 43.212C60.0084 43.2184 60.2264 43.223 60.3986 43.2267C60.5498 43.2303 60.6285 43.2349 60.6331 43.2395C60.6377 43.2441 60.5681 43.2486 60.427 43.2541C60.2621 43.2578 60.0533 43.2624 59.7913 43.2679C59.1969 43.2752 58.3661 43.2844 57.3045 43.2972C55.0933 43.3118 51.9269 43.3338 47.9818 43.3604C39.979 43.386 28.8207 43.4208 16.0695 43.4611L15.8478 43.4621V43.2395C15.8469 41.3434 15.8451 39.408 15.8442 37.4405C15.8442 36.4567 15.8433 35.4648 15.8433 34.4654C15.8433 33.9662 15.8433 33.4643 15.8433 32.9614V32.2057V31.8275V31.6378V31.5426V31.495V31.4711V31.4592V31.4528V31.4501C16.2976 30.9958 15.9706 31.3246 16.0732 31.2229C34.2771 31.2596 50.4595 31.2916 60.6349 31.3118H60.7742L60.7733 31.4501C60.7403 35.1744 60.7146 38.1275 60.6972 40.1829C60.6826 41.1612 60.6716 41.9251 60.6633 42.4719C60.6578 42.7101 60.6524 42.9006 60.6487 43.0526C60.6423 43.1818 60.6377 43.2441 60.6331 43.2395Z" fill="#E0E0E0"/>
<path d="M326.36 26.3096C326.355 26.3051 326.35 26.2327 326.346 26.0953C326.342 25.9378 326.338 25.739 326.331 25.4908C326.323 24.9357 326.312 24.1626 326.297 23.1706C326.279 21.1353 326.253 18.2097 326.221 14.5202L326.36 14.6585C316.184 14.6787 300.002 14.7108 281.798 14.7474C281.899 14.6466 281.569 14.9736 282.022 14.5202V14.523V14.5294V14.5413V14.5651V14.6127V14.708V14.8976V15.2768V16.0325C282.022 16.5354 282.022 17.0373 282.022 17.5365C282.022 18.5358 282.021 19.5278 282.021 20.5116C282.02 22.4791 282.019 24.4145 282.018 26.3106L281.796 26.0889C294.486 26.1292 305.59 26.1649 313.554 26.1896C317.521 26.2162 320.704 26.2382 322.928 26.2529C324.009 26.2657 324.856 26.2748 325.462 26.2822C325.735 26.2877 325.953 26.2922 326.125 26.2959C326.275 26.2996 326.354 26.3041 326.36 26.3096C326.364 26.3142 326.295 26.3188 326.154 26.3243C325.989 26.328 325.78 26.3325 325.518 26.339C324.923 26.3463 324.093 26.3554 323.031 26.3683C320.82 26.3829 317.653 26.4049 313.708 26.4315C305.706 26.4571 294.547 26.4919 281.796 26.5322L281.574 26.5331V26.3106C281.573 24.4145 281.572 22.4791 281.571 20.5116C281.571 19.5278 281.57 18.5358 281.57 17.5365C281.57 17.0373 281.57 16.5354 281.57 16.0325V15.2768V14.8976V14.708V14.6127V14.5651V14.5413V14.5294V14.523V14.5202C282.024 14.0659 281.697 14.3947 281.8 14.2931C300.004 14.3297 316.186 14.3618 326.362 14.3819H326.501L326.5 14.5202C326.467 18.2446 326.441 21.1985 326.424 23.2531C326.409 24.2313 326.398 24.9952 326.39 25.5421C326.383 25.7802 326.379 25.9707 326.375 26.1228C326.369 26.251 326.364 26.3142 326.36 26.3096Z" fill="#E0E0E0"/>
<path d="M332.401 14.5202C332.396 14.5147 332.39 14.4387 332.384 14.2958C332.379 14.1264 332.373 13.9212 332.366 13.6711C332.356 13.0913 332.343 12.3027 332.326 11.307C332.305 9.23969 332.275 6.3205 332.238 2.73083L332.401 2.89387C325.465 2.91036 316.028 2.93326 305.628 2.95799C305.423 3.16042 305.901 2.68137 305.853 2.73175V2.73449V2.7409V2.75281V2.77663V2.82517V2.92227V3.11554V3.50207V4.27332C305.853 4.78534 305.853 5.29554 305.852 5.80207C305.851 6.81512 305.851 7.81628 305.85 8.80277C305.847 10.7748 305.845 12.6874 305.842 14.5193L305.626 14.3032C313.356 14.3444 320.01 14.3801 324.779 14.4057C327.132 14.4314 329.017 14.4506 330.359 14.4653C330.985 14.4763 331.484 14.4854 331.864 14.4928C332.209 14.5019 332.392 14.5111 332.401 14.5202C332.41 14.5294 332.244 14.5376 331.915 14.5468C331.548 14.5532 331.063 14.5624 330.455 14.5743C329.125 14.5889 327.256 14.6091 324.924 14.6338C320.118 14.6595 313.413 14.6952 305.625 14.7364L305.409 14.7373V14.5202C305.406 12.6883 305.403 10.7758 305.4 8.80369C305.399 7.81719 305.399 6.81604 305.399 5.80298C305.399 5.29645 305.399 4.78626 305.398 4.27423V3.50299V3.11645V2.92227V2.82517V2.77754V2.75281V2.7409V2.73449V2.73175C305.348 2.77938 305.828 2.30032 305.627 2.50367C316.027 2.5284 325.464 2.5513 332.4 2.56779H332.565L332.563 2.73083C332.527 6.36264 332.497 9.31571 332.475 11.4069C332.458 12.3869 332.444 13.1628 332.435 13.7343C332.424 14.261 332.413 14.5312 332.401 14.5202Z" fill="#E0E0E0"/>
<path d="M45.158 307.416C45.1534 307.412 45.1489 307.339 45.1443 307.202C45.1406 307.044 45.136 306.845 45.1296 306.597C45.1214 306.042 45.1104 305.269 45.0957 304.277C45.0774 302.242 45.0518 299.316 45.0197 295.627L45.158 295.765C34.9825 295.785 18.8002 295.817 0.59624 295.854C0.696996 295.753 0.367248 296.08 0.820652 295.627V295.629V295.636V295.648V295.672V295.719V295.814V296.003V296.382V297.138C0.820652 297.641 0.820652 298.143 0.820652 298.642C0.820652 299.641 0.819736 300.633 0.819736 301.617C0.81882 303.585 0.816988 305.52 0.816072 307.416L0.594408 307.194C13.2842 307.235 24.3885 307.27 32.3519 307.295C36.3189 307.322 39.5019 307.344 41.7259 307.358C42.8076 307.371 43.654 307.38 44.2604 307.388C44.5333 307.393 44.7513 307.399 44.9235 307.402C45.0737 307.407 45.1525 307.412 45.158 307.416C45.1626 307.421 45.093 307.425 44.9519 307.431C44.787 307.434 44.5782 307.439 44.3162 307.445C43.7218 307.453 42.8901 307.462 41.8294 307.475C39.6182 307.489 36.4518 307.511 32.5067 307.538C24.5039 307.564 13.3456 307.598 0.594408 307.639L0.372744 307.64V307.417C0.371828 305.521 0.369996 303.586 0.36908 301.618C0.36908 300.634 0.368164 299.642 0.368164 298.643C0.368164 298.144 0.368164 297.642 0.368164 297.139V296.383V296.004V295.814V295.72V295.673V295.649V295.637V295.63V295.628C0.822484 295.173 0.495483 295.501 0.598072 295.4C18.802 295.437 34.9844 295.469 45.1598 295.489H45.2991L45.2982 295.628C45.2652 299.352 45.2395 302.305 45.2221 304.36C45.2075 305.339 45.1965 306.102 45.1882 306.649C45.1818 306.888 45.1773 307.078 45.1736 307.23C45.1672 307.357 45.1626 307.421 45.158 307.416Z" fill="#E0E0E0"/>
<path d="M51.2001 295.627C51.1946 295.621 51.1892 295.545 51.1827 295.402C51.1782 295.233 51.1717 295.028 51.1653 294.778C51.1553 294.198 51.1415 293.409 51.125 292.414C51.104 290.346 51.0737 287.427 51.0371 283.837L51.2001 284C44.2635 284.017 34.8272 284.04 24.4264 284.064C24.2222 284.267 24.7003 283.788 24.6518 283.838V283.841V283.847V283.859V283.883V283.932V284.029V284.222V284.609V285.379C24.6518 285.892 24.6518 286.401 24.6509 286.908C24.6499 287.921 24.6499 288.922 24.649 289.908C24.6463 291.88 24.6435 293.793 24.6408 295.625L24.4246 295.409C32.1544 295.45 38.8089 295.486 43.5784 295.511C45.9306 295.536 47.8156 295.556 49.1575 295.571C49.7841 295.582 50.2833 295.591 50.6625 295.598C51.0078 295.609 51.191 295.618 51.2001 295.627C51.2093 295.636 51.0426 295.644 50.7138 295.653C50.3465 295.66 49.8619 295.669 49.2537 295.681C47.9237 295.695 46.0552 295.716 43.724 295.74C38.9179 295.766 32.2131 295.802 24.4246 295.843L24.2084 295.844V295.627C24.2057 293.795 24.2029 291.882 24.2002 289.91C24.1993 288.924 24.1993 287.923 24.1984 286.909C24.1984 286.403 24.1984 285.893 24.1974 285.381V284.61V284.224V284.03V283.933V283.884V283.86V283.848V283.842V283.839C24.148 283.887 24.628 283.408 24.4264 283.611C34.8272 283.636 44.2635 283.659 51.2001 283.675H51.365L51.3632 283.838C51.3265 287.47 51.2963 290.423 51.2753 292.514C51.2578 293.494 51.2441 294.27 51.2349 294.842C51.223 295.368 51.2121 295.639 51.2001 295.627Z" fill="#E0E0E0"/>
<path d="M185.481 210.478C185.476 210.473 185.472 210.401 185.467 210.263C185.463 210.106 185.459 209.907 185.452 209.659C185.444 209.104 185.433 208.331 185.418 207.339C185.4 205.303 185.375 202.378 185.342 198.688L185.481 198.827C175.305 198.847 159.123 198.879 140.919 198.915C141.02 198.815 140.69 199.142 141.143 198.688V198.691V198.697V198.709V198.733V198.781V198.876V199.066V199.445V200.2C141.143 200.703 141.143 201.205 141.143 201.704C141.143 202.704 141.142 203.696 141.142 204.68C141.142 206.647 141.14 208.582 141.139 210.479L140.917 210.257C153.607 210.297 164.711 210.333 172.675 210.358C176.642 210.384 179.825 210.406 182.049 210.421C183.13 210.434 183.977 210.443 184.583 210.45C184.856 210.456 185.074 210.461 185.246 210.465C185.397 210.468 185.476 210.473 185.481 210.478C185.485 210.482 185.416 210.487 185.275 210.492C185.11 210.496 184.901 210.501 184.639 210.507C184.045 210.514 183.213 210.523 182.152 210.536C179.941 210.551 176.775 210.573 172.829 210.599C164.827 210.625 153.668 210.66 140.917 210.7L140.696 210.701V210.479C140.695 208.582 140.693 206.647 140.692 204.68C140.692 203.696 140.691 202.704 140.691 201.704C140.691 201.205 140.691 200.703 140.691 200.2V199.445V199.066V198.876V198.781V198.733V198.709V198.697V198.691V198.688C141.145 198.234 140.818 198.562 140.921 198.461C159.125 198.498 175.307 198.53 185.483 198.55H185.622L185.621 198.688C185.588 202.413 185.562 205.366 185.545 207.421C185.53 208.399 185.519 209.162 185.511 209.71C185.506 209.948 185.5 210.139 185.496 210.291C185.49 210.419 185.485 210.482 185.481 210.478Z" fill="#E0E0E0"/>
<path d="M191.524 198.688C191.518 198.683 191.513 198.607 191.506 198.464C191.502 198.294 191.495 198.089 191.489 197.839C191.479 197.259 191.465 196.471 191.449 195.475C191.428 193.408 191.397 190.488 191.361 186.899L191.524 187.062C184.587 187.078 175.151 187.101 164.75 187.126C164.546 187.328 165.024 186.849 164.975 186.9V186.902V186.909V186.921V186.946V186.994V187.091V187.284V187.671V188.441C164.975 188.954 164.975 189.463 164.975 189.97C164.974 190.983 164.974 191.984 164.973 192.971C164.97 194.943 164.967 196.855 164.964 198.687L164.748 198.471C172.478 198.512 179.133 198.548 183.902 198.574C186.254 198.598 188.139 198.619 189.481 198.633C190.108 198.644 190.607 198.653 190.986 198.661C191.331 198.671 191.515 198.68 191.524 198.688C191.533 198.697 191.366 198.706 191.037 198.715C190.67 198.721 190.186 198.73 189.577 198.742C188.247 198.757 186.379 198.777 184.047 198.802C179.241 198.827 172.536 198.863 164.747 198.904L164.531 198.905V198.688C164.528 196.856 164.526 194.944 164.523 192.972C164.522 191.985 164.521 190.984 164.521 189.971C164.521 189.464 164.521 188.954 164.52 188.442V187.672V187.285V187.092V186.995V186.946V186.922V186.91V186.903V186.901C164.471 186.948 164.951 186.469 164.749 186.673C175.15 186.697 184.586 186.72 191.523 186.737H191.688L191.686 186.9C191.649 190.532 191.619 193.485 191.598 195.576C191.581 196.556 191.567 197.332 191.558 197.903C191.546 198.429 191.535 198.7 191.524 198.688Z" fill="#E0E0E0"/>
<path d="M20.4807 351.907L4.01709 374.269L31.7333 394.896C33.5414 392.128 23.158 376.14 23.158 376.14L34.2944 362.246L20.4807 351.907Z" fill="#455A64"/>
<path d="M15.4809 368.561C14.8352 368.309 14.0163 368.636 13.7369 369.27C13.4585 369.905 13.7836 370.741 14.4248 371.005C15.066 371.269 16.0616 370.906 16.2677 370.244C16.4738 369.582 16.0378 368.621 15.3527 368.519" fill="white"/>
<path d="M3.97949 374.315L5.73174 371.912L31.627 392.763C31.627 392.763 32.4523 394.224 31.6609 394.983L3.97949 374.315Z" fill="#263238"/>
<path d="M23.7118 376.334C23.6065 376.466 22.8847 376.024 21.8945 375.963C20.9062 375.877 20.1267 376.208 20.0425 376.061C19.9371 375.942 20.7413 375.283 21.9385 375.377C23.1357 375.462 23.8336 376.232 23.7118 376.334Z" fill="#263238"/>
<path d="M25.7245 379.7C25.6577 379.854 24.9002 379.647 24.0144 379.878C23.1223 380.083 22.5452 380.616 22.4151 380.509C22.2722 380.436 22.7678 379.573 23.8752 379.309C24.9789 379.033 25.818 379.569 25.7245 379.7Z" fill="#263238"/>
<path d="M24.7866 384.408C24.6419 384.345 24.957 383.528 25.8565 383.046C26.7523 382.557 27.6087 382.739 27.5812 382.895C27.5748 383.063 26.8677 383.155 26.1358 383.562C25.3939 383.952 24.9304 384.495 24.7866 384.408Z" fill="#263238"/>
<path d="M25.8986 372.886C25.7502 372.967 25.2684 372.318 24.4642 371.8C23.671 371.266 22.8842 371.08 22.9006 370.912C22.8951 370.755 23.8496 370.687 24.7875 371.309C25.7301 371.926 26.0442 372.829 25.8986 372.886Z" fill="#263238"/>
<path d="M87.4878 258.35C87.9898 261.153 88.7693 284.997 89.274 297.57C89.7787 310.145 88.5238 316.338 87.0866 319.152C85.6495 321.967 31.4124 361.942 27.2841 371.513L13.584 360.44C13.584 360.44 33.6959 324.261 42.3288 317.692C50.9618 311.124 67.4456 305.077 67.4456 305.077L62.754 236.201L85.2749 234.973L87.4878 258.35Z" fill="#263238"/>
<path d="M37.0852 374.011L36.8452 401.779L71.3909 402.254C71.2343 398.951 53.4535 392.08 53.4535 392.08L54.3374 374.295L37.0852 374.011Z" fill="#455A64"/>
<path d="M42.7916 390.436C42.1202 390.609 41.6484 391.354 41.7941 392.032C41.9397 392.71 42.6936 393.196 43.3677 393.035C44.0409 392.873 44.6363 391.996 44.4147 391.339C44.1939 390.682 43.277 390.159 42.6624 390.478" fill="white"/>
<path d="M36.8413 401.837L36.8532 398.863L70.0552 400.588C70.0552 400.588 71.5793 401.289 71.3833 402.368L36.8413 401.837Z" fill="#263238"/>
<path d="M54.0157 391.911C54.0074 392.08 53.1629 392.145 52.3257 392.676C51.4739 393.185 51.0369 393.91 50.8821 393.841C50.7273 393.806 50.993 392.802 52.0179 392.176C53.0365 391.542 54.0541 391.757 54.0157 391.911Z" fill="#263238"/>
<path d="M57.6184 393.46C57.655 393.624 56.9204 393.902 56.3378 394.607C55.7342 395.296 55.5794 396.065 55.4109 396.055C55.2524 396.08 55.1489 395.09 55.8899 394.226C56.6236 393.357 57.6165 393.299 57.6184 393.46Z" fill="#263238"/>
<path d="M59.6161 397.825C59.4622 397.859 59.2387 397.012 59.6848 396.095C60.1244 395.173 60.925 394.819 60.9946 394.961C61.088 395.102 60.5687 395.59 60.2142 396.349C59.8423 397.1 59.7837 397.811 59.6161 397.825Z" fill="#263238"/>
<path d="M53.7668 387.836C53.6936 387.989 52.9232 387.746 51.9688 387.797C51.0134 387.829 50.2669 388.138 50.1808 387.993C50.0846 387.869 50.8174 387.255 51.9431 387.21C53.0679 387.157 53.852 387.704 53.7668 387.836Z" fill="#263238"/>
<path d="M89.9823 232.126C89.9823 233.751 92.6093 274.79 79.195 304.464C79.195 304.464 74.5474 313.748 73.734 317.812C72.9206 321.877 55.5255 389.17 55.5255 389.17L35.4677 388.438C35.4677 388.438 32.2563 354.718 35.508 335.207C38.7596 315.696 44.6979 317.972 44.6979 305.37C44.6979 292.768 41.7045 266.634 41.7045 266.634C41.7045 266.634 37.3225 259.494 35.8295 245.658C34.6158 234.415 39.9037 222.376 39.9037 222.376L45.1384 213.113L89.387 210.794L89.9823 232.126Z" fill="#263238"/>
<path d="M89.9824 232.126C89.9824 232.126 89.9879 231.653 89.9714 230.73C89.9513 229.796 89.9229 228.424 89.8844 226.626C89.7946 223.005 89.6637 217.674 89.4942 210.791L89.4915 210.682L89.3825 210.687C78.5099 211.24 63.4038 212.007 45.1303 212.936L45.0341 212.941L44.9865 213.025C43.3588 215.898 41.5772 219.043 39.7416 222.283L39.7361 222.293L39.7334 222.3C38.4162 225.49 37.351 228.883 36.5797 232.451C35.7929 236.011 35.356 239.766 35.4751 243.614C35.7206 247.456 36.3452 251.336 37.2759 255.24C38.2477 259.128 39.487 263.057 41.5168 266.749L41.4856 266.658C42.245 273.495 42.9457 280.576 43.542 287.865C43.836 291.509 44.0971 295.207 44.2775 298.954C44.3691 300.828 44.436 302.714 44.4506 304.609C44.4836 305.559 44.4131 306.5 44.3957 307.45C44.2977 308.391 44.251 309.344 44.0439 310.272C43.7133 312.144 43.0391 313.942 42.1451 315.651C41.2567 317.364 40.2601 319.058 39.4247 320.848C37.721 324.419 36.6191 328.281 35.8213 332.208C34.2239 340.087 33.9014 348.276 33.8126 356.521C33.7778 367.417 34.3283 378.11 35.2259 388.459L35.2442 388.671L35.4586 388.679C42.2935 388.927 48.9892 389.17 55.5164 389.406L55.7079 389.413L55.7555 389.228C61.5664 366.686 66.9907 345.618 71.7693 326.674C72.3574 324.303 72.9372 321.966 73.5078 319.664C73.8019 318.503 73.997 317.346 74.3542 316.252C74.7041 315.147 75.1126 314.066 75.5358 313.001C76.395 310.876 77.3219 308.816 78.2681 306.808C78.5081 306.308 78.7463 305.81 78.9844 305.314C79.2335 304.826 79.468 304.323 79.6622 303.812C80.0762 302.799 80.4875 301.795 80.8942 300.801C84.057 292.807 85.9192 285.046 87.229 277.962C89.7956 263.758 90.1354 252.199 90.2535 244.314C90.303 236.414 89.9824 232.126 89.9824 232.126C89.9824 232.126 89.9769 232.394 89.9888 232.921C90.0026 233.456 90.0227 234.237 90.0493 235.26C90.1061 237.319 90.1363 240.367 90.0887 244.313C89.9192 252.191 89.5318 263.737 86.9286 277.908C85.6023 284.973 83.7236 292.714 80.5571 300.665C80.1504 301.654 79.7401 302.651 79.3261 303.658C79.1319 304.168 78.901 304.658 78.6492 305.151C78.4101 305.647 78.1701 306.147 77.9283 306.648C76.9766 308.658 76.0432 310.722 75.1758 312.856C74.749 313.927 74.335 315.013 73.9786 316.134C73.6104 317.261 73.4107 318.433 73.1195 319.57C72.5452 321.87 71.9626 324.205 71.3709 326.575C66.5062 345.497 61.091 366.565 55.2948 389.11L55.5338 388.933C49.0066 388.693 42.3118 388.447 35.4769 388.195L35.7096 388.414C34.8174 378.088 34.2687 367.398 34.3036 356.525C34.3924 348.295 34.7139 340.131 36.2994 332.306C37.0918 328.401 38.1818 324.58 39.8626 321.054C40.6878 319.284 41.6743 317.606 42.5738 315.87C43.4797 314.138 44.1777 312.276 44.5147 310.36C44.7254 309.407 44.7731 308.438 44.872 307.479C44.8894 306.518 44.959 305.556 44.926 304.605C44.9104 302.7 44.8417 300.808 44.7492 298.932C44.5651 295.177 44.3013 291.475 44.0046 287.827C43.4018 280.532 42.6938 273.451 41.9262 266.608L41.9216 266.565L41.8951 266.516C39.912 262.918 38.6571 258.989 37.6926 255.136C36.7629 251.267 36.1346 247.385 35.8873 243.594C35.7645 239.793 36.1895 236.07 36.9663 232.532C37.7238 228.991 38.7826 225.603 40.0778 222.449L40.0696 222.466C41.8978 219.222 43.673 216.073 45.2942 213.197L45.1504 213.286C63.4212 212.299 78.5237 211.484 89.3953 210.897L89.2835 210.794C89.4979 217.675 89.6637 223.004 89.7754 226.625C89.8377 228.423 89.8844 229.794 89.9174 230.728C89.9504 231.654 89.9824 232.126 89.9824 232.126Z" fill="#455A64"/>
<path d="M75.5914 148.078C75.5914 148.078 63.6417 145.97 64.7958 161.297C65.4874 170.474 68.1812 186.171 69.6742 196.209C70.1899 199.677 71.3221 205.89 75.9101 209.535L108.793 232.293L119.171 219.885L89.8099 191.915L85.1953 164.253L75.5914 148.078Z" fill="#455A64"/>
<path d="M76.99 92.851C80.7849 95.8407 82.9511 100.782 82.5774 105.599C82.396 107.939 81.7503 110.61 83.2726 112.396C84.7794 114.164 87.738 114.113 89.1824 115.932C90.8825 118.075 89.4591 121.262 90.0673 123.929C90.6388 126.431 93.2787 128.276 95.825 127.952C92.8399 130.39 89.1705 131.982 85.35 132.497C84.3727 131.243 83.3963 129.988 82.419 128.734C83.53 130.051 83.2351 132.151 82.1579 133.497C81.0816 134.843 79.421 135.576 77.7787 136.097C69.9316 138.586 60.9377 137.124 54.2832 132.278" fill="#263238"/>
<path d="M33.0017 113.524C33.5879 111.731 34.5716 110.068 34.9655 108.223C35.8127 104.257 33.881 99.7922 35.8045 96.2218C37.1739 93.68 40.0921 92.4361 42.851 91.5861C45.6099 90.737 48.5712 90.0161 50.6285 87.9909C52.1371 86.5061 52.9963 84.4608 54.5003 82.9705C56.6437 80.8473 59.8074 80.1273 62.8191 79.9423C65.9114 79.7527 69.1091 80.0495 71.8908 81.4143C74.6717 82.7791 76.9818 85.3419 77.4773 88.4003C77.7191 89.8915 77.5359 91.4542 78.0058 92.8904C78.5224 94.4695 79.7627 95.6969 80.5275 97.1726C82.1433 100.289 81.2676 104.486 78.5408 106.697L57.3087 134.122C52.8488 135.806 42.0413 133.769 38.5945 130.475C35.1478 127.181 31.5214 118.057 33.0017 113.524Z" fill="#263238"/>
<path d="M77.9794 103.212C77.1046 96.9857 72.3691 89.6277 66.1854 90.7663L47.0967 97.1826C45.218 97.5289 46.5626 100.592 46.7468 102.493L50.897 145.542C50.8659 145.551 48.3185 147.382 47.398 147.03C47.1589 146.938 46.9446 147.206 47.0893 147.417C49.382 150.746 60.2032 165.298 71.356 160.855C73.8475 159.862 71.0959 152.012 71.3872 149.103L71.0556 141.674C70.8083 137.881 70.6892 136.326 70.6938 136.362C70.6938 136.362 78.5848 134.42 79.4394 123.864C79.8663 118.613 78.9521 110.13 77.9794 103.212Z" fill="#FFBF9D"/>
<path d="M76.6508 112.796C76.7305 113.501 76.1992 114.148 75.4646 114.244C74.7319 114.34 74.0724 113.85 73.9936 113.144C73.9148 112.44 74.4452 111.791 75.1779 111.695C75.9116 111.599 76.5711 112.092 76.6508 112.796Z" fill="#263238"/>
<path d="M63.6518 113.61C63.7315 114.315 63.2002 114.963 62.4656 115.059C61.7328 115.155 61.0733 114.664 60.9946 113.959C60.9158 113.254 61.4461 112.606 62.1789 112.509C62.9126 112.413 63.573 112.906 63.6518 113.61Z" fill="#263238"/>
<path d="M77.1298 108.386C76.9842 108.631 75.7394 107.844 74.1822 108.071C72.6223 108.271 71.6239 109.366 71.4206 109.168C71.3217 109.082 71.4426 108.66 71.8749 108.167C72.299 107.678 73.0721 107.15 74.043 107.016C75.0148 106.885 75.896 107.183 76.4318 107.541C76.9778 107.9 77.2022 108.275 77.1298 108.386Z" fill="#263238"/>
<path d="M63.1392 109.541C62.9551 109.766 61.7305 108.878 60.0552 108.949C58.3799 108.995 57.1919 109.968 56.9995 109.755C56.9061 109.661 57.082 109.261 57.6013 108.822C58.1097 108.384 58.9899 107.944 60.035 107.907C61.0802 107.871 61.9769 108.248 62.5017 108.65C63.0348 109.053 63.229 109.439 63.1392 109.541Z" fill="#263238"/>
<path d="M68.3918 119.407C68.379 119.325 69.262 119.102 70.6973 118.805C71.0619 118.739 71.4044 118.639 71.4466 118.384C71.5125 118.112 71.3284 117.727 71.1177 117.313C70.7037 116.45 70.2705 115.546 69.8162 114.598C68.0007 110.73 66.6561 107.537 66.8127 107.465C66.9693 107.393 68.5677 110.471 70.3831 114.34C70.8219 115.294 71.2414 116.204 71.6408 117.075C71.812 117.481 72.0877 117.937 71.9421 118.503C71.8643 118.785 71.6096 119.005 71.3788 119.086C71.1489 119.176 70.9419 119.196 70.7614 119.221C69.3078 119.411 68.4037 119.488 68.3918 119.407Z" fill="#263238"/>
<path d="M70.6948 136.362C70.6948 136.362 63.7133 137.354 56.4414 133.71C56.4414 133.71 60.5147 140.759 70.878 138.981L70.6948 136.362Z" fill="#FF9A6C"/>
<path d="M64.0018 123.607C64.1969 123.273 64.4057 122.924 64.74 122.729C65.1083 122.514 65.5662 122.525 65.9857 122.603C66.5958 122.718 67.1976 122.975 67.6162 123.433C68.0348 123.891 68.239 124.573 68.0274 125.156C67.8662 125.758 66.9677 126.088 66.354 126.196C65.7403 126.304 65.1037 126.124 64.5605 125.818C64.1044 125.562 63.6665 125.153 63.6427 124.63C63.6253 124.264 63.8167 123.924 64.0018 123.607Z" fill="#FF9A6C"/>
<path d="M64.2965 121.58C64.5292 121.549 64.6528 123.111 66.0753 124.117C67.496 125.127 69.1475 124.823 69.1768 125.041C69.2061 125.137 68.8287 125.373 68.128 125.446C67.4401 125.523 66.4161 125.378 65.5459 124.763C64.6775 124.146 64.2571 123.266 64.1545 122.629C64.0437 121.981 64.1884 121.58 64.2965 121.58Z" fill="#263238"/>
<path d="M63.0124 103.908C62.9006 104.31 61.4497 104.235 59.7763 104.568C58.0964 104.868 56.7728 105.467 56.5218 105.133C56.4092 104.973 56.618 104.586 57.1392 104.165C57.6558 103.746 58.4994 103.319 59.5042 103.128C60.51 102.939 61.4497 103.029 62.0836 103.232C62.7239 103.433 63.0591 103.717 63.0124 103.908Z" fill="#263238"/>
<path d="M76.2426 103.119C75.9788 103.468 74.8192 103.216 73.4553 103.305C72.0887 103.352 70.9557 103.718 70.6635 103.397C70.5343 103.24 70.6909 102.898 71.1709 102.55C71.6445 102.204 72.4551 101.888 73.394 101.84C74.3319 101.795 75.1664 102.028 75.6656 102.327C76.1748 102.624 76.3589 102.949 76.2426 103.119Z" fill="#263238"/>
<path d="M42.8758 98.6829C43.8385 97.2009 45.5697 96.4379 47.2184 95.8013C54.33 93.0552 61.7695 91.161 69.3271 90.1709C70.2687 91.7225 69.3986 93.8338 67.9779 94.9632C66.5581 96.0926 64.7326 96.5387 63.0326 97.1743C61.3326 97.81 59.5904 98.7892 58.8897 100.464C58.145 102.244 58.7733 104.354 58.1193 106.169C56.9936 109.293 52.6336 110.301 51.5262 113.431C50.6881 115.799 52.0593 118.319 52.4028 120.807C52.7912 123.627 51.747 126.607 49.6842 128.567C48.0574 130.113 45.8298 130.981 43.5894 131.024C43.0718 122.059 42.5543 113.094 42.0377 104.129C41.9287 102.263 41.8573 100.251 42.8758 98.6829Z" fill="#263238"/>
<path d="M24.8146 121.33C26.2307 120.062 28.0058 118.963 28.57 117.149C29.3917 114.504 27.2684 111.397 28.636 108.989C29.8835 106.792 33.5584 106.903 34.718 104.66C35.6239 102.907 34.5834 101.357 34.9278 99.8169C35.2722 98.2781 37.4567 96.928 39.0221 97.1121L51.2649 114.856C52.4026 120.808 53.5457 123.977 52.2679 127.459C51.5672 129.369 50.6531 131.231 50.3783 133.246C50.1035 135.262 50.6192 137.547 52.267 138.738C44.9475 139.312 38.0869 135.481 31.7475 131.777C29.5107 130.47 27.2749 129.164 25.0381 127.857C24.3401 127.448 23.6128 127.013 23.1951 126.32C22.2114 124.693 23.3994 122.599 24.8146 121.33Z" fill="#263238"/>
<path d="M31.5645 129.982C31.5645 129.982 31.8246 130.08 32.3467 130.133C32.8651 130.185 33.6529 130.209 34.6265 129.971C35.5911 129.737 36.7617 129.243 37.8068 128.26C38.8528 127.29 39.6955 125.778 39.9007 123.981C40.0005 123.085 39.9401 122.123 39.6607 121.174C39.3786 120.219 38.8491 119.333 38.3014 118.453C37.761 117.571 37.1711 116.666 36.8991 115.63C36.6298 114.613 36.6279 113.403 37.2911 112.526C37.957 111.634 39.1945 111.416 40.3413 110.953C40.9192 110.722 41.5155 110.364 41.9021 109.797C42.2886 109.232 42.4187 108.536 42.4058 107.877C42.3903 106.537 41.8187 105.312 41.5732 104.064C41.4477 103.44 41.4029 102.793 41.5613 102.195C41.7161 101.597 42.0935 101.072 42.6174 100.71C43.6745 99.9552 45.0228 99.8352 46.3207 99.7208C47.6269 99.6273 48.9907 99.3324 50.0936 98.6106C51.2083 97.9218 52.1023 96.9353 52.6757 95.8114C53.2436 94.6747 53.4487 93.4546 53.6292 92.3032C53.806 91.1482 53.9644 90.0252 54.3464 89.0122C54.7293 88.0046 55.3457 87.129 56.0684 86.4173C57.5449 85.0122 59.4089 84.2647 61.1328 84.1246C62.8676 83.978 64.4422 84.4378 65.6668 85.0689C66.9025 85.701 67.8258 86.4969 68.4862 87.216C69.8061 88.6788 70.1743 89.7486 70.2292 89.7138C70.2357 89.7111 70.2118 89.6469 70.1596 89.5242C70.1028 89.4033 70.0341 89.2146 69.9059 88.9875C69.6687 88.5231 69.262 87.8599 68.6098 87.1061C67.9576 86.3577 67.0325 85.526 65.7767 84.8574C64.5319 84.1905 62.9162 83.6913 61.109 83.8241C59.3183 83.9515 57.3773 84.7062 55.8229 86.1626C55.0627 86.9009 54.4059 87.8168 53.9956 88.8794C53.588 89.9419 53.4222 91.0933 53.2408 92.2419C53.0576 93.3887 52.8488 94.5657 52.3129 95.6273C51.7716 96.6797 50.9253 97.6094 49.8737 98.2552C48.8259 98.9321 47.5838 99.2023 46.2804 99.2976C44.9962 99.413 43.5526 99.522 42.3701 100.362C41.783 100.764 41.3259 101.391 41.1501 102.085C40.9678 102.779 41.0264 103.49 41.1574 104.146C41.4258 105.467 41.9772 106.653 41.9882 107.885C42.001 108.49 41.8828 109.09 41.5613 109.564C41.2389 110.037 40.7342 110.354 40.1846 110.576C39.6378 110.807 39.0497 110.965 38.4828 111.205C37.9194 111.437 37.3543 111.777 36.9778 112.287C36.2121 113.323 36.2478 114.646 36.5363 115.725C36.8395 116.839 37.4569 117.761 38.001 118.638C38.5551 119.514 39.0708 120.367 39.3456 121.267C39.6195 122.168 39.6863 123.086 39.6002 123.946C39.4225 125.673 38.633 127.137 37.641 128.085C36.6481 129.051 35.5205 129.555 34.5844 129.808C32.6728 130.297 31.5599 129.906 31.5645 129.982Z" fill="#455A64"/>
<path d="M21.8001 117.369C21.8001 117.369 21.6536 117.548 21.5583 117.967C21.4621 118.378 21.474 119.058 21.8725 119.782C22.0777 120.135 22.3772 120.501 22.8095 120.767C23.2391 121.031 23.785 121.193 24.3731 121.184C25.5382 121.197 26.9112 120.494 27.579 119.148C27.917 118.49 28.1001 117.72 28.1011 116.916C28.1001 116.108 27.8922 115.289 27.5863 114.497C27.0056 112.913 25.9513 111.37 25.9284 109.518C25.9082 108.621 26.1189 107.647 26.7775 107.002C27.4297 106.34 28.4372 106.179 29.4384 106.171C30.4414 106.137 31.535 106.265 32.6076 105.842C33.1343 105.629 33.6097 105.239 33.911 104.745C34.2179 104.253 34.3782 103.691 34.446 103.13C34.5806 101.989 34.3141 100.909 34.1812 99.8756C34.021 98.8424 34.0842 97.8247 34.3507 96.8593C34.8884 94.9339 36.1781 93.3163 37.7581 92.3885C39.3446 91.4313 41.1801 91.3287 42.8344 91.2288C44.4996 91.1409 46.1071 91.0365 47.4683 90.4979C48.8285 89.9895 49.9212 89.2238 50.7483 88.4342C51.5855 87.6483 52.1525 86.8267 52.5455 86.1269C53.3213 84.709 53.4165 83.804 53.4165 83.804C53.3652 83.7848 53.2086 84.6769 52.4017 86.0436C51.994 86.7177 51.4188 87.5082 50.5862 88.2593C49.7628 89.014 48.6874 89.7404 47.3648 90.214C46.0476 90.715 44.4877 90.802 42.8161 90.8753C41.1627 90.9614 39.2584 91.0429 37.5602 92.0486C35.8859 93.0214 34.5247 94.7123 33.9495 96.7466C33.6637 97.7579 33.5969 98.8671 33.7617 99.9314C33.9 100.99 34.1501 102.043 34.0237 103.08C33.9193 104.111 33.3853 105.095 32.4464 105.451C31.5222 105.825 30.4588 105.723 29.4301 105.754C28.4143 105.765 27.2611 105.931 26.4908 106.714C25.7205 107.482 25.5107 108.571 25.5354 109.529C25.5547 110.505 25.8441 111.435 26.2059 112.256C26.5604 113.086 26.9561 113.856 27.2575 114.625C27.5616 115.392 27.764 116.167 27.7731 116.92C27.7814 117.673 27.6183 118.396 27.3115 119.012C26.7088 120.269 25.4576 120.932 24.3694 120.946C23.8244 120.967 23.3161 120.826 22.9149 120.594C22.5118 120.36 22.2215 120.025 22.0163 119.699C21.6188 119.028 21.5775 118.383 21.6435 117.982C21.7067 117.574 21.8221 117.378 21.8001 117.369Z" fill="#263238"/>
<path d="M98.9497 121.742C98.8819 121.737 99.3463 122.443 98.9259 123.656C98.7152 124.226 98.238 124.921 97.4045 125.199C96.5938 125.477 95.4644 125.262 94.7179 124.465C94.3442 124.074 94.1271 123.528 94.0887 122.931C94.0493 122.336 94.1674 121.705 94.3689 121.078C94.7582 119.839 95.5506 118.491 95.4296 116.875C95.3408 115.308 94.5466 113.705 93.2029 112.644C92.5379 112.111 91.7594 111.703 90.9213 111.442C90.0813 111.172 89.1846 111.112 88.3144 111.068C87.4406 111.023 86.5814 110.999 85.7836 110.803C84.9904 110.613 84.2704 110.207 83.8143 109.578C83.3563 108.953 83.1548 108.174 83.1016 107.412C83.0467 106.644 83.1401 105.889 83.2912 105.154C83.5908 103.691 84.0295 102.27 83.948 100.871C83.8747 99.4808 83.3462 98.2461 82.64 97.3145C81.932 96.3647 81.016 95.7839 80.2548 95.2994C79.4827 94.8158 78.825 94.3981 78.3478 93.9813C77.3695 93.1551 77.201 92.4068 77.1479 92.4397C77.1414 92.4425 77.1515 92.4855 77.179 92.568C77.2111 92.6486 77.2413 92.7777 77.3256 92.927C77.4694 93.2357 77.757 93.6653 78.2369 94.1041C78.7096 94.552 79.3682 94.9971 80.1248 95.4982C80.8768 96.0029 81.7424 96.5808 82.3982 97.494C83.0558 98.3926 83.5413 99.576 83.5944 100.887C83.6586 102.204 83.2253 103.583 82.9065 105.075C82.7472 105.821 82.6409 106.622 82.6959 107.439C82.749 108.25 82.9578 109.108 83.4772 109.824C83.9947 110.545 84.8264 111.009 85.6819 111.212C86.5429 111.424 87.4241 111.445 88.2943 111.491C89.1644 111.535 90.0108 111.593 90.7985 111.845C91.5872 112.088 92.3199 112.471 92.9437 112.967C94.2013 113.953 94.946 115.441 95.0394 116.897C95.1686 118.374 94.4349 119.668 94.0337 120.97C93.8313 121.626 93.7104 122.298 93.7626 122.954C93.8102 123.606 94.0703 124.236 94.5009 124.669C95.3545 125.546 96.5893 125.749 97.4851 125.422C98.4047 125.087 98.8856 124.318 99.0862 123.708C99.2941 123.078 99.2373 122.547 99.1567 122.218C99.0605 121.888 98.9497 121.742 98.9497 121.742Z" fill="#263238"/>
<path d="M90.19 193.488V183.351C91.324 177.669 90.7863 170.927 88.1437 165.73C86.6031 162.7 83.0729 157.872 81.786 156.064L71.6957 142.979C66.1468 147.019 57.4579 144.099 50.0029 141.385C50.0029 141.385 42.6376 145.46 39.211 149.293C35.6131 153.319 47.9172 203.744 47.9172 203.744C42.3408 214.9 35.1441 224.785 34.0522 234.974L92.3077 237.219L89.8319 210.509L90.19 193.488Z" fill="#455A64"/>
<path d="M89.3878 210.794C89.3548 210.792 89.3411 210.386 89.3429 209.652C89.3521 208.822 89.364 207.782 89.3777 206.548C89.4226 203.825 89.4812 200.255 89.5454 196.309C89.6214 192.308 89.7258 188.686 89.8531 186.066C89.9145 184.756 89.9804 183.697 90.04 182.965C90.0995 182.233 90.1481 181.83 90.181 181.831C90.214 181.833 90.2278 182.238 90.2259 182.972C90.2168 183.803 90.2049 184.842 90.1911 186.076C90.1462 188.799 90.0876 192.37 90.0235 196.318C89.9475 200.317 89.843 203.939 89.7157 206.559C89.6544 207.869 89.5884 208.929 89.5289 209.661C89.4693 210.392 89.4208 210.795 89.3878 210.794Z" fill="#263238"/>
<path d="M115.996 220.011C115.996 220.011 121.67 220.319 125.191 222.522C128.712 224.725 134.356 228.142 136.688 232.389C137.759 234.339 134.707 234.752 133.2 233.619C131.693 232.486 129.387 230.355 128.242 230.093C127.097 229.831 127.097 229.831 127.097 229.831C127.097 229.831 129.397 234.952 130.584 236.751C131.771 238.55 132.797 241.626 129.245 241.766C129.245 241.766 126.849 244.88 124.431 242.573C124.431 242.573 122.543 245.398 119.502 241.48C119.502 241.48 117.731 243.721 116.992 242.867C116.253 242.013 113.833 240.648 113.126 237.849C112.419 235.049 109.448 228.24 109.448 228.24L115.996 220.011Z" fill="#FFBF9D"/>
<path d="M243.141 141.296C243.777 141.305 269.782 138.566 269.782 138.566C269.782 138.566 271.983 127.991 271.867 125.243C271.751 122.495 269.896 104.313 269.896 104.313L279.636 99.7061C279.636 99.7061 292.653 143.6 289.807 147.25C286.961 150.899 281.629 154.16 281.171 154.18C280.713 154.199 255.976 165.16 238.76 159.464C221.543 153.766 243.141 141.296 243.141 141.296Z" fill="#FFBF9D"/>
<path d="M220.353 164.991C224.185 168.788 230.779 171.947 241.781 169.2C263.549 163.765 279.859 159.166 286.348 155.643C292.838 152.121 290.305 136.609 290.851 135.905C292.496 133.783 290.692 129.217 288.351 128.508C281.695 126.492 270.103 127.286 269.523 127.894C266.103 131.48 269.223 135.845 269.223 135.845L240.523 139.604C240.523 139.604 235.531 139.264 229.979 140.279" fill="#455A64"/>
<path d="M229.979 140.279C229.979 140.279 230.21 140.218 230.667 140.13C231.124 140.042 231.805 139.929 232.7 139.815C234.489 139.596 237.137 139.345 240.53 139.487L240.507 139.488C247.36 138.57 257.259 137.243 269.196 135.643L269.057 135.962C268.174 134.603 267.607 132.969 267.737 131.248C267.797 130.392 268.099 129.549 268.558 128.81C268.766 128.422 269.075 128.107 269.35 127.766C269.441 127.688 269.61 127.604 269.723 127.564L270.051 127.483C270.271 127.425 270.483 127.406 270.699 127.365C274.138 126.925 277.719 126.908 281.401 127.14C283.24 127.269 285.107 127.49 286.968 127.908C287.433 128.014 287.893 128.149 288.359 128.268C288.844 128.424 289.307 128.688 289.672 129.033C290.42 129.713 290.929 130.597 291.29 131.525C291.638 132.459 291.805 133.482 291.669 134.509C291.569 135.016 291.418 135.533 291.093 135.967C291.008 136.057 291.019 136.308 291.007 136.546L291.015 137.276C291.084 139.245 291.174 141.251 291.123 143.272C291.037 146.149 290.785 149.047 289.758 151.72C289.244 153.039 288.494 154.32 287.372 155.225C286.822 155.701 286.17 155.998 285.563 156.303C284.953 156.627 284.316 156.876 283.698 157.164C281.195 158.238 278.672 159.112 276.194 159.934C273.714 160.755 271.269 161.501 268.878 162.202C259.304 164.989 250.597 167.173 243.286 168.996C241.465 169.467 239.695 169.848 238.01 170.093C236.318 170.29 234.71 170.43 233.205 170.348C230.193 170.262 227.64 169.57 225.707 168.72C223.77 167.855 222.435 166.867 221.586 166.155C220.732 165.441 220.355 164.991 220.355 164.991C220.378 164.966 220.778 165.395 221.647 166.081C222.511 166.765 223.854 167.72 225.782 168.55C227.706 169.364 230.234 170.022 233.214 170.082C234.702 170.15 236.294 170 237.969 169.792C239.641 169.537 241.381 169.152 243.205 168.669C250.505 166.805 259.201 164.588 268.755 161.78C271.142 161.075 273.581 160.326 276.052 159.502C278.521 158.678 281.036 157.803 283.515 156.735C284.125 156.45 284.758 156.201 285.356 155.882C285.967 155.574 286.58 155.294 287.075 154.859C288.109 154.026 288.824 152.819 289.318 151.546C290.309 148.97 290.564 146.108 290.648 143.26C290.699 141.256 290.609 139.271 290.54 137.289L290.532 136.538C290.533 136.412 290.54 136.282 290.551 136.148C290.565 136.07 290.562 136.019 290.592 135.92C290.611 135.865 290.636 135.811 290.663 135.761L290.708 135.688C290.98 135.329 291.111 134.882 291.201 134.435C291.323 133.52 291.174 132.563 290.847 131.688C290.512 130.82 290.029 129.989 289.358 129.38C289.025 129.067 288.641 128.853 288.224 128.715C287.769 128.597 287.32 128.466 286.864 128.361C285.038 127.949 283.191 127.727 281.367 127.596C277.723 127.36 274.138 127.372 270.764 127.795C270.559 127.833 270.342 127.853 270.148 127.905L269.854 127.976C269.773 128.014 269.738 128.017 269.664 128.062C269.407 128.382 269.115 128.675 268.924 129.034C268.497 129.719 268.215 130.491 268.157 131.284C268.025 132.869 268.567 134.457 269.388 135.725L269.569 136.004L269.25 136.044C257.304 137.573 247.398 138.84 240.539 139.717L240.528 139.718L240.515 139.717C237.152 139.543 234.502 139.755 232.715 139.935C231.82 140.029 231.137 140.123 230.677 140.19C230.219 140.26 229.979 140.279 229.979 140.279Z" fill="#263238"/>
<path d="M376.611 30.3353L377.614 32.1361C380.559 37.4286 378.657 44.1069 373.365 47.0526L152.281 170.114L140.611 149.148L361.694 26.0861C366.986 23.1404 373.665 25.0429 376.611 30.3353Z" fill="#62C061"/>
<path d="M326.595 1.49885L353.669 50.1358L337.664 59.0444L310.591 10.4066C310.04 9.41829 310.396 8.17075 311.384 7.62025L323.808 0.704703C324.797 0.155123 326.045 0.510518 326.595 1.49885Z" fill="#62C061"/>
<path d="M300.412 27.494L320.137 62.9309C320.935 64.3644 320.42 66.1734 318.986 66.9721L308.174 72.9909C306.741 73.7887 304.931 73.274 304.133 71.8396L284.408 36.4026C283.61 34.9692 284.125 33.1592 285.559 32.3614L296.371 26.3426C297.805 25.5448 299.614 26.0605 300.412 27.494Z" fill="#62C061"/>
<path d="M301.818 34.3132L314.033 56.257L338.89 42.4203L326.675 20.4765L301.818 34.3132Z" fill="#62C061"/>
<path d="M358.444 27.8933C358.508 28.0087 315.122 52.2809 261.549 82.1011C207.958 111.931 164.476 136.012 164.412 135.897C164.348 135.781 207.725 111.515 261.317 81.6844C314.889 51.8651 358.38 27.7788 358.444 27.8933Z" fill="#263238"/>
<path d="M62.7455 210.676C79.0424 239.954 113.421 251.907 139.532 237.373C165.642 222.839 173.599 187.322 157.302 158.044C141.005 128.766 106.626 116.814 80.5153 131.347C54.4047 145.882 46.4487 181.398 62.7455 210.676ZM143.153 165.92C154.572 186.436 148.998 211.324 130.701 221.508C112.405 231.693 88.3148 223.318 76.8945 202.802C65.4751 182.286 71.0497 157.398 89.3461 147.214C107.643 137.029 131.732 145.404 143.153 165.92Z" fill="#62C061"/>
<path d="M189.214 121.783L201.28 143.459C202.884 146.34 201.848 149.975 198.967 151.578L197.987 152.124C195.106 153.728 191.471 152.692 189.868 149.811L177.802 128.135C176.198 125.254 177.234 121.619 180.114 120.016L181.095 119.47C183.975 117.867 187.611 118.902 189.214 121.783Z" fill="#62C061"/>
<path d="M212.384 108.886L224.45 130.562C226.054 133.443 225.018 137.078 222.137 138.681L221.157 139.227C218.277 140.831 214.641 139.795 213.038 136.914L200.973 115.238C199.369 112.357 200.405 108.722 203.286 107.119L204.266 106.573C207.146 104.969 210.781 106.005 212.384 108.886Z" fill="#62C061"/>
<path d="M195.208 132.393C191.869 126.268 189.068 121.353 188.953 121.416C188.837 121.479 191.451 126.496 194.79 132.621C198.129 138.747 200.93 143.662 201.045 143.599C201.161 143.536 198.547 138.519 195.208 132.393Z" fill="#263238"/>
<path d="M184.433 139.478C181.176 133.626 178.443 128.935 178.328 128.999C178.213 129.063 180.76 133.858 184.017 139.709C187.274 145.56 190.008 150.252 190.123 150.188C190.238 150.124 187.69 145.329 184.433 139.478Z" fill="#263238"/>
<path d="M218.632 119.612C215.234 113.508 212.386 108.611 212.271 108.675C212.156 108.739 214.818 113.739 218.215 119.843C221.613 125.947 224.461 130.844 224.576 130.78C224.691 130.716 222.029 125.716 218.632 119.612Z" fill="#263238"/>
<path d="M207.302 126.317C203.979 120.254 201.192 115.39 201.077 115.453C200.961 115.516 203.562 120.483 206.885 126.546C210.208 132.609 212.995 137.473 213.11 137.41C213.226 137.346 210.625 132.38 207.302 126.317Z" fill="#263238"/>
<path d="M267.525 82.4062C269.632 82.6507 271.797 81.1073 272.252 79.0354C272.708 76.9635 271.39 74.6543 269.374 73.993C270.688 72.652 271.02 70.4501 270.161 68.7802C269.303 67.1114 267.317 66.102 265.462 66.3914C265.389 64.5393 264.285 62.7624 262.659 61.8739C261.033 60.9863 258.941 61.0193 257.344 61.959C255.301 60.1995 252.001 60.1271 249.883 61.7951C248.084 61.4589 246.119 62.4134 245.271 64.0355C244.423 65.6577 244.761 67.8148 246.063 69.1008" fill="#263238"/>
<path d="M248.943 66.0663L249.893 66.069C259.466 66.0974 267.411 73.4709 268.152 83.0153C268.841 91.8919 269.488 101.707 269.415 106.469C269.264 116.326 259.399 117.829 259.399 117.829L260.197 129.676L236.275 128.862L234.289 85.9024C233.436 75.6628 238.685 66.6342 248.943 66.0663Z" fill="#FFBF9D"/>
<path d="M259.481 117.816C259.481 117.816 253.185 118.176 246.576 113.996C246.576 113.996 249.747 121.458 259.587 120.601L259.481 117.816Z" fill="#FF9A6C"/>
<path d="M262.742 92.2748C262.765 93.0186 262.156 93.6515 261.38 93.6909C260.605 93.7303 259.956 93.1605 259.932 92.4177C259.909 91.6739 260.518 91.0401 261.293 91.0007C262.068 90.9604 262.718 91.532 262.742 92.2748Z" fill="#263238"/>
<path d="M266.019 87.8324C265.844 88.0156 264.781 87.2233 263.265 87.2223C261.752 87.2004 260.637 87.9762 260.474 87.7902C260.394 87.7078 260.572 87.3771 261.058 87.0263C261.535 86.6764 262.349 86.3375 263.293 86.3448C264.236 86.3531 265.028 86.703 265.485 87.0593C265.949 87.4174 266.106 87.7499 266.019 87.8324Z" fill="#263238"/>
<path d="M249.075 91.6226C249.098 92.3664 248.489 92.9993 247.713 93.0387C246.938 93.0781 246.289 92.5093 246.265 91.7655C246.242 91.0227 246.852 90.3879 247.626 90.3485C248.401 90.3082 249.051 90.8789 249.075 91.6226Z" fill="#263238"/>
<path d="M251.127 88.0696C250.953 88.2528 249.887 87.4605 248.373 87.4596C246.861 87.4376 245.746 88.2134 245.582 88.0265C245.502 87.9441 245.678 87.6134 246.166 87.2626C246.643 86.9127 247.456 86.5738 248.401 86.5811C249.344 86.5894 250.137 86.9393 250.593 87.2956C251.056 87.6547 251.214 87.9871 251.127 88.0696Z" fill="#263238"/>
<path d="M256.591 99.3204C256.584 99.2343 257.526 99.074 259.053 98.8835C259.44 98.845 259.806 98.769 259.872 98.5052C259.964 98.2258 259.803 97.8091 259.617 97.3575C259.257 96.4205 258.879 95.4386 258.483 94.4081C256.906 90.2093 255.768 86.7579 255.937 86.6957C256.107 86.6343 257.522 89.9867 259.097 94.1855C259.476 95.2205 259.839 96.208 260.184 97.1514C260.329 97.592 260.58 98.0912 260.38 98.6701C260.275 98.9586 259.991 99.1675 259.743 99.2334C259.495 99.3085 259.277 99.3122 259.086 99.3222C257.549 99.4029 256.597 99.4065 256.591 99.3204Z" fill="#263238"/>
<path d="M252.459 82.245C252.259 82.6287 250.961 82.2083 249.363 82.1515C247.767 82.059 246.418 82.3558 246.274 81.9564C246.211 81.7659 246.496 81.4224 247.073 81.1165C247.646 80.8105 248.515 80.5761 249.473 80.62C250.431 80.6658 251.261 80.98 251.786 81.3372C252.314 81.6935 252.548 82.0618 252.459 82.245Z" fill="#263238"/>
<path d="M266.112 81.5855C265.791 81.929 264.543 81.5672 263.039 81.5461C261.537 81.4811 260.262 81.7687 259.969 81.4087C259.841 81.2337 260.043 80.8893 260.6 80.5651C261.149 80.2427 262.066 79.9798 263.099 80.0091C264.132 80.0393 265.026 80.3544 265.548 80.708C266.079 81.0634 266.253 81.4179 266.112 81.5855Z" fill="#263238"/>
<path d="M267.218 78.4913C267.218 78.4913 264.637 72.3104 261.665 70.8604C258.066 69.1054 256.502 73.056 253.071 72.086C249.639 71.116 246.204 69.4324 242.687 72.0759C238.836 74.9704 240.63 77.0139 240.38 81.3876C239.364 99.118 236.11 104.123 235.215 95.7674C235.116 94.8523 232.579 94.1168 232.215 90.2496C231.742 85.2347 231.568 79.1462 232.697 75.5923C233.65 72.5962 235.366 70.5298 238.439 68.2545C243.29 64.663 249.938 64.6062 254.452 65.0743C258.965 65.5405 267.653 70.7624 267.218 78.4913Z" fill="#263238"/>
<path d="M235.843 95.5009C235.786 93.9794 234.479 92.774 232.962 92.9132C231.123 93.0827 229.074 94.1205 229.183 97.9199C229.379 104.66 236.105 103.074 236.111 102.881C236.115 102.749 235.95 98.3211 235.843 95.5009Z" fill="#FFBF9D"/>
<path d="M234.571 100.388C234.541 100.367 234.456 100.474 234.26 100.57C234.069 100.664 233.738 100.735 233.382 100.613C232.662 100.373 232.03 99.2591 231.962 98.0454C231.928 97.4326 232.039 96.8446 232.243 96.3555C232.434 95.8563 232.743 95.5027 233.1 95.4285C233.455 95.3351 233.715 95.543 233.803 95.7299C233.899 95.9158 233.859 96.0514 233.896 96.0623C233.915 96.0788 234.037 95.9451 233.975 95.6685C233.943 95.5357 233.859 95.379 233.697 95.2535C233.531 95.1271 233.292 95.0667 233.043 95.1006C232.525 95.1519 232.071 95.6428 231.847 96.1805C231.595 96.7218 231.455 97.3823 231.494 98.0711C231.577 99.4285 232.309 100.679 233.291 100.933C233.769 101.042 234.161 100.889 234.36 100.724C234.564 100.551 234.595 100.399 234.571 100.388Z" fill="#FF9A6C"/>
<path d="M236.015 82.4437C236.889 83.0437 237.811 83.6629 238.865 83.7701C239.92 83.8781 241.128 83.2754 241.308 82.2312C241.39 81.7623 241.276 81.2173 241.586 80.8564C241.955 80.4249 242.634 80.5623 243.198 80.6237C245.156 80.8371 247.453 78.68 247.957 76.7757C248.455 77.5259 249.548 77.7549 250.307 77.2694C251.064 76.784 251.341 76.5074 251.935 75.8305C252.529 75.1545 253.361 74.5508 254.252 74.68C254.75 74.7524 255.215 75.05 255.716 75.007C256.602 74.931 257.037 73.8959 257.174 73.0175C257.31 72.14 257.417 71.1151 258.168 70.6397C258.865 70.1991 259.764 70.4574 260.578 70.5801C261.393 70.7029 262.445 70.5142 262.656 69.7182C262.767 69.3005 262.589 68.8599 262.358 68.4945C261.314 66.8393 259.028 66.0983 257.21 66.8265C256.558 64.598 254.481 62.8576 252.172 62.6076C249.862 62.3566 247.46 63.6096 246.344 65.6467C244.924 64.3497 242.855 63.8011 240.979 64.2233C239.103 64.6456 237.469 66.0269 236.74 67.8066C235.102 67.3706 233.231 67.9989 232.189 69.3353C231.147 70.6717 230.993 72.6392 231.814 74.1222C230.601 74.811 229.56 76.0109 229.531 77.4059C229.501 78.8009 230.856 80.195 232.204 79.8323C231.656 80.9168 232.095 82.3924 233.145 83.0025C234.196 83.6125 235.694 83.2617 236.365 82.2486" fill="#263238"/>
<path d="M257.707 68.8141C257.712 68.8141 257.711 68.8563 257.705 68.9378C257.696 69.0184 257.69 69.1411 257.661 69.2978C257.598 69.6092 257.471 70.069 257.167 70.5948C256.861 71.1123 256.388 71.7104 255.668 72.184C254.962 72.663 253.995 73.0257 252.905 72.9625L253.02 72.8132C253.228 73.3903 253.168 74.0818 252.879 74.6736C252.605 75.2754 252.175 75.8084 251.72 76.3278C251.487 76.5769 251.285 76.87 250.963 77.099C250.651 77.3189 250.277 77.4453 249.894 77.492C249.134 77.5873 248.277 77.3491 247.727 76.7079L247.979 76.6365C247.803 77.9756 247.037 79.3138 245.825 80.1272C245.183 80.588 244.389 80.8692 243.609 80.8453C242.829 80.8353 242.105 80.6044 241.43 80.3599L241.61 80.2811C241.246 81.1183 240.687 81.8309 240.009 82.3567C239.344 82.8815 238.459 83.1875 237.66 82.9887C236.071 82.647 235.019 81.3216 234.81 80.075L234.962 80.1465C234.172 80.5742 233.325 80.6127 232.646 80.4799C231.957 80.3516 231.417 80.0512 231.033 79.7544C230.647 79.4522 230.419 79.1426 230.283 78.9282C230.157 78.7056 230.105 78.5829 230.113 78.5792C230.147 78.5518 230.335 79.0922 231.101 79.6637C231.484 79.9367 232.012 80.2115 232.675 80.3187C233.329 80.4322 234.131 80.3764 234.862 79.9669L234.988 79.8955L235.014 80.0384C235.224 81.2007 236.237 82.4391 237.711 82.7387C238.436 82.9109 239.214 82.637 239.844 82.1405C240.477 81.645 241.01 80.958 241.349 80.1712L241.403 80.0466L241.531 80.0924C242.195 80.3306 242.895 80.5477 243.615 80.555C244.337 80.5724 245.049 80.3232 245.661 79.8863C246.807 79.1169 247.526 77.8648 247.698 76.5962L247.741 76.2774L247.951 76.5247C248.414 77.0734 249.181 77.3006 249.864 77.2163C250.208 77.176 250.539 77.0652 250.812 76.8755C251.078 76.6942 251.289 76.4047 251.526 76.1528C251.98 75.6427 252.398 75.1297 252.659 74.5701C252.934 74.0168 252.988 73.4086 252.81 72.8865L252.756 72.7253L252.925 72.7372C253.953 72.8096 254.884 72.4817 255.572 72.0319C256.276 71.5895 256.749 71.0225 257.062 70.5288C257.676 69.5121 257.658 68.7986 257.707 68.8141Z" fill="#455A64"/>
<path d="M256.564 104.355C256.518 104.104 254.873 104.51 253.357 103.394C251.837 102.28 251.586 100.482 251.353 100.526C251.244 100.529 251.131 100.996 251.295 101.74C251.45 102.472 251.947 103.473 252.874 104.157C253.803 104.837 254.85 104.969 255.537 104.857C256.241 104.749 256.603 104.464 256.564 104.355Z" fill="#263238"/>
<path d="M307.365 360.625L313.873 382.786C313.873 382.786 338.584 383.614 340.185 387.592L297.669 401.753L286.113 367.64L307.365 360.625Z" fill="#455A64"/>
<path d="M300.112 385.324C299.364 385.823 299.104 386.937 299.572 387.705C300.039 388.473 301.17 388.748 301.928 388.261C302.684 387.776 303.038 386.448 302.486 385.737C301.936 385.026 300.59 384.777 299.972 385.43" fill="#E0E0E0"/>
<path d="M337.788 385.996C337.788 385.996 339.955 386.189 340.185 387.593L297.669 401.754L296.638 398.27L337.788 385.996Z" fill="#263238"/>
<path d="M314.49 382.341C314.552 382.551 313.546 382.991 312.746 383.998C311.921 384.986 311.694 386.06 311.475 386.041C311.27 386.065 311.166 384.72 312.155 383.517C313.134 382.305 314.472 382.135 314.49 382.341Z" fill="white"/>
<path d="M319.564 382.7C319.679 382.885 318.897 383.538 318.484 384.651C318.039 385.752 318.177 386.761 317.968 386.82C317.783 386.918 317.235 385.75 317.774 384.377C318.301 382.997 319.494 382.503 319.564 382.7Z" fill="white"/>
<path d="M323.874 387.193C323.7 387.299 323.066 386.359 323.22 385.044C323.364 383.728 324.194 382.954 324.34 383.098C324.514 383.23 324.087 384.049 323.977 385.13C323.841 386.209 324.073 387.104 323.874 387.193Z" fill="white"/>
<path d="M312.447 377.455C312.423 377.673 311.375 377.704 310.229 378.174C309.072 378.621 308.29 379.319 308.123 379.177C307.952 379.068 308.588 378.002 309.947 377.466C311.3 376.921 312.495 377.258 312.447 377.455Z" fill="white"/>
<path d="M208.134 360.82L198.876 381.98C198.876 381.98 217.275 398.497 215.945 402.574L174.272 386.098L187.344 352.536L208.134 360.82Z" fill="#455A64"/>
<path d="M186.704 375.08C185.81 374.981 184.895 375.668 184.759 376.556C184.624 377.445 185.314 378.383 186.206 378.496C187.098 378.611 188.222 377.82 188.257 376.922C188.292 376.023 187.421 374.967 186.528 375.07" fill="#E0E0E0"/>
<path d="M215.136 399.81C215.136 399.81 216.672 401.35 215.945 402.574L174.272 386.098L175.722 382.766L215.136 399.81Z" fill="#263238"/>
<path d="M199.635 382.035C199.548 382.236 198.494 381.926 197.234 382.185C195.968 382.41 195.103 383.088 194.947 382.933C194.775 382.819 195.56 381.723 197.091 381.437C198.618 381.137 199.753 381.866 199.635 382.035Z" fill="white"/>
<path d="M203.291 385.571C203.26 385.786 202.241 385.784 201.21 386.372C200.161 386.928 199.619 387.79 199.42 387.701C199.216 387.658 199.546 386.411 200.843 385.705C202.133 384.987 203.363 385.376 203.291 385.571Z" fill="white"/>
<path d="M203.706 391.784C203.505 391.754 203.623 390.625 204.586 389.718C205.544 388.803 206.677 388.742 206.695 388.946C206.744 389.16 205.89 389.512 205.11 390.27C204.313 391.009 203.916 391.844 203.706 391.784Z" fill="white"/>
<path d="M201.21 376.979C201.051 377.131 200.229 376.481 199.047 376.104C197.874 375.703 196.826 375.735 196.789 375.519C196.73 375.326 197.901 374.917 199.286 375.381C200.674 375.833 201.373 376.858 201.21 376.979Z" fill="white"/>
<path d="M223.737 244.584L209.133 303.81C209.133 303.81 182.796 348.145 178.339 370.327L202.431 379.802C202.431 379.802 219.951 337.073 225.088 329.231C227.914 324.917 230.904 321.586 233.023 319.46C234.939 317.538 236.333 315.158 237.02 312.532L248.076 270.276L223.737 244.584Z" fill="#263238"/>
<path d="M217.516 235.12C217.516 235.12 219.547 250.976 234.811 258.007L266.981 310.399C266.981 310.399 269.507 327.433 274.362 341.792C279.18 356.044 288.885 383.802 288.885 383.802L315.346 373.913L298.482 316.258L295.722 296.263L269.467 229.441L246.917 215.918L217.516 235.12Z" fill="#263238"/>
<path d="M217.516 235.12C217.516 235.12 217.674 235.004 217.999 234.785C218.334 234.562 218.82 234.239 219.458 233.814C220.761 232.953 222.678 231.689 225.172 230.043C230.199 226.74 237.541 221.918 246.844 215.808L246.914 215.762L246.985 215.805C253.56 219.735 261.139 224.265 269.554 229.295L269.603 229.324L269.625 229.378C276.971 248.037 285.939 270.809 295.93 296.181L295.94 296.206L295.944 296.232C296.819 302.55 297.755 309.316 298.711 316.226L298.704 316.193C303.262 331.772 308.137 348.427 313.162 365.596C313.971 368.36 314.775 371.111 315.575 373.846L315.637 374.058L315.429 374.136C306.417 377.502 297.575 380.806 288.967 384.022L288.742 384.106L288.664 383.88C284.074 370.589 279.655 357.794 275.463 345.652C274.41 342.621 273.374 339.619 272.513 336.613C271.645 333.609 270.873 330.627 270.173 327.677C268.785 321.776 267.66 316.017 266.785 310.428L266.813 310.502C253.653 289.011 242.698 271.121 234.707 258.071L234.76 258.119C230.393 256.072 227.049 253.251 224.653 250.438C222.245 247.615 220.729 244.826 219.713 242.511C218.7 240.185 218.177 238.314 217.875 237.052C217.719 236.42 217.636 235.935 217.58 235.611C217.526 235.287 217.516 235.12 217.516 235.12C217.516 235.12 217.549 235.282 217.613 235.605C217.679 235.927 217.773 236.409 217.939 237.036C218.262 238.29 218.803 240.15 219.831 242.458C220.862 244.757 222.389 247.522 224.796 250.315C227.192 253.097 230.522 255.88 234.862 257.895L234.896 257.911L234.915 257.942C242.938 270.973 253.936 288.835 267.149 310.294L267.17 310.328L267.176 310.369C268.056 315.938 269.189 321.693 270.582 327.579C271.284 330.521 272.057 333.496 272.927 336.49C273.789 339.487 274.823 342.475 275.88 345.509C280.08 357.647 284.507 370.437 289.105 383.724L288.802 383.582C297.409 380.365 306.251 377.059 315.262 373.69L315.116 373.98C314.316 371.246 313.511 368.495 312.702 365.73C307.683 348.559 302.814 331.903 298.259 316.323L298.254 316.306L298.251 316.29C297.3 309.38 296.369 302.613 295.5 296.294L295.512 296.346C285.56 270.959 276.626 248.173 269.307 229.504L269.377 229.587C260.976 224.534 253.41 219.982 246.846 216.035L246.987 216.032C237.673 222.08 230.321 226.853 225.288 230.121C222.771 231.747 220.836 232.998 219.52 233.848C218.869 234.266 218.373 234.584 218.029 234.803C217.696 235.014 217.516 235.12 217.516 235.12Z" fill="#455A64"/>
<path d="M231.644 121.929C231.644 121.929 223.935 127.868 220.186 134.497C215.697 142.434 215.214 154.212 215.073 172.489C214.942 189.403 217.471 194.099 216.494 200.471C214.584 212.92 213.163 254.7 213.163 254.7C213.163 254.7 237.865 245.201 242.692 241.005C247.519 236.809 247.519 236.809 247.519 236.809L278.468 247.037L272.222 209.009L267.939 161.605L262.451 136.461L261.492 126.598L234.977 115.871L231.644 121.929Z" fill="#455A64"/>
<path d="M260.565 126.061C260.888 126.121 259.802 128.291 257.894 131.478L257.816 131.608L257.67 131.551C254.982 130.511 251.431 129.199 247.547 127.783C243.167 126.187 239.212 124.705 236.38 123.55C234.964 122.972 233.827 122.486 233.047 122.134C232.268 121.781 231.844 121.57 231.857 121.54C231.87 121.51 232.318 121.662 233.118 121.962C234.001 122.295 235.138 122.722 236.502 123.235C239.454 124.315 243.375 125.75 247.71 127.335C251.595 128.752 255.137 130.105 257.806 131.213L257.583 131.286C259.564 128.143 260.745 126.08 260.565 126.061Z" fill="#263238"/>
<path d="M292.545 106.28C292.545 106.28 290.589 103.232 288.733 100.419C286.879 97.6057 284.085 96.2308 283.637 94.7571C283.19 93.2833 280.722 86.7689 280.328 85.1458C279.776 82.8761 279.855 80.3654 279.855 80.3654C279.855 80.3654 281.876 79.498 282.85 82.397C283.435 84.1373 285.299 90.0462 285.702 90.3357C286.104 90.626 286.662 90.201 286.662 90.201C286.662 90.201 284.592 84.5175 284.503 83.4458C284.413 82.3741 284.789 75.2708 284.789 75.2708C284.789 75.2708 286.263 74.8229 287.225 76.6319C288.187 78.4409 288.222 83.0528 288.222 83.0528L289.677 88.1667L289.172 83.1078L289.905 73.8162C289.905 73.8162 292.217 74.0269 292.832 76.5394C293.448 79.0519 292.635 82.5481 293.048 83.2956C293.462 84.0439 293.904 88.5276 293.904 88.5276C293.904 88.5276 294.407 77.6221 295.568 77.3088C296.73 76.9955 297.691 78.1561 297.524 80.3562C297.357 82.5564 297.315 87.2022 297.919 89.2567C298.522 91.3112 304.724 99.2929 304.212 102.845C303.7 106.396 303.644 109.238 303.644 109.238H292.981L292.545 106.28Z" fill="#FFBF9D"/>
<path d="M255.28 133.74C255.874 133.964 281.257 140.248 281.257 140.248C281.257 140.248 286.928 131.055 287.755 128.432C288.582 125.808 293.03 108.083 293.03 108.083L303.758 107.069C303.758 107.069 301.046 152.772 297.127 155.234C293.208 157.696 287.083 158.944 286.646 158.807C286.209 158.67 259.218 160.549 244.971 149.329C230.724 138.11 255.28 133.74 255.28 133.74Z" fill="#FFBF9D"/>
<g opacity="0.3">
<path d="M237.084 157.928C237.084 157.928 240.726 162.547 247.462 164.031C254.198 165.515 268.527 168.136 268.527 168.136L267.827 161.104L236.642 157.766" fill="black"/>
</g>
<path d="M225.784 148.256C228.093 153.132 233.217 158.348 244.497 159.512C266.815 161.817 283.715 163.047 291.017 161.946C298.319 160.845 301.22 145.398 301.974 144.922C304.244 143.487 304.103 138.58 302.143 137.115C296.572 132.952 285.402 129.751 284.65 130.125C280.213 132.332 281.659 137.498 281.659 137.498L253.394 131.256C253.394 131.256 248.816 129.237 243.251 128.3" fill="#455A64"/>
<path d="M243.251 128.301C243.251 128.301 243.49 128.323 243.949 128.396C244.408 128.469 245.087 128.594 245.968 128.793C247.724 129.196 250.299 129.862 253.441 131.151L253.419 131.144C260.175 132.615 269.934 134.739 281.702 137.301L281.463 137.554C281.095 135.976 281.119 134.246 281.827 132.672C282.175 131.888 282.746 131.197 283.43 130.659C283.758 130.365 284.154 130.175 284.53 129.947C284.642 129.905 284.829 129.883 284.949 129.884L285.285 129.919C285.511 129.939 285.716 129.993 285.934 130.029C289.318 130.787 292.69 131.991 296.074 133.462C297.759 134.21 299.439 135.053 301.046 136.08C301.447 136.338 301.835 136.621 302.232 136.892C302.635 137.205 302.979 137.611 303.206 138.059C303.678 138.954 303.856 139.958 303.878 140.954C303.887 141.95 303.695 142.97 303.218 143.889C302.952 144.332 302.633 144.767 302.18 145.065C302.069 145.12 301.994 145.36 301.902 145.58L301.661 146.269C301.056 148.143 300.457 150.06 299.721 151.943C298.66 154.619 297.436 157.258 295.56 159.421C294.627 160.486 293.485 161.434 292.122 161.903C291.443 162.164 290.729 162.221 290.054 162.3C289.37 162.397 288.686 162.414 288.007 162.474C285.287 162.632 282.617 162.594 280.008 162.523C277.397 162.451 274.844 162.319 272.357 162.162C262.405 161.522 253.476 160.61 245.98 159.833C244.108 159.655 242.315 159.411 240.647 159.066C238.989 158.676 237.429 158.259 236.042 157.669C233.24 156.563 231.075 155.042 229.547 153.585C228.02 152.111 227.101 150.727 226.545 149.768C225.986 148.806 225.785 148.255 225.785 148.255C225.815 148.239 226.044 148.779 226.628 149.72C227.208 150.658 228.144 152.012 229.674 153.45C231.207 154.872 233.359 156.35 236.14 157.422C237.517 157.994 239.065 158.395 240.709 158.769C242.369 159.099 244.135 159.329 246.014 159.497C253.512 160.23 262.444 161.108 272.383 161.722C274.868 161.873 277.416 161.999 280.02 162.067C282.622 162.133 285.284 162.167 287.978 162.007C288.649 161.947 289.329 161.929 290 161.832C290.68 161.751 291.351 161.696 291.965 161.456C293.22 161.024 294.303 160.133 295.202 159.105C297.011 157.02 298.226 154.417 299.274 151.768C300.005 149.901 300.597 148.004 301.208 146.117L301.456 145.409C301.5 145.29 301.55 145.172 301.607 145.048C301.646 144.98 301.661 144.931 301.722 144.848C301.759 144.803 301.801 144.761 301.843 144.723L301.911 144.67C302.289 144.424 302.564 144.049 302.801 143.66C303.227 142.841 303.414 141.89 303.405 140.957C303.386 140.026 303.215 139.081 302.791 138.279C302.584 137.872 302.297 137.54 301.952 137.267C301.565 137.001 301.187 136.725 300.795 136.471C299.218 135.462 297.557 134.624 295.887 133.88C292.541 132.416 289.166 131.206 285.85 130.455C285.644 130.421 285.433 130.366 285.233 130.349L284.933 130.316C284.844 130.323 284.809 130.314 284.725 130.331C284.375 130.546 283.999 130.722 283.697 130.994C283.062 131.492 282.535 132.121 282.21 132.848C281.546 134.293 281.514 135.971 281.854 137.442L281.928 137.765L281.615 137.695C269.862 135.062 260.116 132.88 253.369 131.369L253.358 131.366L253.347 131.362C250.243 130.052 247.679 129.349 245.939 128.91C245.066 128.693 244.392 128.549 243.938 128.455C243.483 128.364 243.251 128.301 243.251 128.301Z" fill="#263238"/>
<path d="M291.017 146.34C290.994 146.391 290.271 146.141 289.19 145.546C288.111 144.954 286.692 143.981 285.337 142.667C283.982 141.351 282.966 139.964 282.334 138.908C281.701 137.851 281.418 137.141 281.47 137.115C281.604 137.033 282.999 139.755 285.669 142.324C288.313 144.923 291.094 146.203 291.017 146.34Z" fill="#263238"/>
<path d="M91.744 221.775C91.744 221.775 97.4175 222.083 100.939 224.286C104.459 226.49 110.104 229.906 112.436 234.153C113.506 236.103 110.454 236.516 108.948 235.383C107.441 234.251 105.135 232.12 103.99 231.857C102.845 231.595 102.845 231.595 102.845 231.595C102.845 231.595 105.145 236.716 106.332 238.515C107.519 240.314 108.545 243.389 104.993 243.53C104.993 243.53 102.596 246.645 100.178 244.337C100.178 244.337 98.2905 247.162 95.2494 243.244C95.2494 243.244 93.4789 245.485 92.7397 244.631C92.0005 243.778 89.5805 242.412 88.8734 239.613C88.1663 236.813 85.1958 230.004 85.1958 230.004L91.744 221.775Z" fill="#FFBF9D"/>
<path d="M43.4177 147.077C43.4177 147.077 38.9872 148.278 36.2805 152.437C34.0978 155.792 33.4328 161.641 34.0538 165.925C35.3737 175.032 39.5551 190.419 41.9009 200.291C42.7115 203.702 44.3703 209.795 49.2543 213.035L83.9557 233.845L93.2344 220.073L61.5951 194.29L55.3436 158.95L43.4177 147.077Z" fill="#455A64"/>
<path d="M37.4164 181.831C37.4237 181.829 37.4622 181.952 37.529 182.193C37.5986 182.454 37.6939 182.81 37.8148 183.266C38.0621 184.235 38.4184 185.627 38.8746 187.414C39.7832 191.046 41.0912 196.275 42.7116 202.755C43.5396 205.962 45.4393 209.257 48.4235 211.807C49.8845 213.115 51.6963 214.071 53.4962 215.179C55.3034 216.269 57.1655 217.391 59.0772 218.544C66.7236 223.161 75.1615 228.257 84.0766 233.641L83.756 233.712C84.8176 232.137 85.9507 230.453 87.0947 228.756C89.1135 225.76 91.1021 222.81 93.0357 219.941L93.0815 220.256C81.1666 210.447 70.3591 201.551 61.7206 194.438L61.673 194.399L61.6593 194.34C59.5873 185.625 58.0833 178.49 57.1399 173.528C56.6636 171.048 56.3375 169.11 56.1259 167.793C56.0316 167.15 55.9583 166.65 55.9052 166.289C55.8584 165.951 55.8475 165.774 55.8475 165.774C55.8475 165.774 55.8942 165.944 55.9583 166.28C56.0233 166.638 56.114 167.135 56.2303 167.773C56.4749 169.084 56.834 171.015 57.3405 173.488C58.3444 178.434 59.9006 185.554 62.0137 194.252L61.9524 194.154C70.6101 201.244 81.4405 210.112 93.381 219.89L93.5477 220.027L93.4277 220.205C91.495 223.075 89.5083 226.025 87.4904 229.022C86.3464 230.72 85.2124 232.402 84.1508 233.978L84.0244 234.165L83.8302 234.048C74.9243 228.649 66.4937 223.54 58.8555 218.91C56.9475 217.751 55.089 216.623 53.2846 215.527C51.5012 214.42 49.6656 213.442 48.1726 212.096C45.1398 209.482 43.2181 206.107 42.3965 202.837C40.8357 196.339 39.5762 191.098 38.7015 187.455C38.281 185.66 37.9531 184.262 37.7251 183.287C37.6225 182.826 37.5419 182.467 37.4832 182.203C37.4319 181.959 37.409 181.833 37.4164 181.831Z" fill="#263238"/>
<path d="M37.9876 151.98C37.9784 151.952 38.2248 151.836 38.6919 151.684C39.1582 151.529 39.8488 151.351 40.7208 151.225C42.4428 150.989 45.0029 150.949 47.4907 152.141C49.929 153.384 51.5942 155.278 52.5487 156.748C53.0213 157.494 53.3272 158.147 53.472 158.619C53.6258 159.088 53.6588 159.361 53.6332 159.368C53.5507 159.395 53.2787 158.336 52.2693 156.937C51.2764 155.557 49.6048 153.752 47.2809 152.569C44.9278 151.438 42.4547 151.412 40.7602 151.56C39.0418 151.725 38.0105 152.061 37.9876 151.98Z" fill="#263238"/>
</svg>
