<svg width="23" height="30" viewBox="0 0 23 30" fill="none" xmlns="http://www.w3.org/2000/svg">
<path d="M11.4891 0L11.8505 29.8214L20.524 18.5385C22.0239 16.5973 22.9783 14.1321 22.9783 11.4891C22.9783 5.14384 17.8344 0 11.4891 0Z" fill="#E01764"/>
<path d="M21.1497 11.4891C21.1497 5.14384 16.8245 0 11.4891 0C5.14384 0 0 5.14384 0 11.4891C0 14.1321 0.916875 16.5972 2.4168 18.5385L11.1268 29.8222C11.3101 30.0596 11.6678 30.0592 11.8505 29.8214L19.0861 18.5385C20.3473 16.5972 21.1497 14.1321 21.1497 11.4891Z" fill="#E01764"/>
<path d="M11.4891 3.65698V19.3212C15.8147 19.3212 19.3212 15.8147 19.3212 11.4891C19.3212 7.16351 15.8147 3.65698 11.4891 3.65698Z" fill="white"/>
<path d="M17.4927 11.4891C17.4927 7.16351 14.8048 3.65698 11.4891 3.65698C7.16351 3.65698 3.65698 7.16351 3.65698 11.4891C3.65698 15.8147 7.16351 19.3212 11.4891 19.3212C14.8048 19.3212 17.4927 15.8147 17.4927 11.4891Z" fill="white"/>
<path d="M15.8115 10.6226C15.8112 10.6224 15.811 10.6222 15.8108 10.622L11.8773 6.68861C11.7096 6.52087 11.4867 6.42847 11.2496 6.42847C11.0125 6.42847 10.7896 6.5208 10.6218 6.68853L6.69036 10.6199C6.68903 10.6212 6.68771 10.6226 6.68639 10.624C6.34208 10.9703 6.34267 11.5321 6.68808 11.8775C6.84588 12.0354 7.0543 12.1268 7.27715 12.1364C7.28619 12.1373 7.29532 12.1377 7.30451 12.1377H7.46129V15.0325C7.46129 15.6053 7.92735 16.0713 8.50031 16.0713H10.0392C10.1952 16.0713 10.3217 15.9449 10.3217 15.7888V13.5194C10.3217 13.258 10.5343 13.0454 10.7957 13.0454H11.7034C11.9648 13.0454 12.1774 13.258 12.1774 13.5194V15.7888C12.1774 15.9449 12.3039 16.0713 12.4599 16.0713H13.9989C14.5718 16.0713 15.0379 15.6053 15.0379 15.0325V12.1377H15.1833C15.4203 12.1377 15.6432 12.0454 15.811 11.8777C16.1568 11.5317 16.1569 10.9689 15.8115 10.6226Z" fill="#E01764"/>
</svg>
