<svg width="23" height="30" viewBox="0 0 23 30" fill="none" xmlns="http://www.w3.org/2000/svg">
<path d="M11.4891 0L11.8505 29.8214L20.524 18.5385C22.0239 16.5973 22.9783 14.1321 22.9783 11.4891C22.9783 5.14384 17.8344 0 11.4891 0Z" fill="#E01764"/>
<path d="M21.1497 11.4891C21.1497 5.14384 16.8245 0 11.4891 0C5.14384 0 0 5.14384 0 11.4891C0 14.1321 0.916875 16.5972 2.4168 18.5385L11.1268 29.8222C11.3101 30.0596 11.6678 30.0592 11.8505 29.8214L19.0861 18.5385C20.3473 16.5972 21.1497 14.1321 21.1497 11.4891Z" fill="#E01764"/>
<path d="M11.4891 3.65698V19.3212C15.8147 19.3212 19.3212 15.8147 19.3212 11.4891C19.3212 7.16351 15.8147 3.65698 11.4891 3.65698Z" fill="white"/>
<path d="M17.4927 11.4891C17.4927 7.16351 14.8048 3.65698 11.4891 3.65698C7.16351 3.65698 3.65698 7.16351 3.65698 11.4891C3.65698 15.8147 7.16351 19.3212 11.4891 19.3212C14.8048 19.3212 17.4927 15.8147 17.4927 11.4891Z" fill="white"/>
<g clip-path="url(#clip0_789_3007)">
<path d="M14.3972 9.11741L10.996 7L9.60986 7.86298L13.0208 9.98959L14.3972 9.11741Z" fill="#E01764"/>
<path d="M7.35938 9.56445V13.7703L10.7616 16V11.7293L7.35938 9.56445Z" fill="#E01764"/>
<path d="M14.6328 9.57373L11.2306 11.7297V16L14.6328 13.7703V9.57373Z" fill="#E01764"/>
<path d="M12.541 10.2936L9.12573 8.16431L7.60217 9.11277L10.9963 11.2724L12.541 10.2936Z" fill="#E01764"/>
</g>
<defs>
<clipPath id="clip0_789_3007">
<rect width="8" height="9" fill="white" transform="translate(7 7)"/>
</clipPath>
</defs>
</svg>
