<svg width="155" height="155" viewBox="0 0 155 155" fill="none" xmlns="http://www.w3.org/2000/svg">
<path d="M0 10C0 4.47715 4.47715 0 10 0H145C150.523 0 155 4.47715 155 10V145C155 150.523 150.523 155 145 155H10C4.47715 155 0 150.523 0 145V10Z" fill="#D9D9D9"/>
<path d="M62.333 96.584C73.1487 96.584 81.9165 87.8162 81.9165 77.0005C81.9165 66.1848 73.1487 57.417 62.333 57.417C51.5173 57.417 42.7495 66.1848 42.7495 77.0005C42.7495 87.8162 51.5173 96.584 62.333 96.584Z" fill="#A4A4A4"/>
<path d="M62.333 37.8341C40.7912 37.8341 23.166 55.4593 23.166 77.0011C23.166 98.543 40.7912 116.168 62.333 116.168C83.8749 116.168 101.5 98.543 101.5 77.0011C101.5 55.4593 83.8749 37.8341 62.333 37.8341ZM62.333 104.418C47.0579 104.418 34.9161 92.2763 34.9161 77.0011C34.9161 61.726 47.0579 49.5842 62.333 49.5842C77.6082 49.5842 89.7499 61.726 89.7499 77.0011C89.7499 92.2763 77.6082 104.418 62.333 104.418Z" fill="#A4A4A4"/>
<path d="M132.834 55.4586V33.9167C132.834 31.5667 131.267 30 128.917 30C126.567 30 125 31.5667 125 33.9167V55.4586C125 56.2419 125 57.0252 125 57.4169H121.083V33.9167C121.083 31.5667 119.517 30 117.167 30C114.817 30 113.25 31.5667 113.25 33.9167V57.4169H109.333C109.333 56.6336 109.333 55.8502 109.333 55.4586V33.9167C109.333 31.5667 107.767 30 105.417 30C103.067 30 101.5 31.5667 101.5 33.9167V55.4586C101.5 62.9003 103.458 68.7753 106.983 72.3004C109.725 75.4337 110.9 79.3504 110.508 82.8755L106.592 111.467C106.2 114.601 106.983 117.734 108.942 120.084C110.9 122.434 114.033 124.001 117.167 124.001C120.3 124.001 123.042 122.826 125.392 120.476C127.742 118.126 128.525 114.992 127.742 111.859L123.825 83.2671C123.434 79.3504 124.609 75.4337 127.35 72.3004C130.875 68.3837 132.834 62.5086 132.834 55.4586Z" fill="#A4A4A4"/>
</svg>
