<svg width="32" height="32" viewBox="0 0 32 32" fill="none" xmlns="http://www.w3.org/2000/svg">
<circle cx="16" cy="16" r="16" fill="white"/>
<path d="M15.9996 11.9941C13.7828 11.9941 11.9937 13.7832 11.9937 16C11.9937 18.2168 13.7828 20.0058 15.9996 20.0058C18.2164 20.0058 20.0055 18.2168 20.0055 16C20.0055 13.7832 18.2164 11.9941 15.9996 11.9941ZM15.9996 18.6035C14.566 18.6035 13.3961 17.4336 13.3961 16C13.3961 14.5664 14.566 13.3965 15.9996 13.3965C17.4332 13.3965 18.6031 14.5664 18.6031 16C18.6031 17.4336 17.4332 18.6035 15.9996 18.6035ZM20.1695 10.8965C19.6519 10.8965 19.234 11.3144 19.234 11.832C19.234 12.3496 19.6519 12.7675 20.1695 12.7675C20.6871 12.7675 21.1051 12.3515 21.1051 11.832C21.1052 11.7091 21.0811 11.5874 21.0342 11.4738C20.9872 11.3602 20.9183 11.257 20.8314 11.1701C20.7445 11.0832 20.6413 11.0143 20.5277 10.9674C20.4142 10.9204 20.2924 10.8963 20.1695 10.8965ZM23.8082 16C23.8082 14.9218 23.818 13.8535 23.7574 12.7773C23.6969 11.5273 23.4117 10.4179 22.4977 9.50388C21.5816 8.58786 20.4742 8.30466 19.2242 8.24411C18.1461 8.18356 17.0777 8.19333 16.0016 8.19333C14.9234 8.19333 13.8551 8.18356 12.7789 8.24411C11.5289 8.30466 10.4195 8.58981 9.50546 9.50388C8.58945 10.4199 8.30624 11.5273 8.2457 12.7773C8.18515 13.8554 8.19492 14.9238 8.19492 16C8.19492 17.0761 8.18515 18.1465 8.2457 19.2226C8.30624 20.4726 8.5914 21.582 9.50546 22.4961C10.4215 23.4121 11.5289 23.6953 12.7789 23.7558C13.857 23.8164 14.9254 23.8066 16.0016 23.8066C17.0797 23.8066 18.148 23.8164 19.2242 23.7558C20.4742 23.6953 21.5836 23.4101 22.4977 22.4961C23.4137 21.58 23.6969 20.4726 23.7574 19.2226C23.8199 18.1465 23.8082 17.0781 23.8082 16ZM22.0894 20.6054C21.9469 20.9609 21.775 21.2265 21.4996 21.5C21.2242 21.7754 20.9605 21.9472 20.6051 22.0898C19.5777 22.498 17.1383 22.4062 15.9996 22.4062C14.8609 22.4062 12.4195 22.498 11.3922 22.0918C11.0367 21.9492 10.7711 21.7773 10.4977 21.5019C10.2223 21.2265 10.0504 20.9629 9.90781 20.6074C9.50156 19.5781 9.59335 17.1386 9.59335 16C9.59335 14.8613 9.50156 12.4199 9.90781 11.3925C10.0504 11.0371 10.2223 10.7715 10.4977 10.498C10.773 10.2246 11.0367 10.0508 11.3922 9.90817C12.4195 9.50192 14.8609 9.59372 15.9996 9.59372C17.1383 9.59372 19.5797 9.50192 20.607 9.90817C20.9625 10.0508 21.2281 10.2226 21.5016 10.498C21.7769 10.7734 21.9488 11.0371 22.0914 11.3925C22.4977 12.4199 22.4059 14.8613 22.4059 16C22.4059 17.1386 22.4977 19.5781 22.0894 20.6054Z" fill="#FF006B"/>
</svg>
