<svg width="32" height="32" viewBox="0 0 32 32" fill="none" xmlns="http://www.w3.org/2000/svg">
<g clip-path="url(#clip0_116_734)">
<circle cx="16" cy="16" r="15" fill="#FF006B"/>
<path d="M15.9996 0.640015C7.51645 0.640015 0.639648 7.51682 0.639648 16C0.639648 24.4832 7.51645 31.36 15.9996 31.36C24.4828 31.36 31.3596 24.4832 31.3596 16C31.3596 7.51682 24.4828 0.640015 15.9996 0.640015ZM12.2396 22.3664H9.12925V12.3568H12.2396V22.3664ZM10.6652 11.128C9.68285 11.128 9.04765 10.432 9.04765 9.57121C9.04765 8.69281 9.70205 8.01761 10.7052 8.01761C11.7084 8.01761 12.3228 8.69281 12.342 9.57121C12.342 10.432 11.7084 11.128 10.6652 11.128ZM23.5996 22.3664H20.4892V16.8192C20.4892 15.528 20.038 14.6512 18.9132 14.6512C18.054 14.6512 17.5436 15.2448 17.3181 15.816C17.2348 16.0192 17.214 16.3072 17.214 16.5936V22.3648H14.102V15.5488C14.102 14.2992 14.062 13.2544 14.0204 12.3552H16.7228L16.8652 13.7456H16.9276C17.3372 13.0928 18.3405 12.1296 20.0189 12.1296C22.0653 12.1296 23.5996 13.5008 23.5996 16.448V22.3664Z" fill="white"/>
</g>
<defs>
<clipPath id="clip0_116_734">
<rect width="32" height="32" fill="white"/>
</clipPath>
</defs>
</svg>
