<svg width="20" height="29" viewBox="0 0 20 29" fill="none" xmlns="http://www.w3.org/2000/svg">
<path d="M10 24.9258C9.63793 24.9236 9.28032 24.8456 8.95013 24.6971C8.61994 24.5485 8.32445 24.3325 8.08263 24.063C5.06277 20.7172 0.000904703 14.4762 0.000904703 10.2963C-0.034973 7.60598 0.997519 5.01125 2.87196 3.08109C4.74641 1.15094 7.3098 0.042911 10 0C12.6902 0.042911 15.2536 1.15094 17.128 3.08109C19.0025 5.01125 20.035 7.60598 19.9991 10.2963C19.9991 14.4666 14.9372 20.7172 11.9174 24.063C11.6755 24.3325 11.3801 24.5485 11.0499 24.6971C10.7197 24.8456 10.3621 24.9236 10 24.9258ZM10 1.91737C7.8183 1.96021 5.74257 2.8662 4.22768 4.43679C2.7128 6.00738 1.88233 8.11447 1.91828 10.2963C1.91828 12.8368 4.79433 17.5056 9.51107 22.7592C9.57286 22.8242 9.64722 22.8759 9.72962 22.9113C9.81202 22.9466 9.90075 22.9648 9.99041 22.9648C10.0801 22.9648 10.1688 22.9466 10.2512 22.9113C10.3336 22.8759 10.408 22.8242 10.4698 22.7592C15.2632 17.4768 18.0625 12.808 18.0625 10.2963C18.0985 8.11772 17.2707 6.01348 15.7599 4.44344C14.2492 2.87339 12.1783 1.96521 10 1.91737Z" fill="#00A082"/>
<path d="M9.99991 15.0604C8.99646 15.0604 8.01557 14.7627 7.18137 14.205C6.34717 13.6473 5.69715 12.8547 5.31359 11.9275C4.93003 11.0002 4.83016 9.98004 5.02662 8.99601C5.22308 8.01198 5.70704 7.10836 6.41726 6.39948C7.12747 5.69061 8.03201 5.20836 9.01641 5.01376C10.0008 4.81916 11.0208 4.92096 11.9473 5.30628C12.8738 5.6916 13.6652 6.34311 14.2213 7.17836C14.7774 8.01362 15.0733 8.99507 15.0714 9.99852C15.0663 11.3411 14.5301 12.6271 13.5798 13.5756C12.6295 14.524 11.3425 15.0579 9.99991 15.0604ZM9.99991 6.84444C9.37609 6.84444 8.76628 7.02942 8.2476 7.376C7.72891 7.72257 7.32465 8.21517 7.08592 8.79151C6.8472 9.36784 6.78474 10.002 6.90644 10.6138C7.02814 11.2257 7.32853 11.7877 7.76964 12.2288C8.21075 12.6699 8.77275 12.9703 9.38458 13.092C9.99641 13.2137 10.6306 13.1512 11.2069 12.9125C11.7833 12.6738 12.2759 12.2695 12.6224 11.7508C12.969 11.2321 13.154 10.6223 13.154 9.99852C13.1515 9.16278 12.8183 8.362 12.2274 7.77104C11.6364 7.18009 10.8356 6.84697 9.99991 6.84444Z" fill="#00A082"/>
<path d="M13.8347 28.7609H6.16526C4.89396 28.7609 3.67473 28.2559 2.77579 27.3569C1.87685 26.458 1.37183 25.2388 1.37183 23.9675C1.37183 23.7132 1.47283 23.4694 1.65262 23.2896C1.83241 23.1098 2.07625 23.0088 2.33051 23.0088C2.58477 23.0088 2.82862 23.1098 3.00841 23.2896C3.18819 23.4694 3.2892 23.7132 3.2892 23.9675C3.2892 24.7303 3.59221 25.4618 4.13158 26.0012C4.67094 26.5405 5.40248 26.8435 6.16526 26.8435H13.8347C14.5975 26.8435 15.3291 26.5405 15.8684 26.0012C16.4078 25.4618 16.7108 24.7303 16.7108 23.9675C16.7108 23.7132 16.8118 23.4694 16.9916 23.2896C17.1714 23.1098 17.4152 23.0088 17.6695 23.0088C17.9237 23.0088 18.1676 23.1098 18.3474 23.2896C18.5272 23.4694 18.6282 23.7132 18.6282 23.9675C18.6282 25.2388 18.1232 26.458 17.2242 27.3569C16.3253 28.2559 15.106 28.7609 13.8347 28.7609Z" fill="#00A082"/>
</svg>
