<svg width="8" height="12" viewBox="0 0 8 12" fill="none" xmlns="http://www.w3.org/2000/svg">
<path d="M3.8477 9.59071C3.70838 9.58984 3.57079 9.55985 3.44374 9.50268C3.31669 9.44551 3.203 9.36241 3.10995 9.25872C1.948 7.97136 0.000348102 5.56999 0.000348102 3.9617C-0.0134566 2.92655 0.383815 1.92818 1.10504 1.18551C1.82627 0.442845 2.81259 0.0165109 3.8477 0C4.88281 0.0165109 5.86912 0.442845 6.59035 1.18551C7.31158 1.92818 7.70885 2.92655 7.69505 3.9617C7.69505 5.5663 5.7474 7.97136 4.58544 9.25872C4.4924 9.36241 4.3787 9.44551 4.25166 9.50268C4.12461 9.55985 3.98701 9.58984 3.8477 9.59071ZM3.8477 0.737747C3.00825 0.75423 2.20957 1.10283 1.62669 1.70714C1.0438 2.31146 0.724265 3.1222 0.738095 3.9617C0.738095 4.93922 1.84472 6.73563 3.65957 8.75706C3.68335 8.78206 3.71196 8.80196 3.74366 8.81556C3.77537 8.82916 3.80951 8.83618 3.84401 8.83618C3.87851 8.83618 3.91265 8.82916 3.94436 8.81556C3.97606 8.80196 4.00467 8.78206 4.02845 8.75706C5.87281 6.72456 6.94992 4.92815 6.94992 3.9617C6.96377 3.12345 6.64524 2.31381 6.06395 1.7097C5.48265 1.10559 4.68586 0.756154 3.8477 0.737747Z" fill="#101820"/>
<path d="M3.84758 5.79477C3.46148 5.79477 3.08406 5.68023 2.76309 5.46565C2.44211 5.25107 2.19201 4.9461 2.04442 4.58932C1.89684 4.23255 1.85841 3.84001 1.93401 3.46138C2.0096 3.08276 2.19581 2.73507 2.46908 2.46232C2.74235 2.18957 3.09039 2.00401 3.46916 1.92914C3.84792 1.85426 4.24039 1.89343 4.59688 2.04169C4.95338 2.18995 5.25788 2.44063 5.47185 2.76201C5.68583 3.08339 5.79965 3.46103 5.79892 3.84712C5.79697 4.36371 5.59064 4.85853 5.22501 5.22347C4.85938 5.58841 4.36417 5.7938 3.84758 5.79477ZM3.84758 2.63353C3.60755 2.63353 3.37292 2.7047 3.17334 2.83805C2.97377 2.97141 2.81822 3.16094 2.72636 3.3827C2.63451 3.60445 2.61048 3.84847 2.6573 4.08388C2.70413 4.31929 2.81971 4.53554 2.98944 4.70526C3.15916 4.87498 3.3754 4.99057 3.61082 5.03739C3.84623 5.08422 4.09025 5.06019 4.312 4.96833C4.53376 4.87648 4.72329 4.72093 4.85664 4.52136C4.99 4.32178 5.06117 4.08715 5.06117 3.84712C5.0602 3.52555 4.93203 3.21744 4.70464 2.99005C4.47726 2.76267 4.16914 2.6345 3.84758 2.63353Z" fill="#101820"/>
<path d="M5.32319 11.0663H2.3722C1.88304 11.0663 1.41392 10.872 1.06803 10.5261C0.722149 10.1802 0.527832 9.71106 0.527832 9.2219C0.527832 9.12407 0.566695 9.03024 0.635873 8.96107C0.70505 8.89189 0.798874 8.85303 0.896705 8.85303C0.994537 8.85303 1.08836 8.89189 1.15754 8.96107C1.22672 9.03024 1.26558 9.12407 1.26558 9.2219C1.26558 9.51539 1.38217 9.79687 1.5897 10.0044C1.79723 10.2119 2.07871 10.3285 2.3722 10.3285H5.32319C5.61668 10.3285 5.89815 10.2119 6.10569 10.0044C6.31322 9.79687 6.42981 9.51539 6.42981 9.2219C6.42981 9.12407 6.46867 9.03024 6.53785 8.96107C6.60702 8.89189 6.70085 8.85303 6.79868 8.85303C6.89651 8.85303 6.99034 8.89189 7.05951 8.96107C7.12869 9.03024 7.16755 9.12407 7.16755 9.2219C7.16755 9.71106 6.97324 10.1802 6.62735 10.5261C6.28147 10.872 5.81234 11.0663 5.32319 11.0663Z" fill="#101820"/>
</svg>
