<svg width="7" height="10" viewBox="0 0 7 10" fill="none" xmlns="http://www.w3.org/2000/svg">
<path d="M3.5 0.666504C1.56975 0.666504 0 2.23625 0 4.1665C0 6.59259 3.15933 9.77992 3.2935 9.91467C3.35067 9.97125 3.42533 9.99984 3.5 9.99984C3.57467 9.99984 3.64933 9.97125 3.7065 9.91467C3.84067 9.77992 7 6.59259 7 4.1665C7 2.23625 5.43025 0.666504 3.5 0.666504ZM3.5 9.28642C2.8035 8.54092 0.583333 6.01975 0.583333 4.1665C0.583333 2.55825 1.89175 1.24984 3.5 1.24984C5.10825 1.24984 6.41667 2.55825 6.41667 4.1665C6.41667 6.018 4.1965 8.54092 3.5 9.28642Z" fill="#282828"/>
<path d="M3.5 2.4165C2.53517 2.4165 1.75 3.20167 1.75 4.1665C1.75 5.13134 2.53517 5.9165 3.5 5.9165C4.46483 5.9165 5.25 5.13134 5.25 4.1665C5.25 3.20167 4.46483 2.4165 3.5 2.4165ZM3.5 5.33317C2.85658 5.33317 2.33333 4.80992 2.33333 4.1665C2.33333 3.52309 2.85658 2.99984 3.5 2.99984C4.14342 2.99984 4.66667 3.52309 4.66667 4.1665C4.66667 4.80992 4.14342 5.33317 3.5 5.33317Z" fill="#282828"/>
</svg>
