<svg width="154" height="154" viewBox="0 0 154 154" fill="none" xmlns="http://www.w3.org/2000/svg">
<rect width="154" height="154" rx="10" fill="#D9D9D9"/>
<path d="M37.0266 65.5303C27.0387 55.5324 27.0387 39.7665 37.0266 29.7686L79.6675 72.4519L93.8811 86.6797L115.778 108.598C119.619 112.444 119.619 118.212 115.778 122.057C111.936 125.902 105.022 125.902 101.564 121.288L85.814 101.677C81.9724 96.6776 75.0577 95.1395 68.9113 97.4467L37.0266 65.5303Z" stroke="#BFBFBF" stroke-width="5" stroke-miterlimit="10" stroke-linecap="round" stroke-linejoin="round"/>
<path d="M93.8843 60.1536L114.629 39.3887" stroke="#BFBFBF" stroke-width="5" stroke-miterlimit="10" stroke-linecap="round" stroke-linejoin="round"/>
<path d="M85.4375 78.2222C86.9741 77.8377 88.1266 77.8377 89.6632 77.4531C94.6572 77.0686 100.419 74.3768 106.182 68.6088L125.005 49.7666" stroke="#BFBFBF" stroke-width="5" stroke-miterlimit="10" stroke-linecap="round" stroke-linejoin="round"/>
<path d="M59.312 87.8311L32.4214 109.75C28.1957 112.826 27.8115 118.978 31.653 122.439C35.4946 126.285 41.2569 125.515 44.3301 121.67L66.2268 94.3682" stroke="#BFBFBF" stroke-width="5" stroke-miterlimit="10" stroke-linecap="round" stroke-linejoin="round"/>
<path d="M104.254 29L85.0467 47.8422C79.2844 53.6102 76.2112 59.3783 76.2112 64.3772C76.2112 65.9154 75.827 67.069 75.4429 68.6071" stroke="#BFBFBF" stroke-width="5" stroke-miterlimit="10" stroke-linecap="round" stroke-linejoin="round"/>
</svg>
