<svg width="10" height="10" viewBox="0 0 10 10" fill="none" xmlns="http://www.w3.org/2000/svg">
<path d="M9.96226 3.75712C9.87834 3.50569 9.66621 3.32534 9.40908 3.28605L6.79884 2.89498L5.6239 0.400712C5.50712 0.153571 5.2682 0 5 0C4.7318 0 4.49288 0.153571 4.3761 0.400712L3.2183 2.88605L0.590924 3.28605C0.333793 3.32534 0.122018 3.50569 0.0377361 3.75712C-0.0483312 4.01533 0.0152371 4.29533 0.2038 4.48783L2.10407 6.43282L1.65516 9.17423C1.61052 9.44816 1.72123 9.71637 1.94479 9.87387C2.15978 10.0264 2.43619 10.0414 2.66618 9.91458L4.98357 8.62031L7.33382 9.91458C7.56452 10.0414 7.84022 10.0257 8.05521 9.87387C8.27877 9.71637 8.38984 9.44816 8.34484 9.17423L7.89522 6.42925L9.7962 4.48783C9.98476 4.29533 10.0483 4.01533 9.96226 3.75712Z" fill="#FFBD00"/>
</svg>
