<svg width="28" height="37" viewBox="0 0 28 37" fill="none" xmlns="http://www.w3.org/2000/svg">
<g filter="url(#filter0_d_1024_19069)">
<path fill-rule="evenodd" clip-rule="evenodd" d="M14.6286 28.3417C14.5779 28.4135 14.5152 28.4762 14.4434 28.5269C14.0962 28.7718 13.6162 28.6889 13.3714 28.3417V28.3417C11.4528 25.6219 10.0957 23.6344 9.29996 22.3794C5.76665 16.8069 4 12.6805 4 10C4 4.47715 8.47715 0 14 0C19.5228 0 24 4.47715 24 10C24 12.6758 22.2395 16.7925 18.7186 22.3501C17.9201 23.6105 16.5568 25.6077 14.6286 28.3417ZM14 15.3846C17.3987 15.3846 20.1538 12.6294 20.1538 9.23077C20.1538 5.83209 17.3987 3.07692 14 3.07692C10.6013 3.07692 7.84615 5.83209 7.84615 9.23077C7.84615 12.6294 10.6013 15.3846 14 15.3846Z" fill="#00A082"/>
<circle cx="14" cy="10" r="9" fill="white"/>
<path d="M7.17168 11.9541C7.14597 12.0633 7.13232 12.177 7.13232 12.294C7.13232 13.1103 7.79392 13.772 8.61024 13.772C9.39511 13.772 10.0372 13.1601 10.0853 12.3873L9.5863 12.3133C9.57614 12.8429 9.14206 13.2705 8.61024 13.2705C8.07191 13.2705 7.63385 12.8325 7.63385 12.294C7.63385 12.2018 7.6467 12.1128 7.6705 12.0282L7.17168 11.9541Z" fill="#00A082"/>
<path d="M17.3857 11.9132C17.3125 11.8662 17.2255 11.8389 17.132 11.8389C16.999 11.8389 16.8788 11.8942 16.7933 11.9831C16.7403 12.0381 16.7007 12.1061 16.6795 12.1817C16.6682 12.2221 16.6621 12.2647 16.6621 12.3087C16.6621 12.5682 16.8725 12.7786 17.132 12.7786C17.3915 12.7786 17.6018 12.5682 17.6018 12.3087C17.6018 12.2647 17.5958 12.2221 17.5845 12.1817C17.5531 12.0697 17.4812 11.9746 17.3857 11.9132Z" fill="#00A082"/>
<path d="M9.07826 12.3081C9.07826 12.2838 9.07636 12.2598 9.07286 12.2365L8.18501 12.1045C8.17311 12.1289 8.16344 12.1545 8.15597 12.1811C8.14471 12.2216 8.13867 12.2641 8.13867 12.3081C8.13867 12.5676 8.3489 12.778 8.60846 12.778C8.86803 12.778 9.07826 12.5676 9.07826 12.3081Z" fill="#00A082"/>
<path d="M18.0711 9.82322C18.0781 9.2281 17.9527 8.72404 17.5229 8.6693C16.4194 8.52889 14.3529 8.4286 14.4533 9.15082C14.5536 9.87304 15.4364 10.6957 15.2157 11.0898C14.995 11.4837 11.8452 11.458 11.3636 11.1772C10.8821 10.8964 10.3003 8.88998 10.7417 7.64578C10.8952 7.21253 10.9417 6.83331 10.9373 6.52256H11.414C11.4618 6.57777 11.5322 6.61284 11.611 6.61284H12.5072C12.6512 6.61284 12.768 6.49607 12.768 6.35204C12.768 6.20798 12.6512 6.09121 12.5072 6.09121H11.611C11.5322 6.09121 11.4618 6.12629 11.414 6.18149H10.8989C10.8569 6.0384 10.7768 5.91241 10.6704 5.81455C10.6351 5.78203 10.597 5.75268 10.5562 5.72681C10.4789 5.30384 10.2119 5 9.88555 5C9.49685 5 9.19239 5.43092 9.19239 5.98084C9.19239 6.45158 9.41529 6.8349 9.72325 6.93563C9.56426 7.14396 9.35374 7.3783 9.07639 7.63978C8.10063 8.55936 7.94324 9.68949 7.95309 10.3704C7.50906 10.555 7.15545 10.9302 7.00936 11.4092C6.97123 11.5342 7.0536 11.6639 7.18284 11.6831L7.25896 11.6944L7.78508 11.7726L8.06684 11.8145L8.72846 11.9129L9.55158 12.0354L10.0772 12.1134L10.1535 12.1248C10.282 12.1439 10.3992 12.0452 10.3991 11.9153C10.3991 11.9145 10.3991 11.9137 10.3991 11.9129H15.7224C15.6872 12.0387 15.6683 12.1713 15.6683 12.3084C15.6683 13.1168 16.3236 13.7721 17.132 13.7721C17.9402 13.7721 18.5954 13.1168 18.5954 12.3084C18.5954 12.1713 18.5765 12.0387 18.5413 11.9129H18.5605C18.7247 11.9129 18.8716 11.8087 18.924 11.6528C18.9733 11.5062 19 11.3493 19 11.1861C19 10.5665 18.6149 10.0368 18.0711 9.82322ZM9.99771 6.51472C9.96138 6.54724 9.92282 6.565 9.88553 6.565C9.7456 6.565 9.58901 6.31511 9.58901 5.98082C9.58901 5.64653 9.7456 5.39662 9.88553 5.39662C10.0234 5.39662 10.1776 5.63954 10.1819 5.9667C10.1821 5.9713 10.1821 5.97606 10.1821 5.98082C10.1821 6.22595 10.0978 6.42571 9.99771 6.51472ZM17.132 13.274C16.5995 13.274 16.1664 12.8409 16.1664 12.3085C16.1664 12.1677 16.1967 12.0338 16.2511 11.9129H16.266C16.2633 11.9082 16.2605 11.9032 16.2578 11.8985C16.4123 11.5705 16.7461 11.343 17.132 11.343C17.3922 11.343 17.6286 11.4463 17.8023 11.6143C17.89 11.6991 17.9618 11.8003 18.0125 11.9129C18.0671 12.0338 18.0974 12.1677 18.0974 12.3085C18.0974 12.8409 17.6643 13.274 17.132 13.274Z" fill="#00A082"/>
<rect x="17" y="6" width="3" height="3" rx="0.5" fill="#00A082"/>
<path d="M12.1489 11.0666C12.4394 11.0958 12.817 11.1165 13.2668 11.1165C14.2291 11.1165 14.8252 11.0174 14.9816 10.9392C14.9808 10.9143 14.9724 10.8609 14.9302 10.7629C14.875 10.6353 14.7854 10.484 14.6892 10.3232C14.1253 10.741 13.2507 10.6469 12.7683 10.6796C12.415 10.7035 12.2378 10.8884 12.1489 11.0666Z" fill="#00A082"/>
<path d="M17.6593 8.42192L17.4599 8.1503C17.332 7.97624 17.1346 7.86709 16.9193 7.85122C16.5585 7.82458 15.9811 7.80316 15.5187 7.88359C15.0976 7.95689 14.8983 8.22551 14.8052 8.4397C15.1039 8.3464 15.5131 8.30056 16.0387 8.30056C16.6629 8.30056 17.258 8.36449 17.5573 8.40257C17.5909 8.40685 17.625 8.4132 17.6593 8.42192Z" fill="#00A082"/>
</g>
<defs>
<filter id="filter0_d_1024_19069" x="0" y="0" width="28" height="36.668" filterUnits="userSpaceOnUse" color-interpolation-filters="sRGB">
<feFlood flood-opacity="0" result="BackgroundImageFix"/>
<feColorMatrix in="SourceAlpha" type="matrix" values="0 0 0 0 0 0 0 0 0 0 0 0 0 0 0 0 0 0 127 0" result="hardAlpha"/>
<feOffset dy="4"/>
<feGaussianBlur stdDeviation="2"/>
<feComposite in2="hardAlpha" operator="out"/>
<feColorMatrix type="matrix" values="0 0 0 0 0 0 0 0 0 0 0 0 0 0 0 0 0 0 0.25 0"/>
<feBlend mode="normal" in2="BackgroundImageFix" result="effect1_dropShadow_1024_19069"/>
<feBlend mode="normal" in="SourceGraphic" in2="effect1_dropShadow_1024_19069" result="shape"/>
</filter>
</defs>
</svg>
