<svg width="11" height="12" viewBox="0 0 11 12" fill="none" xmlns="http://www.w3.org/2000/svg">
<path d="M10.7315 9.93535L8.40455 7.60837C8.88534 6.88373 9.16676 6.0161 9.16676 5.08338C9.16676 2.5561 7.11066 0.5 4.58338 0.5C2.0561 0.5 0 2.5561 0 5.08338C0 7.61066 2.0561 9.66676 4.58338 9.66676C5.5161 9.66676 6.38373 9.38534 7.10837 8.90455L9.43535 11.2315C9.79285 11.5895 10.374 11.5895 10.7315 11.2315C11.0895 10.8736 11.0895 10.2933 10.7315 9.93535ZM1.37501 5.08338C1.37501 3.3142 2.8142 1.87501 4.58338 1.87501C6.35257 1.87501 7.79175 3.3142 7.79175 5.08338C7.79175 6.85257 6.35257 8.29175 4.58338 8.29175C2.8142 8.29175 1.37501 6.85257 1.37501 5.08338Z" fill="#9C9C9C"/>
</svg>
