<svg width="10" height="11" viewBox="0 0 10 11" fill="none" xmlns="http://www.w3.org/2000/svg">
<path d="M9.96226 4.25712C9.87834 4.00569 9.66621 3.82534 9.40908 3.78605L6.79884 3.39498L5.6239 0.900712C5.50712 0.653571 5.2682 0.5 5 0.5C4.7318 0.5 4.49288 0.653571 4.3761 0.900712L3.2183 3.38605L0.590924 3.78605C0.333793 3.82534 0.122018 4.00569 0.0377361 4.25712C-0.0483312 4.51533 0.0152371 4.79533 0.2038 4.98783L2.10407 6.93282L1.65516 9.67423C1.61052 9.94816 1.72123 10.2164 1.94479 10.3739C2.15978 10.5264 2.43619 10.5414 2.66618 10.4146L4.98357 9.12031L7.33382 10.4146C7.56452 10.5414 7.84022 10.5257 8.05521 10.3739C8.27877 10.2164 8.38984 9.94816 8.34484 9.67423L7.89522 6.92925L9.7962 4.98783C9.98476 4.79533 10.0483 4.51533 9.96226 4.25712Z" fill="white"/>
</svg>
