<svg width="35" height="37" viewBox="0 0 35 37" fill="none" xmlns="http://www.w3.org/2000/svg">
<path d="M34.8616 19.7895C34.8616 29.273 27.1742 36.9605 17.6906 36.9605C8.20736 36.9605 0.519531 29.273 0.519531 19.7895C0.519531 10.3062 8.20736 2.61841 17.6906 2.61841C27.1742 2.61841 34.8616 10.3062 34.8616 19.7895Z" fill="#27AE60"/>
<path d="M34.8616 18.0724C34.8616 27.556 27.1742 35.2435 17.6906 35.2435C8.20736 35.2435 0.519531 27.556 0.519531 18.0724C0.519531 8.58919 8.20736 0.901367 17.6906 0.901367C27.1742 0.901367 34.8616 8.58919 34.8616 18.0724Z" fill="#2ECC71"/>
<path d="M24.5592 12.9211L14.2566 23.2238L9.96379 18.931L6.31494 22.5369L10.6077 26.8297L14.0419 30.2639L14.2566 30.4355L28.208 16.527L24.5592 12.9211Z" fill="#27AE60"/>
<path d="M24.5592 11.2041L14.2566 21.5067L9.96379 17.214L6.31494 20.8198L10.6077 25.1126L14.0419 28.5468L14.2566 28.7185L28.208 14.81L24.5592 11.2041Z" fill="#ECF0F1"/>
</svg>
