<svg width="12" height="9" viewBox="0 0 12 9" fill="none" xmlns="http://www.w3.org/2000/svg">
<path fill-rule="evenodd" clip-rule="evenodd" d="M4.09222 1.70331C4.74947 1.12371 5.61245 0.771429 6.55719 0.771429C8.61485 0.771429 10.2858 2.44234 10.2858 4.5C10.2858 6.55766 8.61485 8.22857 6.55719 8.22857C5.61245 8.22857 4.74947 7.87629 4.09222 7.29669C3.93279 7.15577 3.6885 7.17069 3.54759 7.33063C3.40667 7.49006 3.4221 7.73383 3.58153 7.87474C4.37507 8.5752 5.41702 9 6.55719 9C9.04067 9 11.0572 6.98349 11.0572 4.5C11.0572 2.01651 9.04067 0 6.55719 0C5.41702 0 4.37507 0.4248 3.58153 1.12526C3.4221 1.26617 3.40667 1.50994 3.54759 1.66937C3.6885 1.82931 3.93279 1.84423 4.09222 1.70331Z" fill="#282828"/>
<path fill-rule="evenodd" clip-rule="evenodd" d="M5.96582 2.23728V4.29442C5.96582 4.39676 6.00645 4.49499 6.07896 4.56699L7.72468 6.2127C7.87485 6.36339 8.11965 6.36339 8.26982 6.2127C8.42051 6.06253 8.42051 5.81773 8.26982 5.66756L6.73725 4.13448V2.23728C6.73725 2.02436 6.56445 1.85156 6.35153 1.85156C6.13862 1.85156 5.96582 2.02436 5.96582 2.23728Z" fill="#282828"/>
<path fill-rule="evenodd" clip-rule="evenodd" d="M0.385714 3.08588H3.47143C3.68434 3.08588 3.85714 2.91308 3.85714 2.70017C3.85714 2.48725 3.68434 2.31445 3.47143 2.31445H0.385714C0.1728 2.31445 0 2.48725 0 2.70017C0 2.91308 0.1728 3.08588 0.385714 3.08588Z" fill="#282828"/>
<path fill-rule="evenodd" clip-rule="evenodd" d="M0.899874 4.88569H3.98559C4.1985 4.88569 4.3713 4.71289 4.3713 4.49997C4.3713 4.28706 4.1985 4.11426 3.98559 4.11426H0.899874C0.68696 4.11426 0.51416 4.28706 0.51416 4.49997C0.51416 4.71289 0.68696 4.88569 0.899874 4.88569Z" fill="#282828"/>
<path fill-rule="evenodd" clip-rule="evenodd" d="M1.41452 6.68574H4.50024C4.71315 6.68574 4.88595 6.51294 4.88595 6.30002C4.88595 6.08711 4.71315 5.91431 4.50024 5.91431H1.41452C1.20161 5.91431 1.02881 6.08711 1.02881 6.30002C1.02881 6.51294 1.20161 6.68574 1.41452 6.68574Z" fill="#282828"/>
</svg>
