<svg width="16" height="11" viewBox="0 0 16 11" fill="none" xmlns="http://www.w3.org/2000/svg">
<path d="M11.7891 3.63823C11.8616 3.68013 11.9405 3.70001 12.0185 3.70001C12.1769 3.70001 12.331 3.61774 12.4161 3.47064C12.4577 3.39877 12.4775 3.32017 12.4778 3.24249C12.4782 3.08377 12.3959 2.92902 12.2485 2.844C12.0292 2.71708 11.7488 2.79201 11.6218 3.01129C11.5802 3.08346 11.5604 3.16206 11.5601 3.23943C11.5598 3.39846 11.642 3.55291 11.7891 3.63823Z" fill="black"/>
<path d="M7.67474 6.97534C7.52855 7.06066 7.4472 7.21449 7.44751 7.3723C7.44751 7.45059 7.4677 7.53011 7.51021 7.60289C7.59553 7.74877 7.74906 7.83012 7.90656 7.83012C7.98515 7.83012 8.06498 7.80994 8.13746 7.76743C8.28364 7.6821 8.36499 7.52858 8.36499 7.37047C8.36499 7.29217 8.34481 7.21266 8.3023 7.14018C8.17446 6.92121 7.89371 6.8475 7.67474 6.97534Z" fill="black"/>
<path d="M8.99109 3.70904C9.06999 3.70904 9.14982 3.68886 9.2226 3.64604C9.36848 3.56041 9.44983 3.40658 9.44953 3.24877C9.44922 3.17048 9.42904 3.09097 9.38653 3.01818C9.25838 2.79982 8.97733 2.72642 8.75866 2.85456C8.61278 2.93989 8.53143 3.09372 8.53174 3.25152C8.53204 3.33012 8.55223 3.40964 8.59474 3.48212C8.68007 3.628 8.83359 3.70904 8.99109 3.70904Z" fill="black"/>
<path d="M7.49842 6.3252C7.75072 6.32398 7.95471 6.11938 7.95532 5.86738V5.86463C7.9541 5.6111 7.74797 5.4065 7.49475 5.40772C7.24213 5.40894 7.03845 5.61354 7.03784 5.86554V5.8683C7.03876 6.12121 7.24397 6.3252 7.49658 6.3252H7.49842Z" fill="black"/>
<path d="M10.512 3.29688C10.7652 3.29688 10.9707 3.09136 10.9707 2.83814C10.9707 2.58491 10.7652 2.37939 10.512 2.37939C10.2584 2.37939 10.0532 2.58491 10.0532 2.83814C10.0532 3.09167 10.2584 3.29688 10.512 3.29688Z" fill="black"/>
<path d="M7.66523 4.75628C7.73709 4.79757 7.81539 4.81714 7.89276 4.81714C8.05179 4.81714 8.20654 4.73426 8.29125 4.58624C8.33254 4.51407 8.35211 4.43547 8.35211 4.35779C8.35181 4.19907 8.26893 4.04493 8.12121 3.96022C7.90132 3.83421 7.62088 3.91037 7.49519 4.13026C7.45359 4.20243 7.43433 4.28103 7.43433 4.35871C7.43463 4.51743 7.51751 4.67188 7.66523 4.75628Z" fill="black"/>
<path d="M9.24194 8.07281C9.02205 7.9465 8.74161 8.02235 8.61561 8.24224C8.57402 8.31411 8.55444 8.39271 8.55444 8.47039C8.55444 8.62911 8.63732 8.78355 8.78473 8.86857V8.86827C8.85691 8.90986 8.9355 8.92943 9.01288 8.92943C9.17191 8.92943 9.32635 8.84686 9.41106 8.69914C9.45266 8.62697 9.47223 8.54837 9.47223 8.471C9.47223 8.31197 9.38935 8.15752 9.24194 8.07281Z" fill="black"/>
<path d="M13.3563 6.95921C13.1367 6.8329 12.8563 6.90813 12.7297 7.12772C12.6881 7.19959 12.6685 7.27818 12.6682 7.35586C12.6682 7.51459 12.7505 7.66903 12.8982 7.75405C12.9704 7.79564 13.049 7.81552 13.1266 7.81552C13.2854 7.81552 13.4395 7.73325 13.5245 7.58585C13.5661 7.51367 13.5857 7.43507 13.586 7.3577C13.586 7.19867 13.5037 7.04423 13.3563 6.95921Z" fill="black"/>
<path d="M13.1229 4.80253C13.2012 4.80253 13.2801 4.78266 13.3526 4.74045C13.4991 4.65543 13.5811 4.50221 13.5814 4.3441C13.5814 4.26581 13.5615 4.18629 13.5193 4.11351C13.3921 3.89423 13.1113 3.81961 12.8923 3.94683C12.7458 4.03185 12.6639 4.18537 12.6636 4.34318C12.6636 4.42147 12.6835 4.50099 12.7257 4.57378C12.8107 4.72057 12.9648 4.80253 13.1229 4.80253Z" fill="black"/>
<path d="M13.5275 5.39111C13.2739 5.39142 13.069 5.59694 13.0693 5.85047C13.0696 6.10339 13.2752 6.3086 13.5281 6.3086H13.5287C13.7822 6.30798 13.9871 6.10247 13.9868 5.84894C13.9865 5.59571 13.7807 5.3905 13.5275 5.39111Z" fill="black"/>
<path d="M10.5197 8.41113C10.2665 8.41175 10.0616 8.61787 10.0625 8.8711C10.0631 9.12402 10.2683 9.32862 10.5209 9.32862H10.5225C10.7757 9.328 10.9806 9.12188 10.98 8.86865C10.9791 8.61512 10.7732 8.41052 10.5197 8.41113Z" fill="black"/>
<path d="M11.7953 8.06481C11.6491 8.14983 11.5674 8.30335 11.5671 8.46147C11.5671 8.53976 11.5873 8.61927 11.6295 8.69206C11.7149 8.83825 11.8687 8.9199 12.0265 8.9199C12.1048 8.9199 12.1843 8.90002 12.2568 8.85782C12.403 8.77249 12.4849 8.61897 12.4849 8.46116C12.4849 8.38256 12.4647 8.30305 12.4225 8.23057C12.295 8.0116 12.0143 7.93728 11.7953 8.06481Z" fill="black"/>
<path d="M10.5124 10.0825C8.18068 10.0825 6.28369 8.18554 6.28369 5.85385C6.28369 3.52216 8.18068 1.62518 10.5124 1.62518C12.8441 1.62518 14.7411 3.52216 14.7411 5.85385C14.7411 8.18554 12.8441 10.0825 10.5124 10.0825ZM14.0334 2.10453L14.2793 1.85865L14.6754 2.25476C14.765 2.34436 14.8824 2.38914 14.9998 2.38914C15.1172 2.38914 15.2346 2.34436 15.3242 2.25476C15.5033 2.0756 15.5033 1.78516 15.3242 1.606L14.6044 0.886241C14.6041 0.885996 14.604 0.885721 14.6037 0.885476C14.6034 0.885232 14.6032 0.885017 14.6029 0.884773L13.8525 0.134365C13.6734 -0.0447884 13.3829 -0.0447884 13.2038 0.134365C13.0246 0.313519 13.0246 0.603962 13.2038 0.783116L13.6305 1.2099L13.3063 1.53417C12.5012 1.01163 11.5417 0.707699 10.5124 0.707699C9.48313 0.707699 8.5236 1.01163 7.71848 1.5342L7.39421 1.2099L7.82096 0.783116C8.00012 0.603962 8.00012 0.313519 7.82096 0.134365C7.64184 -0.0447884 7.35136 -0.0447884 7.17221 0.134365L6.4219 0.884712C6.42162 0.884987 6.42131 0.885201 6.42104 0.885476C6.42076 0.885751 6.42055 0.886057 6.42027 0.886333L5.7006 1.606C5.52145 1.78516 5.52145 2.07563 5.7006 2.25476C5.79015 2.34436 5.90756 2.38914 6.02496 2.38914C6.14237 2.38914 6.25978 2.34436 6.34932 2.25476L6.74543 1.85868L6.99131 2.10456C5.99166 3.04391 5.36621 4.37713 5.36621 5.85385C5.36621 8.69143 7.67478 11 10.5124 11C13.35 11 15.6585 8.69143 15.6585 5.85385C15.6585 4.3771 15.0331 3.04391 14.0334 2.10453Z" fill="black"/>
<path d="M10.6466 6.69538L11.681 5.66107C11.8602 5.48195 11.8602 5.19147 11.681 5.01232C11.5019 4.83314 11.2114 4.83314 11.0322 5.01229L10.3222 5.72227L9.99231 5.39243C9.81316 5.21331 9.52269 5.21331 9.34356 5.39246C9.16444 5.57165 9.16444 5.86209 9.34362 6.04125L9.99785 6.69538C10.0874 6.78496 10.2048 6.82973 10.3222 6.82973C10.4396 6.82973 10.557 6.78496 10.6466 6.69538Z" fill="black"/>
<path d="M4.25023 1.854H2.96484C2.7115 1.854 2.5061 2.0594 2.5061 2.31274C2.5061 2.56609 2.7115 2.77148 2.96484 2.77148H4.25023C4.50358 2.77148 4.70898 2.56609 4.70898 2.31274C4.70898 2.0594 4.50358 1.854 4.25023 1.854Z" fill="black"/>
<path d="M4.25055 3.62402H2.48633C2.23298 3.62402 2.02759 3.82942 2.02759 4.08276C2.02759 4.33611 2.23298 4.5415 2.48633 4.5415H4.25055C4.5039 4.5415 4.70929 4.33611 4.70929 4.08276C4.70929 3.82942 4.5039 3.62402 4.25055 3.62402Z" fill="black"/>
<path d="M4.25046 5.39502H1.71167C1.45832 5.39502 1.25293 5.60041 1.25293 5.85376C1.25293 6.10711 1.45832 6.3125 1.71167 6.3125H4.25046C4.50381 6.3125 4.7092 6.10711 4.7092 5.85376C4.7092 5.60041 4.50381 5.39502 4.25046 5.39502Z" fill="black"/>
<path d="M4.2505 7.16553H1.07959C0.826243 7.16553 0.62085 7.37092 0.62085 7.62427C0.62085 7.87761 0.826243 8.08301 1.07959 8.08301H4.2505C4.50384 8.08301 4.70924 7.87761 4.70924 7.62427C4.70924 7.37092 4.50384 7.16553 4.2505 7.16553Z" fill="black"/>
<path d="M4.25044 8.93652H0.45874C0.205393 8.93652 0 9.14192 0 9.39526C0 9.64861 0.205393 9.854 0.45874 9.854H4.25044C4.50379 9.854 4.70919 9.64861 4.70919 9.39526C4.70919 9.14192 4.50379 8.93652 4.25044 8.93652Z" fill="black"/>
</svg>
