<svg width="468" height="380" viewBox="0 0 468 380" fill="none" xmlns="http://www.w3.org/2000/svg">
<g clip-path="url(#clip0_3408_23957)">
<path opacity="0.15" d="M250.554 380C370.584 380 467.888 374.343 467.888 367.366C467.888 360.388 370.584 354.731 250.554 354.731C130.524 354.731 33.2202 360.388 33.2202 367.366C33.2202 374.343 130.524 380 250.554 380Z" fill="black"/>
<path fill-rule="evenodd" clip-rule="evenodd" d="M332.679 156.288L335.065 157.781C335.9 156.426 336.718 155.061 337.502 153.675L335.057 152.28C334.293 153.633 333.494 154.965 332.679 156.288Z" fill="#3C415E"/>
<path fill-rule="evenodd" clip-rule="evenodd" d="M328.013 163.222L330.288 164.88C331.226 163.594 332.128 162.284 333.013 160.963L330.675 159.396C329.81 160.687 328.929 161.967 328.013 163.222Z" fill="#3C415E"/>
<path fill-rule="evenodd" clip-rule="evenodd" d="M322.882 169.766L325.014 171.605C326.058 170.388 327.057 169.148 328.035 167.89L325.815 166.159C324.862 167.384 323.888 168.593 322.882 169.766Z" fill="#3C415E"/>
<path fill-rule="evenodd" clip-rule="evenodd" d="M343.299 133.639L345.98 134.492C346.238 133.734 346.441 132.957 346.67 132.189C346.904 131.423 347.097 130.644 347.294 129.866L344.568 129.172C344.378 129.922 344.192 130.674 343.966 131.414C343.744 132.156 343.55 132.906 343.299 133.639Z" fill="#3C415E"/>
<path fill-rule="evenodd" clip-rule="evenodd" d="M340.408 141.459L342.998 142.56C343.307 141.823 343.621 141.089 343.903 140.341C344.19 139.595 344.493 138.856 344.753 138.099L342.111 137.132C341.86 137.865 341.564 138.582 341.287 139.306C341.014 140.031 340.708 140.744 340.408 141.459Z" fill="#3C415E"/>
<path fill-rule="evenodd" clip-rule="evenodd" d="M336.856 148.984L339.347 150.293L340.432 148.163L341.469 146.007L338.922 144.811L337.913 146.909L336.856 148.984Z" fill="#3C415E"/>
<path fill-rule="evenodd" clip-rule="evenodd" d="M346.072 109.18L348.835 108.656L348.729 108.039L348.577 107.428L348.266 106.208C348.176 105.798 348.021 105.403 347.887 105.004L347.47 103.809L344.852 104.839L345.221 105.904C345.341 106.259 345.482 106.608 345.56 106.978L345.839 108.073L345.977 108.621L346.072 109.18Z" fill="#3C415E"/>
<path fill-rule="evenodd" clip-rule="evenodd" d="M346.515 117.338L349.323 117.503C349.349 116.685 349.399 115.87 349.403 115.049C349.379 114.226 349.375 113.404 349.33 112.58L346.523 112.758C346.564 113.518 346.566 114.282 346.59 115.044C346.587 115.808 346.538 116.573 346.515 117.338Z" fill="#3C415E"/>
<path fill-rule="evenodd" clip-rule="evenodd" d="M345.408 125.526L348.165 126.082L348.596 123.709C348.736 122.918 348.83 122.117 348.948 121.322L346.16 120.951C346.046 121.715 345.957 122.483 345.822 123.244L345.408 125.526Z" fill="#3C415E"/>
<path fill-rule="evenodd" clip-rule="evenodd" d="M331.022 91.2738L332.238 88.7307C330.777 88.0114 329.276 87.4108 327.772 86.83L326.787 89.4717C328.221 90.026 329.65 90.5968 331.022 91.2738Z" fill="#3C415E"/>
<path fill-rule="evenodd" clip-rule="evenodd" d="M337.959 95.5779L339.734 93.3904C339.424 93.109 339.084 92.8724 338.75 92.6269L337.747 91.8932C337.418 91.6373 337.059 91.4392 336.714 91.2137L335.669 90.5562L334.23 92.9795L335.194 93.5871C335.512 93.795 335.849 93.978 336.146 94.2121L337.062 94.8832C337.368 95.1074 337.68 95.3231 337.959 95.5779Z" fill="#3C415E"/>
<path fill-rule="evenodd" clip-rule="evenodd" d="M343.248 101.596L345.657 100.14C345.461 99.7637 345.211 99.4214 344.971 99.0729L344.246 98.0297C343.995 97.69 343.712 97.3765 343.446 97.049C343.172 96.7292 342.914 96.3921 342.624 96.0882L340.56 98.0036C340.819 98.2749 341.045 98.5755 341.289 98.8596C341.526 99.1504 341.779 99.4282 342.002 99.729L342.641 100.652C342.853 100.96 343.077 101.262 343.248 101.596Z" fill="#3C415E"/>
<path fill-rule="evenodd" clip-rule="evenodd" d="M307.014 84.682L307.442 81.8944C305.881 81.6388 304.317 81.4399 302.753 81.2296L302.394 84.0269C303.936 84.2343 305.48 84.4302 307.014 84.682Z" fill="#3C415E"/>
<path fill-rule="evenodd" clip-rule="evenodd" d="M315.232 86.18L315.825 83.4228L313.493 82.9433C312.717 82.7766 311.935 82.6568 311.157 82.5113L310.663 85.2878C311.426 85.4303 312.195 85.548 312.953 85.7111L315.232 86.18Z" fill="#3C415E"/>
<path fill-rule="evenodd" clip-rule="evenodd" d="M323.258 88.2727L324.096 85.58C322.571 85.0796 321.025 84.6923 319.485 84.2722L318.799 87.0072C320.29 87.4151 321.793 87.7905 323.258 88.2727Z" fill="#3C415E"/>
<path fill-rule="evenodd" clip-rule="evenodd" d="M281.966 82.185L282.136 79.3695L279.785 79.2283L277.435 79.109L277.292 81.9259L279.63 82.0443L281.966 82.185Z" fill="#3C415E"/>
<path fill-rule="evenodd" clip-rule="evenodd" d="M290.337 82.7764L290.568 79.9655C289.001 79.8232 287.434 79.727 285.867 79.6096L285.673 82.4232C287.227 82.5398 288.785 82.6354 290.337 82.7764Z" fill="#3C415E"/>
<path fill-rule="evenodd" clip-rule="evenodd" d="M298.655 83.5778L298.968 80.7748C297.403 80.5815 295.836 80.4531 294.27 80.2894L294.007 83.0973C295.556 83.2596 297.11 83.3867 298.655 83.5778Z" fill="#3C415E"/>
<path fill-rule="evenodd" clip-rule="evenodd" d="M256.721 80.7233L256.935 77.9113L252.281 77.5294L252.034 80.339L256.721 80.7233Z" fill="#3C415E"/>
<path fill-rule="evenodd" clip-rule="evenodd" d="M265.132 81.2919L265.299 78.4764L260.633 78.1783L260.442 80.9922L265.132 81.2919Z" fill="#3C415E"/>
<path fill-rule="evenodd" clip-rule="evenodd" d="M273.518 81.7367L273.652 78.9196C272.094 78.8396 270.534 78.774 268.978 78.6827L268.827 81.499C270.39 81.5906 271.954 81.6565 273.518 81.7367Z" fill="#3C415E"/>
<path fill-rule="evenodd" clip-rule="evenodd" d="M231.535 77.6652L232.058 74.8939C231.296 74.7651 231.628 74.6949 230.873 74.5437L228.665 74.2033L227.545 73.939L226.904 76.6851L228.057 76.957L229.216 77.1985C229.989 77.3538 230.759 77.5332 231.535 77.6652Z" fill="#3C415E"/>
<path fill-rule="evenodd" clip-rule="evenodd" d="M239.894 79.0041L240.27 76.2092L237.969 75.8878L235.678 75.5268L235.228 78.3108L238.638 78.7832L239.894 79.0041Z" fill="#3C415E"/>
<path fill-rule="evenodd" clip-rule="evenodd" d="M248.257 79.9842L248.536 77.1779C246.993 77.0077 245.445 76.8594 243.906 76.6692L243.576 79.47C245.135 79.6625 246.697 79.8121 248.257 79.9842Z" fill="#3C415E"/>
<path fill-rule="evenodd" clip-rule="evenodd" d="M208.939 68.2365L209.764 66.0552C209.212 65.5966 208.771 65.0489 208.286 64.5374C208.058 64.271 207.864 63.981 207.65 63.7053L207.334 63.2877C207.24 63.1416 207.154 62.9901 207.064 62.8418L204.682 64.342C204.791 64.5193 204.895 64.6995 205.008 64.8735L205.381 65.3717C205.634 65.6999 205.87 66.0433 206.138 66.3577C206.7 66.9618 208.31 67.7074 208.939 68.2365Z" fill="#3C415E"/>
<path fill-rule="evenodd" clip-rule="evenodd" d="M215.167 72.8387L216.346 70.2779C215.681 69.9483 216.068 69.7602 215.438 69.3827L213.394 68.7395C213.077 68.5541 212.781 68.3441 212.473 68.1484L210.931 70.5075C211.273 70.7254 211.607 70.959 211.956 71.1634L213.013 71.7537C213.709 72.1673 214.446 72.4831 215.167 72.8387Z" fill="#3C415E"/>
<path fill-rule="evenodd" clip-rule="evenodd" d="M223.197 75.7336L223.961 73.0192C223.218 72.8311 222.504 72.5801 221.775 72.3598C221.044 72.1454 220.338 71.8784 219.627 71.6234L218.66 74.2719C219.41 74.5408 221.235 74.9275 221.997 75.1511C222.756 75.3815 222.43 75.5384 223.197 75.7336Z" fill="#3C415E"/>
<path fill-rule="evenodd" clip-rule="evenodd" d="M204.167 43.5138L206.645 44.8481C207.271 43.6341 209.204 42.6508 210.203 41.7247L207.216 39.5439C205.987 40.682 204.939 42.0231 204.167 43.5138Z" fill="#3C415E"/>
<path fill-rule="evenodd" clip-rule="evenodd" d="M201.988 52.0313L204.795 52.2175C204.895 50.416 205.029 49.5188 205.45 47.9295L202.734 47.1971C202.311 48.7906 202.079 50.4211 201.988 52.0313Z" fill="#3C415E"/>
<path fill-rule="evenodd" clip-rule="evenodd" d="M202.965 60.7166L205.628 59.8089L205.451 59.3162L205.325 58.8034C205.243 58.4608 205.15 58.122 205.074 57.7772L204.914 56.7216C204.889 56.5451 204.853 56.3714 204.838 56.1925L204.803 55.6531L201.999 55.877L202.041 56.4895C202.059 56.6936 202.099 56.8966 202.127 57.1005L203.393 58.4266C203.481 58.8299 202.51 59.1254 202.607 59.5273L202.759 60.129L202.965 60.7166Z" fill="#3C415E"/>
<path fill-rule="evenodd" clip-rule="evenodd" d="M227.494 34.8247L227.284 37.6372C229.88 37.8326 231.388 38.0684 231.835 38.13L232.219 35.3359C230.653 35.1199 229.078 34.944 227.494 34.8247Z" fill="#3C415E"/>
<path fill-rule="evenodd" clip-rule="evenodd" d="M218.911 34.883L219.215 37.6869C220.685 37.5261 222.181 37.4643 223.686 37.4787L224.789 34.7638C223.194 34.7486 220.512 34.7082 218.911 34.883Z" fill="#3C415E"/>
<path fill-rule="evenodd" clip-rule="evenodd" d="M210.527 37.2355L211.828 39.7361C213.065 39.1 214.408 38.6151 215.811 38.2712L215.143 35.531C214.46 35.6988 212.872 36.0265 210.527 37.2355Z" fill="#3C415E"/>
<path fill-rule="evenodd" clip-rule="evenodd" d="M252.437 39.7597L252.783 42.5879L257.292 43.8309L256.968 41.0084L252.437 39.7597Z" fill="#3C415E"/>
<path fill-rule="evenodd" clip-rule="evenodd" d="M245.334 37.7714L243.608 40.4108C245.115 40.7685 246.621 41.1444 248.125 41.5337L248.828 38.8027C247.308 38.4097 246.863 38.1343 245.334 37.7714Z" fill="#3C415E"/>
<path fill-rule="evenodd" clip-rule="evenodd" d="M235.992 35.9338L236.581 38.8165C238.096 39.084 238.531 39.2789 240.042 39.6036L240.63 36.8455C239.091 36.5146 237.545 36.2081 235.992 35.9338Z" fill="#3C415E"/>
<path fill-rule="evenodd" clip-rule="evenodd" d="M276.589 43.7333L277.256 46.4732C277.671 46.3829 278.073 46.2412 278.481 46.126C278.889 46.0051 280.376 45.9948 280.767 45.8306L280.874 45.2657C281.259 45.0934 281.638 44.9066 282.02 44.7264L280.783 42.1933C280.444 42.3519 280.109 42.5188 279.769 42.6722L278.724 43.0758C278.38 43.2227 278.021 43.3219 277.663 43.4273C277.305 43.5273 276.953 43.6555 276.589 43.7333Z" fill="#3C415E"/>
<path fill-rule="evenodd" clip-rule="evenodd" d="M268.621 44.0399L268.203 46.8291L269.454 47.0009C269.872 47.0464 270.297 47.0529 270.719 47.0798L271.352 47.1118L271.669 47.1267L271.987 47.1166L273.259 47.0725L273.088 44.2572L271.971 44.2963L271.692 44.3066L272.491 44.3974L270.852 44.2624C270.48 44.238 270.106 44.235 269.734 44.1943L268.621 44.0399Z" fill="#3C415E"/>
<path fill-rule="evenodd" clip-rule="evenodd" d="M260.611 42.0285L260.934 44.8505L265.472 46.1038L265.125 43.2753L260.611 42.0285Z" fill="#3C415E"/>
<path fill-rule="evenodd" clip-rule="evenodd" d="M294.538 28.0564L296.981 29.4539C297.784 28.0429 299.601 26.7048 300.273 25.2184L296.63 23.954C295.999 25.3501 295.298 26.7216 294.538 28.0564Z" fill="#52298A"/>
<path fill-rule="evenodd" clip-rule="evenodd" d="M289.854 34.8277L292 36.6507C293.066 35.405 294.031 34.0872 294.944 32.7407L292.614 31.1622C291.833 32.3122 291.368 33.0608 289.854 34.8277Z" fill="#3C415E"/>
<path fill-rule="evenodd" clip-rule="evenodd" d="M283.91 40.353L285.517 42.6673C286.874 41.694 288.163 40.6397 289.351 39.4916L287.401 37.4589C286.567 38.2652 285.883 38.9327 283.91 40.353Z" fill="#3C415E"/>
<path d="M284.713 5.27548L292.533 14.2291L341.266 0.000610352L284.713 5.27548Z" fill="#FFD844"/>
<path d="M294.663 32.9261L292.533 14.229L341.266 0.000549316L299.735 22.05L294.663 32.9261Z" fill="#F6AF00"/>
<path d="M312.903 35.4264L299.735 22.0492L341.266 0L312.903 35.4264Z" fill="#FFD844"/>
<path d="M87.7361 352.109C87.7461 355.587 88.911 358.482 91.23 360.794C93.5479 362.527 95.8634 363.679 99.3325 363.669L353.704 362.912C356.595 362.904 359.482 361.736 361.79 359.99C364.096 357.664 365.243 354.763 365.233 351.284L364.731 181.422L87.2339 182.247L87.7361 352.109Z" fill="#738598"/>
<path d="M91.2302 360.794C93.5482 362.527 95.8636 363.679 99.3327 363.669L353.705 362.913C356.595 362.904 359.482 361.736 361.79 359.99L226.166 243.867L91.2302 360.794Z" fill="#3C415E"/>
<path d="M87.2344 182.247L126.63 210.537L218.746 276.353C223.382 279.818 229.741 279.799 234.356 276.307L325.503 209.946L364.731 181.422L325.335 153.132L239.592 91.9351L233.219 87.3159C228.584 83.8515 222.224 83.8705 217.61 87.3622L211.264 92.0191L170.305 121.708L150.114 136.261L126.462 153.723L87.2344 182.247Z" fill="#3C415E"/>
<path d="M126.387 128.216L126.63 210.537L218.746 276.353C223.382 279.818 229.741 279.799 234.356 276.307L325.503 209.946L325.188 103.275C325.169 96.8983 319.95 91.6963 313.591 91.715L162.702 92.1636L126.387 128.216Z" fill="#DFE2E2"/>
<path d="M162.203 118.833C162.218 124.051 158.184 128.121 152.98 128.136L126.387 128.215L162.125 92.1652L162.203 118.833Z" fill="#AFB9CA"/>
<path d="M406.042 208.343C408.723 208.343 410.897 206.163 410.897 203.475C410.897 200.786 408.723 198.606 406.042 198.606C403.361 198.606 401.187 200.786 401.187 203.475C401.187 206.163 403.361 208.343 406.042 208.343Z" fill="#777777"/>
<path d="M406.843 205.945C406.896 205.912 406.943 205.87 406.982 205.819L408.598 203.698C408.771 203.471 408.728 203.147 408.502 202.973C408.276 202.799 407.951 202.844 407.779 203.07L406.52 204.722L403.902 202.1C403.701 201.898 403.376 201.898 403.172 202.1C402.972 202.302 402.972 202.63 403.173 202.832L406.208 205.871C406.313 205.976 406.458 206.031 406.607 206.021C406.691 206.015 406.772 205.989 406.843 205.945Z" fill="white"/>
<path d="M28.4411 248.847C31.1223 248.847 33.2959 246.667 33.2959 243.979C33.2959 241.29 31.1223 239.11 28.4411 239.11C25.7599 239.11 23.5863 241.29 23.5863 243.979C23.5863 246.667 25.7599 248.847 28.4411 248.847Z" fill="#777777"/>
<path d="M29.2416 246.449C29.2943 246.416 29.3419 246.373 29.3805 246.323L30.9968 244.202C31.1698 243.975 31.1268 243.65 30.9003 243.477C30.6746 243.303 30.3503 243.348 30.1776 243.573L28.9189 245.226L26.3001 242.604C26.0996 242.402 25.775 242.402 25.5709 242.604C25.3704 242.806 25.3704 243.134 25.572 243.336L28.607 246.375C28.7121 246.48 28.857 246.535 29.0054 246.525C29.09 246.519 29.1711 246.492 29.2416 246.449Z" fill="white"/>
<path d="M421.03 107.092C423.091 107.092 424.762 105.416 424.762 103.35C424.762 101.283 423.091 99.6076 421.03 99.6076C418.969 99.6076 417.299 101.283 417.299 103.35C417.299 105.416 418.969 107.092 421.03 107.092Z" fill="#777777"/>
<path d="M421.646 105.249C421.687 105.224 421.723 105.191 421.753 105.152L422.995 103.521C423.128 103.347 423.095 103.097 422.921 102.964C422.747 102.83 422.498 102.865 422.365 103.038L421.398 104.308L419.385 102.293C419.231 102.138 418.981 102.138 418.824 102.293C418.67 102.448 418.67 102.7 418.825 102.855L421.158 105.191C421.238 105.272 421.35 105.315 421.464 105.307C421.529 105.303 421.592 105.282 421.646 105.249Z" fill="white"/>
<path d="M152.375 47.7264C158.804 47.7264 164.015 42.5002 164.015 36.0532C164.015 29.6063 158.804 24.3801 152.375 24.3801C145.946 24.3801 140.734 29.6063 140.734 36.0532C140.734 42.5002 145.946 47.7264 152.375 47.7264Z" fill="#777777"/>
<path d="M154.295 41.9762C154.422 41.8979 154.536 41.7949 154.628 41.6745L158.504 36.5878C158.918 36.0438 158.815 35.2656 158.272 34.8504C157.731 34.4338 156.953 34.5409 156.539 35.0816L153.52 39.0431L147.241 32.7564C146.76 32.2726 145.982 32.2737 145.492 32.7575C145.011 33.2416 145.011 34.027 145.495 34.5114L152.772 41.7984C153.024 42.0505 153.372 42.183 153.727 42.1581C153.931 42.145 154.126 42.0811 154.295 41.9762Z" fill="white"/>
<path d="M89.6006 135.281C90.1496 135.281 90.5952 134.834 90.5952 134.284V127.246C90.5952 126.696 90.1493 126.248 89.6006 126.248C89.0514 126.248 88.6057 126.696 88.6057 127.246V134.284C88.6057 134.834 89.0514 135.281 89.6006 135.281Z" fill="#777777"/>
<path d="M86.0903 131.762H93.1092C93.6581 131.762 94.1041 131.315 94.1041 130.764C94.1041 130.214 93.6581 129.767 93.1092 129.767H86.0903C85.5411 129.767 85.0951 130.214 85.0951 130.764C85.0954 131.315 85.5411 131.762 86.0903 131.762Z" fill="#777777"/>
<path d="M463.496 309.559C464.045 309.559 464.491 309.112 464.491 308.561V301.523C464.491 300.973 464.045 300.526 463.496 300.526C462.947 300.526 462.501 300.973 462.501 301.523V308.561C462.501 309.112 462.947 309.559 463.496 309.559Z" fill="#777777"/>
<path d="M459.986 306.04H467.005C467.554 306.04 468 305.592 468 305.042C468 304.491 467.554 304.044 467.005 304.044H459.986C459.437 304.044 458.991 304.491 458.991 305.042C458.991 305.592 459.437 306.04 459.986 306.04Z" fill="#777777"/>
<path d="M2.46686 165.886C2.76741 165.886 3.01147 165.641 3.01147 165.34V161.486C3.01147 161.185 2.76741 160.94 2.46686 160.94C2.1663 160.94 1.92224 161.185 1.92224 161.486V165.34C1.92197 165.641 2.1663 165.886 2.46686 165.886Z" fill="#777777"/>
<path d="M0.544886 163.959H4.38801C4.68856 163.959 4.93289 163.714 4.93289 163.413C4.93289 163.111 4.68856 162.867 4.38801 162.867H0.544886C0.244063 162.867 0 163.111 0 163.413C0 163.714 0.244063 163.959 0.544886 163.959Z" fill="#777777"/>
<path d="M340.337 63.2819C341.106 63.2819 341.731 62.655 341.731 61.8837V52.0191C341.731 51.2477 341.106 50.6211 340.337 50.6211C339.567 50.6211 338.943 51.2477 338.943 52.0191V61.8837C338.943 62.655 339.567 63.2819 340.337 63.2819Z" fill="#777777"/>
<path d="M335.417 58.3494H345.255C346.024 58.3494 346.649 57.7225 346.649 56.9508C346.649 56.1795 346.024 55.5526 345.255 55.5526H335.417C334.647 55.5526 334.022 56.1795 334.022 56.9508C334.022 57.7225 334.647 58.3494 335.417 58.3494Z" fill="#777777"/>
</g>
<defs>
<clipPath id="clip0_3408_23957">
<rect width="468" height="380" fill="white"/>
</clipPath>
</defs>
</svg>
