<svg width="40" height="40" viewBox="0 0 40 40" fill="none" xmlns="http://www.w3.org/2000/svg">
<g clip-path="url(#clip0_133_1772)">
<path fill-rule="evenodd" clip-rule="evenodd" d="M0 31.4286C0 33.7943 1.91429 35.7143 4.28 35.7143H35.72C38.0857 35.7143 40 33.7943 40 31.4286V25.6171C40.0003 25.3032 39.8972 24.998 39.7066 24.7485C39.5161 24.4991 39.2486 24.3194 38.9457 24.2371C38.0159 23.9839 37.1952 23.4319 36.6101 22.6662C36.0251 21.9005 35.7081 20.9636 35.7081 20C35.7081 19.0363 36.0251 18.0994 36.6101 17.3337C37.1952 16.568 38.0159 16.016 38.9457 15.7628C39.2486 15.6806 39.5161 15.5009 39.7066 15.2514C39.8972 15.002 40.0003 14.6967 40 14.3828V8.57142C40 6.20571 38.0857 4.28571 35.72 4.28571H4.28C1.91429 4.28571 0 6.20571 0 8.57142V14.3714C0.000379874 14.6868 0.105127 14.9932 0.297906 15.2429C0.490684 15.4925 0.760656 15.6713 1.06571 15.7514C2.00536 15.9971 2.83703 16.5474 3.43061 17.3162C4.02418 18.0849 4.34616 19.0288 4.34616 20C4.34616 20.9712 4.02418 21.9151 3.43061 22.6838C2.83703 23.4526 2.00536 24.0028 1.06571 24.2486C0.760656 24.3287 0.490684 24.5075 0.297906 24.7571C0.105127 25.0068 0.000379874 25.3132 0 25.6286L0 31.4286ZM14.1771 28.4057L28.4629 14.12C28.7817 13.7822 28.9563 13.3335 28.9498 12.869C28.9432 12.4046 28.7559 11.961 28.4276 11.6323C28.0994 11.3037 27.656 11.1159 27.1915 11.1088C26.7271 11.1017 26.2782 11.2758 25.94 11.5943L11.6543 25.88C11.4803 26.0438 11.341 26.2408 11.2446 26.4594C11.1482 26.6781 11.0967 26.9138 11.093 27.1527C11.0893 27.3916 11.1337 27.6288 11.2234 27.8503C11.313 28.0717 11.4463 28.2729 11.6151 28.442C11.784 28.611 11.985 28.7445 12.2064 28.8344C12.4277 28.9243 12.6649 28.9689 12.9038 28.9655C13.1427 28.9622 13.3785 28.9109 13.5972 28.8147C13.8159 28.7185 14.0131 28.5795 14.1771 28.4057ZM11.4886 14.2857C11.4886 13.5279 11.7896 12.8012 12.3254 12.2654C12.8612 11.7296 13.588 11.4286 14.3457 11.4286C15.1035 11.4286 15.8302 11.7296 16.366 12.2654C16.9018 12.8012 17.2029 13.5279 17.2029 14.2857C17.2029 15.0435 16.9018 15.7702 16.366 16.306C15.8302 16.8418 15.1035 17.1428 14.3457 17.1428C13.588 17.1428 12.8612 16.8418 12.3254 16.306C11.7896 15.7702 11.4886 15.0435 11.4886 14.2857ZM22.9171 25.7143C22.9171 24.9565 23.2182 24.2298 23.754 23.694C24.2898 23.1582 25.0165 22.8571 25.7743 22.8571C26.532 22.8571 27.2588 23.1582 27.7946 23.694C28.3304 24.2298 28.6314 24.9565 28.6314 25.7143C28.6314 26.472 28.3304 27.1988 27.7946 27.7346C27.2588 28.2704 26.532 28.5714 25.7743 28.5714C25.0165 28.5714 24.2898 28.2704 23.754 27.7346C23.2182 27.1988 22.9171 26.472 22.9171 25.7143Z" fill="#FFCE00"/>
</g>
<defs>
<clipPath id="clip0_133_1772">
<rect width="40" height="40" fill="white"/>
</clipPath>
</defs>
</svg>
