<?xml version="1.0" encoding="utf-8"?>
<!-- Generator: Adobe Illustrator 17.0.0, SVG Export Plug-In . SVG Version: 6.00 Build 0)  -->
<!DOCTYPE svg PUBLIC "-//W3C//DTD SVG 1.1//EN" "http://www.w3.org/Graphics/SVG/1.1/DTD/svg11.dtd">
<svg version="1.1" id="Layer_1" xmlns="http://www.w3.org/2000/svg" xmlns:xlink="http://www.w3.org/1999/xlink" x="0px" y="0px"
	 width="870.834px" height="296px" viewBox="0 0 870.834 296" enable-background="new 0 0 870.834 296" xml:space="preserve">
<g transform="translate(370.867 1730.846)">
	<g enable-background="new    ">
		<path fill="#00A082" d="M-61.854-1551.669c0,6.032,0.94,10.592,2.821,13.678c1.879,3.088,5.02,4.631,9.42,4.631
			c2.768,0,5.57-0.887,8.409-2.661c2.837-1.773,5.605-4.312,8.303-7.61c2.696-3.301,5.198-7.273,7.504-11.922
			c2.305-4.647,4.346-9.828,6.121-15.541c1.773-5.712,3.157-11.904,4.151-18.575c0.993-6.67,1.49-13.625,1.49-20.863
			c0-7.309-0.798-14.228-2.395-20.757c-1.597-6.528-4.082-12.223-7.451-17.084c-3.371-4.86-7.664-8.711-12.88-11.55
			c-5.216-2.838-11.443-4.258-18.681-4.258c-6.032,0-11.354,0.675-15.967,2.022c-4.614,1.349-8.605,3.212-11.975,5.588
			c-3.371,2.379-6.21,5.163-8.516,8.356c-2.307,3.193-4.151,6.618-5.535,10.272c-1.384,3.655-2.36,7.451-2.927,11.389
			c-0.569,3.939-0.852,7.824-0.852,11.656c0,5.252,0.549,9.936,1.65,14.051c1.1,4.116,2.342,7.611,3.726,10.484
			c1.384,2.875,2.696,5.093,3.938,6.653c1.241,1.562,1.969,2.448,2.182,2.661c1.206-0.354,2.058-0.213,2.555,0.426
			c0.496,0.639,0.745,1.49,0.745,2.555c0,1.42-0.303,2.893-0.905,4.418c-0.604,1.526-1.402,2.91-2.395,4.15
			c-0.995,1.243-2.112,2.272-3.353,3.088c-1.242,0.816-2.501,1.224-3.779,1.224c-0.569,0-1.118-0.07-1.65-0.213
			c-0.532-0.142-1.083-0.426-1.65-0.852c-0.143-0.07-0.675-0.585-1.597-1.544c-0.923-0.957-2.059-2.323-3.406-4.098
			c-1.349-1.773-2.786-3.992-4.311-6.652c-1.527-2.662-2.945-5.73-4.258-9.208c-1.314-3.477-2.395-7.38-3.247-11.709
			c-0.852-4.328-1.277-9.048-1.277-14.157c0-9.863,1.507-18.929,4.524-27.197c3.016-8.266,7.292-15.362,12.827-21.289
			c5.535-5.924,12.205-10.537,20.012-13.838c7.806-3.299,16.499-4.949,26.079-4.949c10.147,0,18.894,1.935,26.239,5.801
			c7.345,3.869,13.375,8.995,18.096,15.382c4.719,6.387,8.213,13.696,10.485,21.928c2.271,8.232,3.406,16.748,3.406,25.547
			c0,10.29-0.798,19.799-2.395,28.527s-3.762,16.642-6.493,23.737c-2.732,7.097-5.908,13.359-9.527,18.787
			c-3.619,5.43-7.451,9.972-11.496,13.625c-4.045,3.654-8.196,6.404-12.454,8.25c-4.258,1.845-8.374,2.768-12.348,2.768
			c-5.109,0-9.457-0.799-13.04-2.395c-3.584-1.598-6.477-3.939-8.675-7.025c-2.2-3.088-3.797-6.883-4.79-11.391
			c-0.995-4.505-1.49-9.633-1.49-15.381v-83.56c0-2.058-0.143-3.529-0.426-4.417c-0.284-0.887-0.426-1.721-0.426-2.502
			c0-1.135,0.567-2.039,1.703-2.715c1.134-0.673,2.483-1.011,4.045-1.011c3.619,0,6.546,0.941,8.782,2.821
			c2.235,1.881,3.353,4.134,3.353,6.759V-1551.669z"/>
		<path fill="#00A082" d="M67.69-1588.286c0,4.045-0.692,8.196-2.076,12.454c-1.383,4.258-3.442,8.286-6.173,12.081
			c-2.732,3.798-6.104,7.204-10.112,10.219c-4.01,3.018-8.64,5.306-13.891,6.866c0.708,1.846,1.65,3.603,2.821,5.269
			c1.171,1.669,2.571,3.105,4.205,4.312c1.632,1.207,3.529,2.165,5.695,2.874c2.164,0.71,4.666,1.064,7.504,1.064
			c4.258,0,7.912-0.799,10.964-2.395c3.05-1.598,5.623-3.708,7.717-6.334c2.093-2.625,3.779-5.57,5.057-8.835
			c1.277-3.264,2.235-6.563,2.874-9.899c0.495-2.412,1.507-4.026,3.033-4.844c1.525-0.814,3.087-1.011,4.684-0.585
			s2.98,1.331,4.151,2.714c1.171,1.385,1.65,3.034,1.438,4.95c-0.284,2.2-0.764,4.72-1.438,7.558
			c-0.675,2.839-1.687,5.713-3.033,8.622c-1.349,2.91-3.07,5.767-5.163,8.569c-2.094,2.804-4.667,5.305-7.717,7.504
			c-3.052,2.199-6.637,3.974-10.751,5.322c-4.116,1.348-8.835,2.022-14.157,2.022c-4.968,0-9.776-0.977-14.423-2.927
			c-4.648-1.953-8.765-4.754-12.348-8.41c-3.584-3.653-6.458-8.159-8.622-13.518c-2.166-5.357-3.247-11.443-3.247-18.256
			c0-6.883,0.958-13.287,2.874-19.213c1.916-5.925,4.434-11.053,7.558-15.382c3.122-4.328,6.669-7.718,10.645-10.165
			c3.974-2.449,8.053-3.673,12.241-3.673c3.05,0,5.801,0.532,8.25,1.597s4.524,2.573,6.227,4.523
			c1.703,1.953,2.997,4.276,3.885,6.973C67.245-1594.531,67.69-1591.55,67.69-1588.286z M32.563-1562.527
			c0,0.639,0.035,1.277,0.106,1.916c0.07,0.639,0.106,1.313,0.106,2.022c2.696-1.277,5.145-2.909,7.345-4.896
			c2.199-1.986,4.08-4.258,5.642-6.813c1.56-2.555,2.768-5.339,3.619-8.356c0.852-3.015,1.277-6.155,1.277-9.42
			c0-2.412-0.409-4.293-1.224-5.642c-0.816-1.348-1.934-2.022-3.353-2.022c-1.774,0-3.353,0.604-4.737,1.81
			c-1.384,1.207-2.591,2.786-3.619,4.737c-1.029,1.952-1.881,4.15-2.555,6.6c-0.675,2.447-1.224,4.914-1.65,7.397
			c-0.426,2.484-0.71,4.843-0.852,7.079C32.526-1565.88,32.491-1564.017,32.563-1562.527z"/>
		<path fill="#00A082" d="M129.747-1556.459c0.426-2.129,1.081-3.673,1.969-4.63c0.887-0.959,1.845-1.49,2.874-1.598
			c1.028-0.105,2.076,0.144,3.141,0.746c1.064,0.604,1.985,1.401,2.768,2.395c0.78,0.994,1.365,2.112,1.756,3.354
			c0.39,1.242,0.442,2.466,0.16,3.672c-0.995,2.91-2.413,6.316-4.258,10.219c-1.847,3.903-4.188,7.594-7.025,11.07
			c-2.839,3.478-6.174,6.422-10.006,8.835c-3.832,2.412-8.233,3.619-13.199,3.619c-4.188,0-7.877-0.692-11.07-2.075
			c-3.193-1.385-5.873-3.337-8.037-5.855c-2.165-2.518-3.797-5.535-4.896-9.047c-1.101-3.514-1.649-7.434-1.649-11.763v-99.207
			c0-4.045,0.514-7.787,1.543-11.229c1.028-3.441,2.448-6.387,4.258-8.836c1.81-2.447,3.921-4.363,6.334-5.748
			c2.411-1.383,4.966-2.075,7.664-2.075c3.193,0,5.89,0.585,8.09,1.757c2.198,1.17,4.008,2.714,5.429,4.63
			c1.419,1.916,2.536,4.116,3.353,6.6c0.815,2.484,1.4,5.021,1.757,7.61c0.354,2.592,0.567,5.146,0.639,7.664
			c0.069,2.521,0.106,4.809,0.106,6.866c0,5.322-0.497,10.911-1.49,16.765c-0.995,5.855-2.254,11.621-3.779,17.298
			c-1.526,5.678-3.193,11.124-5.003,16.339c-1.81,5.217-3.549,9.847-5.216,13.892c-1.668,4.045-3.158,7.345-4.471,9.899
			c-1.313,2.555-2.219,4.045-2.714,4.471v12.667c0,4.4,0.921,8.002,2.768,10.804c1.845,2.805,4.79,4.205,8.835,4.205
			c2.483,0,4.807-0.762,6.972-2.289c2.164-1.524,4.08-3.44,5.748-5.748c1.667-2.305,3.069-4.824,4.205-7.557
			C128.433-1551.473,129.25-1554.046,129.747-1556.459z M98.772-1589.351c0.78-1.49,1.543-3.494,2.288-6.014
			c0.745-2.519,1.454-5.305,2.129-8.356c0.674-3.051,1.294-6.244,1.863-9.58c0.567-3.335,1.064-6.6,1.49-9.793
			s0.762-6.19,1.011-8.995c0.248-2.802,0.373-5.197,0.373-7.185c0-7.238-0.532-12.542-1.597-15.913
			c-1.064-3.37-2.485-5.057-4.258-5.057c-0.569,0-1.064,0.284-1.49,0.852c-0.426,0.568-0.782,1.296-1.064,2.182
			c-0.284,0.889-0.479,1.847-0.586,2.875c-0.106,1.029-0.159,1.969-0.159,2.82V-1589.351z"/>
		<path fill="#00A082" d="M141.776-1629.694c-1.774,0-3.46-0.354-5.057-1.064c-1.597-0.709-2.98-1.667-4.151-2.874
			c-1.171-1.206-2.112-2.607-2.82-4.205c-0.71-1.596-1.064-3.316-1.064-5.162c0-1.916,0.354-3.689,1.064-5.322
			c0.708-1.632,1.649-3.033,2.82-4.205c1.171-1.17,2.555-2.092,4.151-2.768c1.597-0.673,3.282-1.011,5.057-1.011
			c1.916,0,3.688,0.338,5.322,1.011c1.632,0.676,3.033,1.598,4.204,2.768c1.171,1.172,2.093,2.573,2.768,4.205
			c0.674,1.633,1.012,3.406,1.012,5.322c0,1.846-0.338,3.566-1.012,5.162c-0.675,1.598-1.597,2.999-2.768,4.205
			c-1.171,1.207-2.572,2.165-4.204,2.874C145.464-1630.048,143.692-1629.694,141.776-1629.694z M146.779-1543.154
			c0,0.497,0.035,1.296,0.106,2.395c0.069,1.102,0.282,2.219,0.639,3.354c0.354,1.136,0.921,2.129,1.703,2.98
			c0.78,0.852,1.879,1.277,3.3,1.277c2.129,0,3.991-0.78,5.588-2.342c1.597-1.561,2.98-3.513,4.151-5.854s2.146-4.878,2.928-7.61
			c0.78-2.731,1.419-5.305,1.916-7.718c0.426-2.199,1.081-3.796,1.969-4.79c0.887-0.993,1.845-1.543,2.874-1.65
			c1.028-0.105,2.058,0.16,3.087,0.799c1.028,0.639,1.951,1.474,2.768,2.502c0.815,1.029,1.419,2.182,1.811,3.459
			c0.389,1.277,0.442,2.484,0.159,3.619c-0.994,3.619-2.288,7.416-3.886,11.39c-1.597,3.975-3.637,7.629-6.12,10.964
			c-2.485,3.336-5.466,6.103-8.941,8.303c-3.478,2.199-7.558,3.3-12.241,3.3c-2.911,0-5.5-0.551-7.771-1.649
			c-2.272-1.102-4.188-2.573-5.748-4.418c-1.562-1.845-2.751-4.009-3.566-6.493c-0.816-2.483-1.224-5.109-1.224-7.877v-58.226
			c0-2.058-0.16-3.548-0.479-4.471c-0.319-0.922-0.479-1.773-0.479-2.555c0-1.064,0.567-1.933,1.703-2.607
			c1.134-0.674,2.483-1.012,4.045-1.012c3.619,0,6.475,0.941,8.568,2.82c2.093,1.882,3.141,4.135,3.141,6.76V-1543.154z"/>
		<path fill="#00A082" d="M206.069-1597.441c0-2.058-0.143-3.548-0.426-4.471c-0.284-0.922-0.426-1.773-0.426-2.555
			c0-1.064,0.549-1.933,1.65-2.607c1.099-0.674,2.43-1.012,3.991-1.012c3.619,0,6.493,0.941,8.622,2.82
			c2.129,1.882,3.193,4.135,3.193,6.76v49.923c0.07,2.271,0.266,4.364,0.586,6.28c0.318,1.916,0.868,3.549,1.649,4.896
			c0.78,1.349,1.845,2.395,3.193,3.141c1.348,0.744,3.087,1.117,5.216,1.117c2.058,0,3.779-0.407,5.162-1.225
			c1.385-0.814,2.502-1.933,3.354-3.353c0.852-1.419,1.454-3.068,1.81-4.95c0.354-1.879,0.532-3.849,0.532-5.907v-48.858
			c0-2.058-0.143-3.548-0.426-4.471c-0.284-0.922-0.426-1.773-0.426-2.555c0-1.064,0.567-1.933,1.703-2.607
			c1.135-0.674,2.483-1.012,4.045-1.012c3.619,0,6.475,0.941,8.568,2.82c2.093,1.882,3.141,4.135,3.141,6.76v49.923
			c0,3.406-0.338,6.866-1.012,10.378c-0.675,3.514-1.969,6.707-3.885,9.58c-1.916,2.875-4.613,5.233-8.09,7.079
			c-3.478,1.845-8.02,2.768-13.625,2.768c-2.342,0-4.542-0.284-6.6-0.852c-2.059-0.568-3.938-1.331-5.642-2.288
			c-1.703-0.959-3.193-2.06-4.471-3.301c-1.277-1.24-2.307-2.571-3.087-3.991c-0.71,1.42-1.756,2.751-3.141,3.991
			c-1.383,1.241-2.963,2.342-4.736,3.301c-1.774,0.957-3.69,1.72-5.748,2.288c-2.059,0.567-4.116,0.852-6.174,0.852
			c-4.045,0-7.504-0.462-10.379-1.384c-2.873-0.923-5.305-2.182-7.291-3.779c-1.987-1.596-3.566-3.423-4.737-5.481
			c-1.171-2.058-2.075-4.187-2.714-6.387c-0.639-2.199-1.048-4.435-1.225-6.706c-0.178-2.271-0.266-4.364-0.266-6.28v-48.646
			c0-2.058-0.16-3.548-0.479-4.471c-0.319-0.922-0.479-1.773-0.479-2.555c0-1.064,0.567-1.933,1.703-2.607
			c1.134-0.674,2.483-1.012,4.045-1.012c3.619,0,6.475,0.941,8.569,2.82c2.092,1.882,3.14,4.135,3.14,6.76v49.923
			c0,1.916,0.123,3.815,0.372,5.694c0.248,1.882,0.746,3.531,1.49,4.95c0.746,1.42,1.827,2.573,3.247,3.46
			c1.419,0.888,3.3,1.33,5.642,1.33c2.058,0,3.779-0.407,5.162-1.225c1.385-0.814,2.502-1.933,3.354-3.353
			c0.852-1.419,1.454-3.068,1.81-4.95c0.354-1.879,0.532-3.849,0.532-5.907V-1597.441z"/>
		<path fill="#00A082" d="M338.167-1533.148c2.199,0,4.099-0.78,5.694-2.342c1.598-1.561,2.98-3.513,4.152-5.854
			c1.17-2.342,2.129-4.878,2.873-7.61c0.746-2.731,1.366-5.305,1.863-7.718c0.496-2.271,1.225-3.92,2.182-4.95
			c0.959-1.027,2.005-1.543,3.141-1.543c0.852,0,1.72,0.266,2.607,0.799c0.887,0.531,1.703,1.224,2.449,2.075
			c0.744,0.852,1.347,1.81,1.809,2.874c0.461,1.064,0.692,2.129,0.692,3.193c0,0.143,0,0.319,0,0.532s-0.071,0.532-0.213,0.958
			c-0.923,3.619-2.183,7.416-3.778,11.39c-1.598,3.975-3.638,7.629-6.121,10.964c-2.484,3.336-5.482,6.103-8.994,8.303
			c-3.514,2.199-7.611,3.3-12.295,3.3c-3.832,0-7.168-0.816-10.006-2.448c-2.839-1.633-5.074-3.796-6.706-6.493
			c-2.2,2.484-4.843,4.594-7.931,6.333c-3.086,1.738-6.688,2.608-10.804,2.608c-4.258,0-8.002-0.852-11.229-2.555
			c-3.23-1.703-5.944-4.026-8.144-6.972c-2.2-2.944-3.851-6.422-4.95-10.432c-1.101-4.009-1.649-8.32-1.649-12.934
			c0-9.083,1.454-17.244,4.364-24.482c2.909-7.238,6.776-13.394,11.603-18.469c4.825-5.072,10.342-8.958,16.552-11.655
			c6.209-2.696,12.649-4.045,19.32-4.045c2.98,0,5.393,0.816,7.238,2.448c1.845,1.633,2.768,3.868,2.768,6.706
			c0,1.846-0.196,3.14-0.586,3.886c-0.391,0.744-1.117,1.117-2.182,1.117c-0.994,0-2.022-0.07-3.087-0.213
			c-1.064-0.142-2.165-0.213-3.3-0.213c-4.116,0-8.303,0.904-12.561,2.715c-4.258,1.809-8.108,4.576-11.549,8.303
			c-3.443,3.725-6.264,8.445-8.463,14.156c-2.2,5.714-3.3,12.508-3.3,20.385c0,5.748,1.1,10.166,3.3,13.252
			c2.199,3.088,5.216,4.631,9.048,4.631c2.98,0,5.464-1.117,7.451-3.354c1.986-2.234,3.583-4.878,4.79-7.93v-33.637
			c0-1.064-0.053-1.951-0.16-2.661c-0.105-0.709-0.213-1.313-0.318-1.81c-0.107-0.496-0.196-0.939-0.267-1.33
			c-0.071-0.39-0.106-0.763-0.106-1.118c0-1.135,0.549-2.039,1.65-2.714c1.099-0.674,2.43-1.012,3.991-1.012
			c3.619,0,6.493,0.941,8.622,2.82c2.129,1.882,3.193,4.135,3.193,6.76v35.979c0,1.207,0.142,2.395,0.426,3.566
			c0.283,1.17,0.709,2.234,1.277,3.193c0.567,0.957,1.33,1.739,2.289,2.342C335.772-1533.448,336.89-1533.148,338.167-1533.148z"/>
		<path fill="#00A082" d="M401.183-1518.778c-2.555,0-5.162-0.391-7.824-1.171c-2.66-0.781-5.074-2.129-7.238-4.045
			c-2.165-1.916-3.938-4.452-5.322-7.611c-1.383-3.156-2.075-7.148-2.075-11.975c0-7.025,0.939-14.458,2.821-22.301
			c1.879-7.84,4.594-16.48,8.143-25.919h-16.605h-2.448c-0.071,2.129-0.196,4.826-0.372,8.09c-0.179,3.265-0.479,6.742-0.905,10.432
			c-0.426,3.69-0.977,7.416-1.649,11.177c-0.676,3.762-1.509,7.238-2.502,10.432c-0.71,2.271-1.828,3.584-3.354,3.938
			c-1.526,0.355-3.033,0.09-4.523-0.798c-1.49-0.887-2.697-2.183-3.619-3.886c-0.923-1.703-1.136-3.477-0.639-5.322
			c0.567-2.199,1.064-4.878,1.49-8.036c0.426-3.157,0.762-6.494,1.012-10.006c0.247-3.514,0.442-7.025,0.585-10.539
			c0.142-3.512,0.248-6.652,0.319-9.42c-2.697-1.49-4.933-3.388-6.706-5.695c-1.774-2.305-2.661-5.056-2.661-8.249
			c0-1.49,0.301-2.855,0.904-4.099c0.603-1.24,1.401-2.305,2.396-3.193c0.993-0.886,2.164-1.56,3.513-2.021
			c1.348-0.461,2.731-0.692,4.151-0.692c1.277,0,2.608,0.178,3.991,0.532c1.385,0.355,2.696,0.994,3.939,1.916
			c1.24,0.923,2.358,2.129,3.353,3.619c0.993,1.49,1.81,3.336,2.448,5.535c1.773,0.213,3.281,0.373,4.523,0.479
			c1.241,0.107,2.289,0.196,3.141,0.267c0.852,0.071,1.561,0.106,2.129,0.106c0.567,0,1.135,0,1.703,0h11.39
			c0.639,0,1.578,0.391,2.821,1.171c1.24,0.781,2.465,1.793,3.672,3.034c1.206,1.242,2.217,2.572,3.033,3.991
			c0.815,1.42,1.118,2.768,0.905,4.045c0,0.426-0.249,1.455-0.745,3.087c-0.497,1.633-1.101,3.69-1.81,6.174
			c-0.71,2.484-1.49,5.341-2.342,8.568c-0.852,3.23-1.633,6.618-2.342,10.166c-0.71,3.549-1.313,7.222-1.81,11.018
			c-0.497,3.797-0.745,7.504-0.745,11.123c0,1.49,0.177,2.945,0.532,4.364c0.354,1.42,0.887,2.68,1.597,3.778
			c0.709,1.102,1.613,1.97,2.714,2.608c1.1,0.639,2.396,0.958,3.886,0.958c2.483,0,4.612-0.78,6.387-2.342
			c1.773-1.561,3.264-3.513,4.471-5.854c1.206-2.342,2.183-4.878,2.927-7.61c0.746-2.731,1.366-5.305,1.863-7.718
			c0.426-2.271,1.135-3.92,2.129-4.95c0.993-1.027,2.022-1.543,3.087-1.543c0.852,0,1.738,0.266,2.661,0.799
			c0.922,0.531,1.756,1.224,2.502,2.075c0.744,0.852,1.347,1.81,1.809,2.874c0.461,1.064,0.692,2.129,0.692,3.193
			c0,0.355-0.036,0.639-0.106,0.852c-0.071,0.213-0.106,0.426-0.106,0.639c-0.994,3.619-2.288,7.416-3.886,11.39
			c-1.596,3.975-3.637,7.629-6.12,10.964c-2.484,3.336-5.465,6.103-8.941,8.303C409.947-1519.878,405.866-1518.778,401.183-1518.778
			z"/>
		<path fill="#00A082" d="M470.798-1588.286c0,4.045-0.692,8.196-2.075,12.454c-1.385,4.258-3.443,8.286-6.174,12.081
			c-2.733,3.798-6.104,7.204-10.113,10.219c-4.01,3.018-8.64,5.306-13.891,6.866c0.709,1.846,1.65,3.603,2.82,5.269
			c1.172,1.669,2.572,3.105,4.205,4.312c1.632,1.207,3.529,2.165,5.695,2.874c2.163,0.71,4.665,1.064,7.504,1.064
			c4.258,0,7.912-0.799,10.964-2.395c3.051-1.598,5.623-3.708,7.718-6.334c2.092-2.625,3.778-5.57,5.056-8.835
			c1.277-3.264,2.235-6.563,2.874-9.899c0.496-2.412,1.507-4.026,3.033-4.844c1.525-0.814,3.088-1.011,4.684-0.585
			c1.598,0.426,2.98,1.331,4.152,2.714c1.17,1.385,1.649,3.034,1.437,4.95c-0.284,2.2-0.764,4.72-1.437,7.558
			c-0.676,2.839-1.687,5.713-3.034,8.622c-1.349,2.91-3.07,5.767-5.163,8.569c-2.094,2.804-4.666,5.305-7.717,7.504
			c-3.052,2.199-6.636,3.974-10.751,5.322c-4.116,1.348-8.835,2.022-14.157,2.022c-4.968,0-9.776-0.977-14.424-2.927
			c-4.648-1.953-8.765-4.754-12.348-8.41c-3.584-3.653-6.458-8.159-8.621-13.518c-2.166-5.357-3.247-11.443-3.247-18.256
			c0-6.883,0.958-13.287,2.874-19.213c1.916-5.925,4.435-11.053,7.558-15.382c3.122-4.328,6.67-7.718,10.645-10.165
			c3.974-2.449,8.054-3.673,12.241-3.673c3.051,0,5.801,0.532,8.25,1.597c2.447,1.064,4.523,2.573,6.227,4.523
			c1.703,1.953,2.997,4.276,3.885,6.973C470.354-1594.531,470.798-1591.55,470.798-1588.286z M435.671-1562.527
			c0,0.639,0.035,1.277,0.106,1.916c0.07,0.639,0.106,1.313,0.106,2.022c2.696-1.277,5.145-2.909,7.345-4.896
			c2.199-1.986,4.08-4.258,5.642-6.813c1.561-2.555,2.768-5.339,3.619-8.356c0.852-3.015,1.277-6.155,1.277-9.42
			c0-2.412-0.409-4.293-1.224-5.642c-0.817-1.348-1.935-2.022-3.354-2.022c-1.774,0-3.354,0.604-4.736,1.81
			c-1.385,1.207-2.592,2.786-3.619,4.737c-1.03,1.952-1.882,4.15-2.555,6.6c-0.676,2.447-1.225,4.914-1.65,7.397
			c-0.426,2.484-0.71,4.843-0.852,7.079C435.635-1565.88,435.6-1564.017,435.671-1562.527z"/>
	</g>
</g>
<g transform="translate(4.469 1518.609)">
	<path fill="#00A082" d="M53.937-1363.557l-9.011,10.024c-5.511-4.962-10.914-9.546-16-14.461
		c-10.86-10.5-17.717-22.974-18.524-38.413c-1.41-26.946,19.472-51.482,46.393-54.34c27.42-2.911,51.731,13.782,57.4,39.746
		c4.239,19.4-0.171,36.43-14.617,50.617c-14.713,14.451-29.148,29.186-43.825,43.674c-3.777,3.728-5.251,7.8-4.24,13.031
		c1.481,7.664-0.892,14.35-6.15,19.932c-4.132,4.388-8.532,8.525-12.877,12.708c-1.128,1.037-2.357,1.959-3.668,2.753
		c-1.964,1.248-3.779,0.757-5.361-0.792s-2.217-3.514-0.818-5.32c2-2.58,4.348-4.891,6.568-7.3c1.555-1.686,3.282-3.236,4.678-5.043
		c1.326-1.382,1.28-3.576-0.101-4.902c-0.048-0.046-0.097-0.09-0.147-0.133c-1.688-1.623-3.669-2.243-5.641-0.8
		c-1.793,1.435-3.493,2.984-5.089,4.636c-1.507,1.433-2.872,3.035-4.478,4.343c-1.664,1.602-4.312,1.551-5.913-0.114
		c-0.015-0.016-0.03-0.031-0.045-0.047c-2-1.813-2.485-4.078-0.882-6.175c1.91-2.249,3.941-4.392,6.082-6.422
		c1.109-1.055,2.135-2.194,3.069-3.407c1.383-2,1.031-3.943-0.743-5.6c-1.69-1.577-3.677-1.782-5.365-0.338
		c-2.49,2.129-4.7,4.578-7.052,6.874c-1.331,1.3-2.627,2.65-4.059,3.831c-2.229,1.838-4.453,1.592-6.436-0.443
		c-1.9-1.949-2.162-4.286-0.255-6.164c6.633-6.531,13.188-13.183,20.269-19.206c4.6-3.91,10.49-4.251,16.263-2.554
		c4.176,1.227,7.539,0.09,10.479-2.848c15.833-15.817,31.879-31.428,47.408-47.537c10.97-11.379,12.39-24.947,6.576-39.356
		c-5.913-14.655-17.157-22.155-32.679-23c-16.1-0.882-30.055,7.729-36.3,21.749c-6.568,14.754-3.825,30.543,7.417,42.289
		c5.233,5.468,10.566,10.84,15.832,16.276C52.85-1365.019,53.471-1364.132,53.937-1363.557z"/>
	<path fill="#00A082" d="M149.806-1397.212c6.7,6.764,13.167,13.462,19.9,19.882c0.83,0.791,3.564,0.757,4.589-0.005
		c12.028-8.949,18.7-20.459,16.1-35.969c-1.491-8.886,3.607-13.875,10.353-18.178c4,7.863,5.129,16.244,4.974,24.875
		c-0.262,14.6-5.926,26.738-16.552,36.708c-5.594,5.248-10.963,10.737-16.763,16.441c-15.365-13.057-28.889-28.151-43.2-42.015
		l108.855-109.136c4.3,3.066,5.513,7.94,6.082,12.911c0.79,6.89-0.433,13.422-5.5,18.6s-9.991,10.527-15.6,15.022
		c-2.793,2.236-6.9,3.324-10.566,3.854c-4.911,0.535-9.483,2.762-12.932,6.3c-15.519,15.816-31.241,31.432-46.861,47.148
		C151.663-1399.639,150.701-1398.45,149.806-1397.212z"/>
	<path fill="#00A082" d="M118.336-1374.479c3.407,3.235,6.544,6.1,9.557,9.1c8.245,8.191,16.457,16.413,24.637,24.666
		c3.092,3.122,3.127,4.263,0.03,7.381c-13.6,13.687-27.233,27.342-40.9,40.966c-1.645,1.647-3.49,2.551-5.444,0.632
		c-11.494-11.282-22.943-22.61-34.768-34.278l11.743-9.755l24,24.953l26.923-27.666l-25.722-23.392L118.336-1374.479z"/>
	<path fill="#00A082" d="M171.633-1457.412c-3.128,2.958-5.845,5.487-8.517,8.064c-2.22,2.174-5.267,3.291-8.366,3.067
		c-11-0.392-20.307,3.683-28.357,10.969c-2.817,2.55-3.16,2.509-5.03-0.766c-1.087-1.9-2-3.9-3.152-5.766
		c-1.693-2.75-1.013-5.007,1.217-7c7.313-6.562,16.492-10.677,26.257-11.769c7.439-0.917,14.86-1.022,22.056,1.608
		C168.852-1458.598,169.931-1458.112,171.633-1457.412z"/>
</g>
</svg>
