<svg width="30" height="32" viewBox="0 0 30 32" fill="none" xmlns="http://www.w3.org/2000/svg">
<path d="M29.6867 13.5166C29.6867 13.5166 31.05 18.8008 28.0958 24.3525C28.0958 24.3525 27.7969 20.5143 23.1328 18.4152C23.1328 18.4152 27.4624 17.4096 29.6867 13.5166Z" fill="#FFCE07"/>
<path d="M29.1764 11.7716C29.1764 11.7716 21.9357 18.2939 14.7344 13.4189C14.7344 13.4189 21.7699 14.072 27.4394 8.28027C27.4394 8.28027 28.4007 9.5751 29.1764 11.7716Z" fill="#FFCE07"/>
<path d="M26.7947 7.3862C26.7947 7.3862 21.1974 13.4823 12.3704 12.04L11.9395 9.87378C11.9395 9.87378 18.0896 10.8388 25.4099 5.84375C25.4099 5.84375 26.3553 6.80873 26.7947 7.3862Z" fill="#FFCE07"/>
<path d="M24.62 5.1495C22.2599 6.95092 17.6735 9.65115 12.5156 8.58032L13.8883 6.21844C13.8883 6.21844 17.4149 7.19476 22.2955 3.50781C22.2955 3.50781 22.9738 3.8008 24.621 5.1495H24.62Z" fill="#FFCE07"/>
<path d="M21.2456 2.97113C21.2456 2.97113 17.5971 1.13758 13.543 1.64416L14.0133 3.15164C14.3131 4.1119 15.1658 4.80184 16.1617 4.85382C17.2964 4.91336 18.9791 4.55894 21.2456 2.97113Z" fill="#FFCE07"/>
<path d="M17.8209 31.8072C17.8209 31.8072 6.99826 33.9215 1.86754 24.146C-0.306169 20.0035 -0.635974 15.0983 1.16109 10.7762C2.20203 8.27259 4.06093 5.62717 7.34305 3.57341C7.34305 3.57341 6.07537 2.37688 6.482 0.0310662C6.482 0.0310662 8.22097 -0.265704 9.34905 0.97525C9.52894 1.17278 9.78005 1.28809 10.0452 1.29754L10.2373 1.3051C10.2373 1.3051 12.1543 -0.360217 12.5422 2.39861L12.8307 2.40523C13.421 2.41941 13.897 2.89575 13.9167 3.49024L13.9457 4.39284C13.9457 4.39284 15.9236 4.84366 15.9236 7.03069C15.9236 7.03069 13.8501 6.06571 13.6909 7.99567C13.6909 7.99567 14.6793 8.31701 14.743 9.47574C14.743 9.47574 14.105 11.6958 12.4147 10.28C12.381 11.1959 12.7427 12.0805 13.406 12.7062C15.665 14.8356 21.4656 18.7153 29.4091 12.4841C29.4091 12.4841 26.5767 17.0368 21.936 18.2919C21.936 18.2919 30.0377 22.0781 25.6519 27.5154C25.6519 27.5154 20.6945 33.6228 12.367 27.2442C12.367 27.2442 3.57934 20.8173 8.06075 11.607C8.06075 11.607 9.92621 18.3392 15.74 19.0631C15.74 19.0631 21.6249 19.7871 26.0745 24.2755C26.0745 24.2755 25.6435 20.9846 17.7497 18.1218C17.7497 18.1218 10.9316 16.1672 10.8603 10.7375C10.8603 10.7375 10.5015 7.91438 13.5156 5.5251C13.5156 5.5251 10.3647 1.89297 7.20157 5.23116C6.45764 6.01657 5.16746 8.22439 4.85827 9.26497C4.15088 11.6467 3.54749 16.1654 5.08689 21.2549C5.2724 21.8692 5.48602 22.3559 5.7999 22.8597C6.7584 24.3993 9.05766 28.6505 17.8218 31.8035L17.8209 31.8072Z" fill="#E11763"/>
<path d="M10.1688 6.54857C10.605 6.54857 10.9586 6.19185 10.9586 5.75182C10.9586 5.31179 10.605 4.95508 10.1688 4.95508C9.73253 4.95508 9.37891 5.31179 9.37891 5.75182C9.37891 6.19185 9.73253 6.54857 10.1688 6.54857Z" fill="#E11763"/>
</svg>
