<svg width="123" height="36" viewBox="0 0 123 36" fill="none" xmlns="http://www.w3.org/2000/svg">
<g clip-path="url(#clip0_1989_3013)">
<path d="M39.3974 7.43164C39.3974 7.43164 40.126 10.337 38.5471 13.3895C38.5471 13.3895 38.3873 11.2792 35.8945 10.125C35.8945 10.125 38.2086 9.57209 39.3974 7.43164Z" fill="#FFCE07"/>
<path d="M39.125 6.47233C39.125 6.47233 35.2551 10.0585 31.4062 7.37809C31.4062 7.37809 35.1665 7.73717 38.1966 4.55273C38.1966 4.55273 38.7104 5.26466 39.125 6.47233Z" fill="#FFCE07"/>
<path d="M37.8498 4.06096C37.8498 4.06096 34.8582 7.41273 30.1405 6.61974L29.9102 5.42869C29.9102 5.42869 33.1972 5.95926 37.1097 3.21289C37.1097 3.21289 37.6149 3.74346 37.8498 4.06096Z" fill="#FFCE07"/>
<path d="M36.6881 2.83232C35.4267 3.82278 32.9755 5.30743 30.2188 4.71867L30.9524 3.42005C30.9524 3.42005 32.8373 3.95685 35.4457 1.92969C35.4457 1.92969 35.8083 2.09078 36.6886 2.83232H36.6881Z" fill="#FFCE07"/>
<path d="M34.8863 1.63372C34.8863 1.63372 32.9363 0.625594 30.7695 0.904128L31.0209 1.73297C31.1812 2.26094 31.6369 2.64029 32.1692 2.66887C32.7756 2.70161 33.675 2.50674 34.8863 1.63372Z" fill="#FFCE07"/>
<path d="M33.0559 17.4883C33.0559 17.4883 27.2716 18.6508 24.5294 13.276C23.3676 10.9984 23.1913 8.30139 24.1518 5.92502C24.7082 4.54845 25.7017 3.09395 27.4559 1.96474C27.4559 1.96474 26.7783 1.30686 26.9957 0.0170809C26.9957 0.0170809 27.9251 -0.14609 28.528 0.536214C28.6241 0.644822 28.7584 0.708219 28.9001 0.713416L29.0027 0.717573C29.0027 0.717573 30.0273 -0.198055 30.2346 1.31881L30.3888 1.32245C30.7043 1.33024 30.9587 1.59215 30.9692 1.91901L30.9848 2.41528C30.9848 2.41528 32.0419 2.66315 32.0419 3.86563C32.0419 3.86563 30.9337 3.33506 30.8485 4.3962C30.8485 4.3962 31.3769 4.57288 31.4109 5.20997C31.4109 5.20997 31.0699 6.43064 30.1665 5.6522C30.1485 6.15574 30.3418 6.64214 30.6963 6.98615C31.9037 8.15692 35.0039 10.2901 39.2494 6.86403C39.2494 6.86403 37.7356 9.3672 35.2553 10.0573C35.2553 10.0573 39.5854 12.139 37.2413 15.1286C37.2413 15.1286 34.5918 18.4866 30.141 14.9794C30.141 14.9794 25.4443 11.4458 27.8394 6.38179C27.8394 6.38179 28.8365 10.0833 31.9437 10.4813C31.9437 10.4813 35.089 10.8794 37.4672 13.3472C37.4672 13.3472 37.2368 11.5378 33.0179 9.96376C33.0179 9.96376 29.3738 8.88912 29.3357 5.90371C29.3357 5.90371 29.1439 4.35151 30.7549 3.03782C30.7549 3.03782 29.0708 1.0408 27.3802 2.87621C26.9826 3.30804 26.2931 4.52195 26.1278 5.09409C25.7498 6.40362 25.4273 8.88808 26.25 11.6864C26.3492 12.0242 26.4633 12.2918 26.6311 12.5688C27.1434 13.4153 28.3723 15.7527 33.0564 17.4863L33.0559 17.4883Z" fill="#E11763"/>
<path d="M28.9671 3.60074C29.2002 3.60074 29.3892 3.40461 29.3892 3.16268C29.3892 2.92074 29.2002 2.72461 28.9671 2.72461C28.7339 2.72461 28.5449 2.92074 28.5449 3.16268C28.5449 3.40461 28.7339 3.60074 28.9671 3.60074Z" fill="#E11763"/>
<path d="M24.4549 1.72904C24.1975 2.0585 23.9932 2.39575 23.8419 2.7408C23.6902 3.08637 23.524 3.61901 23.3422 4.34029L20.958 14.3156C20.7913 15.0218 20.7082 15.6017 20.7082 16.0564C20.7082 16.3547 20.7457 16.6446 20.8218 16.9268H14.3504C14.5623 16.6129 14.7551 16.2632 14.9293 15.8781C15.1031 15.4936 15.2658 14.9708 15.4176 14.3114L17.6655 4.93322L10.7404 16.9268H6.89804L5.85194 4.95504L3.61202 14.1934C3.52038 14.5702 3.44076 14.9241 3.37215 15.2535C3.30355 15.5835 3.2695 15.8501 3.2695 16.0543C3.2695 16.1957 3.27701 16.3058 3.29203 16.3843C3.30705 16.4633 3.37516 16.6436 3.49634 16.9263H0C0.317986 16.5807 0.548839 16.2471 0.692559 15.9249C0.836779 15.6033 1.00704 15.0259 1.20334 14.1929L3.51938 4.43799C3.7312 3.56601 3.83737 2.95853 3.83737 2.61608C3.83737 2.35158 3.76926 2.05538 3.63305 1.72852H11.2642L11.9683 10.3527L17.028 1.72852H24.4549V1.72904Z" fill="#E01764"/>
<path d="M42.5065 14.1929C42.2797 15.12 42.1665 15.7404 42.1665 16.0543C42.1665 16.1957 42.174 16.3058 42.189 16.3843C42.204 16.4633 42.2721 16.6436 42.3933 16.9263H38.8965C39.2135 16.5807 39.4433 16.2466 39.586 15.9244C39.7298 15.6022 39.8995 15.0244 40.0953 14.1919L42.4104 4.43643C42.6262 3.56497 42.7339 2.95801 42.7339 2.61556C42.7339 2.35106 42.6657 2.05538 42.5295 1.72852H50.3199L53.2499 14.1342L55.6291 4.43799C55.8424 3.56601 55.9491 2.95853 55.9491 2.61608C55.9491 2.35158 55.8809 2.05538 55.7447 1.72852H59.2416C58.9386 2.05538 58.7118 2.3864 58.5605 2.72157C58.4088 3.05675 58.235 3.62889 58.0382 4.43851L55.0642 16.9268H47.8887L44.8911 4.34445L42.507 14.1934L42.5065 14.1929Z" fill="#E01764"/>
<path d="M72.2523 4.25033H67.098C66.6588 4.25033 66.3633 4.28982 66.2121 4.36829C66.0604 4.44728 65.9472 4.6276 65.8716 4.91029L65.6673 5.75836L65.6217 6.04105C65.6217 6.30816 65.9397 6.44171 66.5752 6.44171H70.5032C72.5313 6.44171 73.5458 7.12349 73.5458 8.48706C73.5458 8.78482 73.5003 9.12156 73.4096 9.49778L72.5243 13.1889C72.2213 14.4584 71.7596 15.3834 71.1391 15.9628C70.4426 16.6056 69.4511 16.9267 68.1646 16.9267H58.1738L58.4237 13.84C58.7262 14.0131 59.0256 14.1502 59.3206 14.2526C59.616 14.355 59.9981 14.4059 60.4673 14.4059H65.826C66.2497 14.4059 66.5411 14.3669 66.7004 14.2879C66.8591 14.2095 66.9688 14.0286 67.0294 13.7459L67.2792 12.6859L67.3248 12.4032C67.3248 12.1522 67.0143 12.0264 66.3939 12.0264H61.8755C60.9976 12.0264 60.3657 11.8934 59.9796 11.6268C59.5935 11.3602 59.4007 10.8899 59.4007 10.2159C59.4007 9.82413 59.4688 9.33046 59.605 8.73493L60.4223 5.32653C60.9971 2.92885 62.3066 1.72949 64.3503 1.72949H74.636L74.3861 4.74556C74.0531 4.57303 73.7351 4.44728 73.4326 4.36881C73.1297 4.29034 72.7361 4.25085 72.2518 4.25085L72.2523 4.25033Z" fill="#E01764"/>
<path d="M90.2799 4.86254C90.0075 4.65884 89.7351 4.50554 89.4626 4.40317C89.1902 4.30132 88.8192 4.24987 88.3499 4.24987H85.8296L83.4229 14.3161C83.2562 15.0529 83.173 15.649 83.173 16.1037C83.173 16.4175 83.2031 16.6919 83.2637 16.9268H76.8153C77.0271 16.6129 77.2199 16.2642 77.3942 15.8802C77.568 15.4962 77.7307 14.975 77.8824 14.3161L80.2891 4.24987H77.7688C77.269 4.24987 76.8869 4.28937 76.622 4.36783C76.3571 4.44682 76.0051 4.61155 75.5664 4.86254L76.7697 1.72852H90.5753L90.2804 4.86254H90.2799Z" fill="#E01764"/>
<path d="M103.654 13.9809L102.451 16.9263H89.6445C89.8564 16.6124 90.0491 16.2637 90.2234 15.8797C90.3972 15.4952 90.5599 14.974 90.7117 14.315L93.0958 4.33977C93.1864 3.97913 93.2545 3.63045 93.3001 3.29319C93.3457 2.95594 93.3682 2.70131 93.3682 2.52878C93.3682 2.37185 93.3567 2.21907 93.3342 2.06993C93.3116 1.92131 93.2921 1.8075 93.2776 1.72852H105.857L105.607 4.65052C105.289 4.54088 104.94 4.4463 104.562 4.36783C104.184 4.28937 103.722 4.24987 103.177 4.24987H98.6588L97.8185 7.78403H101.77C102.36 7.78403 102.81 7.75701 103.121 7.70141C103.431 7.64632 103.843 7.54031 104.358 7.38338L103.563 10.6821C103.245 10.5787 102.897 10.4899 102.519 10.4161C102.14 10.3423 101.686 10.3054 101.156 10.3054H97.2051L96.2286 14.4054H101.042C101.648 14.4054 102.11 14.3763 102.428 14.3181C102.746 14.2599 103.154 14.1477 103.654 13.9814L103.654 13.9809Z" fill="#E01764"/>
<path d="M111.033 14.3109C110.867 15.0493 110.783 15.6464 110.783 16.1016C110.783 16.416 110.814 16.6909 110.874 16.9263H104.426C104.638 16.6124 104.83 16.2637 105.005 15.8797C105.178 15.4952 105.341 14.974 105.493 14.315L107.877 4.33977C108.043 3.64967 108.127 3.10092 108.127 2.69299C108.127 2.33235 108.059 2.01069 107.923 1.72852H119.866C120.941 1.72852 121.731 1.88545 122.239 2.1988C122.745 2.51215 122.999 3.0448 122.999 3.79673C122.999 4.14126 122.939 4.56426 122.817 5.06521L122.159 7.86146C121.917 8.86439 121.538 9.54566 121.024 9.90578C120.63 10.1724 120.07 10.3054 119.344 10.3054L120.297 14.5936C120.388 15.0337 120.482 15.4692 120.581 15.9015C120.679 16.3339 120.804 16.6753 120.956 16.9263H114.757L113.689 10.3054H111.986L111.033 14.3109H111.033ZM115.734 7.78403C116.097 7.78403 116.354 7.73363 116.506 7.63177C116.657 7.53044 116.771 7.30024 116.846 6.94115L117.278 5.09223L117.346 4.67079C117.346 4.39018 117.089 4.24987 116.574 4.24987H113.441L112.6 7.78403H115.734Z" fill="#E01764"/>
<path d="M70.3029 29.5589C70.4581 28.4572 70.7691 27.4215 71.2353 26.4524C71.5883 26.335 71.9414 26.2102 72.2944 26.0777L72.8242 23.5881C72.5413 23.5735 72.2593 23.5517 71.9769 23.5221C71.5813 23.4483 71.3835 23.2945 71.3835 23.0596C71.3835 22.898 71.4681 22.5451 71.6379 22.0021C71.6805 21.8701 71.7931 21.5287 71.9769 20.9779C72.1602 20.427 72.3615 20.0783 72.5808 19.9313C72.7997 19.7842 73.1492 19.7109 73.6294 19.7109H76.9766C78.1063 19.7109 78.9961 19.7624 79.6461 19.8648C80.6206 20.0264 81.1079 20.2898 81.1079 20.6562C81.1079 21.8872 80.8885 22.7301 80.4509 23.1843C80.0978 23.5507 79.5044 23.7341 78.6712 23.7341C78.2755 23.7341 77.9646 23.7253 77.7387 23.7081C76.623 23.6229 76.0086 23.5798 75.8954 23.5798H74.7301L76.1498 24.2725C76.1924 24.3618 76.2414 24.4663 76.298 24.5853C76.3541 24.7043 76.3827 24.7864 76.3827 24.8311C76.3827 25.1143 76.3616 25.3679 76.3191 25.5908C76.2344 25.9187 76.1708 26.1645 76.1283 26.3282C76.3115 26.3136 76.5484 26.2955 76.8378 26.2731C77.1273 26.2513 77.4202 26.2404 77.7172 26.2404C78.2821 26.2404 78.7373 26.2918 79.0838 26.3942C79.4298 26.4971 79.6031 26.6873 79.6031 26.9658C79.6031 27.4496 79.5214 27.9739 79.3592 28.5378C79.1965 29.1021 78.9811 29.6041 78.7132 30.0437C78.6421 30.1315 78.4588 30.1903 78.1624 30.2194C77.8659 30.249 77.4843 30.2635 77.0181 30.2635H75.0056C74.624 32.1109 74.3911 33.1798 74.3065 33.4703C73.8262 35.1576 73.3175 36.0015 72.7811 36.0015C72.2448 36.0015 71.6935 35.9059 71.1286 35.7157C70.366 35.4517 69.9844 35.0999 69.9844 34.6603C69.9844 34.1765 70.0765 33.6345 70.2598 33.0333C70.5422 32.0953 70.8317 31.1501 71.1286 30.197C70.719 30.0946 70.4436 29.8821 70.3024 29.5594L70.3029 29.5589Z" fill="#FFCD04"/>
<path d="M87.5486 21.711C87.5486 21.8285 87.5411 22.0046 87.5275 22.2385C87.5135 22.4728 87.5065 22.6272 87.5065 22.6999C87.6192 22.6121 87.9302 22.3481 88.4389 21.9085C88.9472 21.4689 89.3002 21.2491 89.4981 21.2491C89.9077 21.2491 90.2252 21.5936 90.4515 22.2821C90.6774 22.9712 90.7905 23.9237 90.7905 25.1402C90.7905 27.2069 90.3313 29.193 89.4134 31.098C88.2977 33.4141 86.85 34.5714 85.0703 34.5714C83.7848 34.5714 82.7963 34.0954 82.1043 33.1424C81.4968 32.3068 81.1934 31.2004 81.1934 29.8228C81.1934 27.8736 81.6806 26.0049 82.6551 24.2168C83.7848 22.1356 85.2255 21.0947 86.9772 21.0947C87.175 21.0947 87.3372 21.1243 87.4644 21.1825C87.5205 21.3 87.5491 21.4762 87.5491 21.71L87.5486 21.711ZM87.4214 24.5359C87.3788 24.221 87.3082 23.9242 87.2096 23.6457C87.181 23.7486 87.1384 23.8801 87.0824 24.0417C87.0258 24.2033 86.9762 24.3202 86.9341 24.3935C86.1289 24.8482 85.4969 25.5736 85.0382 26.5698C84.579 27.5665 84.3497 28.5777 84.3497 29.6035C84.3497 29.9699 84.4133 30.3108 84.5405 30.6257C84.6677 30.9411 84.8935 31.0986 85.2185 31.0986C85.9386 31.0986 86.5245 30.3149 86.9767 28.7461C87.3157 27.5738 87.485 26.4965 87.485 25.5144C87.485 25.1771 87.4639 24.8513 87.4214 24.5359Z" fill="#FFCD04"/>
<path d="M98.0134 21.711C98.0134 21.8285 98.0059 22.0046 97.9924 22.2385C97.9784 22.4728 97.9714 22.6272 97.9714 22.6999C98.084 22.6121 98.395 22.3481 98.9038 21.9085C99.4121 21.4689 99.7651 21.2491 99.9629 21.2491C100.373 21.2491 100.69 21.5936 100.916 22.2821C101.142 22.9712 101.255 23.9237 101.255 25.1402C101.255 27.2069 100.796 29.193 99.8783 31.098C98.7626 33.4141 97.3149 34.5714 95.5351 34.5714C94.2497 34.5714 93.2612 34.0954 92.5691 33.1424C91.9617 32.3068 91.6582 31.2004 91.6582 29.8228C91.6582 27.8736 92.1455 26.0049 93.1199 24.2168C94.2497 22.1356 95.6904 21.0947 97.442 21.0947C97.6398 21.0947 97.8021 21.1243 97.9293 21.1825C97.9854 21.3 98.0139 21.4762 98.0139 21.71L98.0134 21.711ZM97.8862 24.5359C97.8437 24.221 97.7731 23.9242 97.6744 23.6457C97.6459 23.7486 97.6033 23.8801 97.5472 24.0417C97.4906 24.2033 97.441 24.3202 97.399 24.3935C96.5937 24.8482 95.9618 25.5736 95.5031 26.5698C95.0439 27.5665 94.8145 28.5777 94.8145 29.6035C94.8145 29.9699 94.8781 30.3108 95.0053 30.6257C95.1325 30.9411 95.3584 31.0986 95.6834 31.0986C96.4035 31.0986 96.9894 30.3149 97.4415 28.7461C97.7806 27.5738 97.9498 26.4965 97.9498 25.5144C97.9498 25.1771 97.9288 24.8513 97.8862 24.5359Z" fill="#FFCD04"/>
<path d="M103.12 29.5701C103.416 28.3318 103.84 26.7229 104.39 24.7446L103.331 25.0964L103.077 24.8324C103.077 24.5544 103.155 24.1657 103.31 23.6674C103.394 23.4034 103.515 23.0225 103.67 22.5241C103.825 22.0258 104.284 21.6813 105.047 21.4911C105.499 21.3742 106.113 21.3154 106.89 21.3154C108.543 21.3154 109.87 21.7478 110.873 22.6125C111.947 23.5359 112.483 24.8408 112.483 26.526C112.483 28.3728 111.77 30.1682 110.344 31.9122C108.86 33.7299 107.257 34.6383 105.534 34.6383C104.997 34.6383 104.386 34.3416 103.701 33.7481C103.016 33.1547 102.674 32.6085 102.674 32.1102C102.674 31.656 102.822 30.8095 103.119 29.5712L103.12 29.5701ZM105.535 24.3268C106.114 24.4588 106.502 24.5685 106.7 24.6568C107.124 24.8621 107.335 25.1624 107.335 25.5584C107.335 25.9248 107.074 27.0903 106.552 29.0541C106.297 30.0362 106.135 30.7108 106.065 31.0766C106.982 30.9597 107.745 30.4535 108.353 29.5597C108.903 28.7392 109.179 27.823 109.179 26.8118C109.179 25.9325 108.889 25.2726 108.31 24.833C107.815 24.4521 107.131 24.2613 106.255 24.2613L105.535 24.3273V24.3268Z" fill="#FFCD04"/>
<path d="M116.298 30.715C116.298 30.9088 116.269 31.1026 116.213 31.2964H116.488C116.785 31.2964 117.018 31.2414 117.187 31.1317C117.357 31.0221 117.442 30.8277 117.442 30.5492C117.442 30.0654 117.089 29.2449 116.383 28.0871C115.676 26.9293 115.324 26.0131 115.324 25.3391C115.324 23.9615 115.966 22.8989 117.252 22.1516C118.282 21.5509 119.504 21.25 120.917 21.25C121.467 21.25 121.87 21.2942 122.124 21.382C122.548 21.5285 122.759 21.8294 122.759 22.2836C122.759 23.3827 122.611 24.1341 122.315 24.5368C122.018 24.9401 121.389 25.1412 120.429 25.1412C120.076 25.1412 119.854 25.1121 119.762 25.0533C119.67 24.9951 119.624 24.8995 119.624 24.7675C119.624 24.7384 119.638 24.6506 119.667 24.5035H119.391C119.179 24.5035 118.992 24.5732 118.83 24.7124C118.667 24.8517 118.586 25.0242 118.586 25.229C119.024 26.1379 119.468 27.0467 119.921 27.9551C120.316 28.8052 120.514 29.5676 120.514 30.2416C120.514 31.6784 120.076 32.7697 119.201 33.5174C118.395 34.2065 117.287 34.5505 115.874 34.5505C114.956 34.5505 114.363 34.4991 114.095 34.3967C113.586 34.1914 113.332 33.7227 113.332 32.9895C113.332 32.6527 113.41 32.1762 113.565 31.5604C113.72 30.9446 113.875 30.4977 114.031 30.2192C114.314 30.0872 114.603 30.0212 114.9 30.0212C114.999 30.0212 115.133 30.0249 115.303 30.0327C115.472 30.0399 115.761 30.0737 116.171 30.1335C116.256 30.3569 116.299 30.5507 116.299 30.715H116.298Z" fill="#FFCD04"/>
</g>
<defs>
<clipPath id="clip0_1989_3013">
<rect width="123" height="36" fill="white"/>
</clipPath>
</defs>
</svg>
